M48
;GenerationSoftware,Autodesk,EAGLE,9.0.1*%
;CreationDate,2018-05-18T06:58:42Z*%
FMAT,2
ICI,OFF
INCH,TZ,000.0000
T4C0.0276
T3C0.0320
T2C0.0433
T1C0.1181
%
G90
M72
T1
X1969Y1969
X23622Y1969
X23622Y13780
X1969Y13780
T2
X17000Y1500
X16000Y1500
X15000Y1500
X14000Y1500
X13000Y1500
X12000Y1500
X6254Y1561
X5254Y1561
X4254Y1561
X7000Y5500
X6000Y5500
X19000Y5500
X18000Y5500
X15000Y5500
X14000Y5500
X11000Y5500
X10000Y5500
X3000Y5500
X2000Y5500
X23000Y5500
X22000Y5500
T3
X8256Y2133
X8256Y1133
T4
X8500Y7439
X8500Y3439
X24378Y7439
X24378Y3439
X20500Y7439
X20500Y3439
X16500Y7439
X16500Y3439
X4500Y7439
X4500Y3439
X12500Y7439
X12500Y3439
M30