M48
;GenerationSoftware,Autodesk,EAGLE,9.0.1*%
;CreationDate,2018-05-17T06:10:28Z*%
FMAT,2
ICI,OFF
METRIC,TZ,000.000
T6C0.800
T5C0.813
T4C1.000
T3C1.016
T2C1.100
T1C3.000
%
G90
M71
T1
X5000Y5000
X30000Y5000
X5000Y50000
X30000Y50000
T2
X13335Y7915
X12065Y5715
X10795Y3515
X24765Y7915
X23495Y5715
X22225Y3515
T3
X5715Y42545
X10795Y42545
X22860Y47625
X17780Y47625
T4
X21590Y22860
X13970Y22860
T5
X6350Y12065
X3810Y12065
X29210Y12065
X31750Y12065
T6
X10160Y33020
X12700Y33020
X15240Y33020
X17780Y33020
X22860Y33020
X27940Y33020
M30