M48
;GenerationSoftware,Autodesk,EAGLE,9.0.1*%
;CreationDate,2018-05-22T04:18:14Z*%
FMAT,2
ICI,OFF
INCH,TZ,000.0000
T9C0.0276
T8C0.0320
T7C0.0354
T6C0.0394
T5C0.0400
T4C0.0433
T3C0.0510
T2C0.0512
T1C0.1181
%
G90
M72
T1
X1969Y27559
X35433Y27559
X35433Y1969
X1969Y1969
X21750Y19250
X1250Y6250
X1750Y25250
X21750Y8250
X33750Y6250
T2
X27504Y2990
X25504Y2990
X12137Y3115
X10137Y3115
T3
X13770Y11890
X13770Y20690
T4
X16750Y8625
X17750Y8625
X22875Y28250
X22875Y27250
X11750Y8375
X10750Y8375
X9750Y8375
X5875Y8375
X4875Y8375
X3875Y8375
X18000Y22750
X25000Y27250
X25000Y28250
X27125Y27250
X27125Y28250
X29250Y27250
X29250Y28250
X31375Y27250
X31375Y28250
X33500Y27250
X33500Y28250
X18750Y27750
X13750Y27750
X14750Y27750
X15750Y27750
X16750Y27750
X17750Y27750
X18000Y21750
X25625Y19750
X25625Y20750
X25625Y21750
X25625Y22750
X18000Y19750
X18000Y20750
T5
X26875Y10750
X29875Y13750
X23875Y12250
X24875Y12250
X25875Y12250
X26875Y12250
X27875Y12250
X28875Y12250
X29875Y12250
X23875Y10750
X24875Y10750
X25875Y10750
X27875Y10750
X28875Y10750
X29875Y10750
X23875Y9250
X24875Y9250
X25875Y9250
X26875Y9250
X27875Y9250
X28875Y9250
X29875Y9250
X23875Y15250
X24875Y15250
X25875Y15250
X26875Y15250
X27875Y15250
X28875Y15250
X29875Y15250
X23875Y13750
X24875Y13750
X25875Y13750
X26875Y13750
X27875Y13750
X28875Y13750
T6
X28875Y16375
X27875Y16375
X29125Y22814
X29125Y23750
X22125Y9625
X16000Y21750
X16750Y7438
X15250Y7875
X26875Y17250
X16063Y13438
X18125Y16938
X21750Y28000
X29735Y2822
X8468Y3115
X22688Y16813
X21625Y17375
X28063Y17375
X24875Y16938
X24875Y18375
X19750Y15688
X19750Y16938
X16078Y18563
X18750Y15750
X18750Y18250
X22750Y15250
X10250Y25250
X17750Y6250
X18750Y6250
X16750Y6250
X15750Y6250
X33750Y24250
X32750Y24250
X32750Y23250
X33750Y23250
X33750Y22250
X32750Y22250
X32750Y21250
X33750Y21250
X9750Y6250
X11750Y6250
X12750Y6250
X13750Y6250
X13750Y25250
X14750Y25250
X15750Y25250
X16750Y25250
X17750Y25250
X18750Y25250
X28750Y25250
X29750Y25250
X6250Y25250
X32750Y17250
X33750Y17250
X33750Y18250
X32750Y18250
X32750Y19250
X33750Y19250
X33750Y20250
X32750Y20250
T7
X23250Y20250
T8
X19375Y13500
X13500Y9500
X19375Y14500
X23625Y18500
X23625Y17500
X19625Y9250
X19625Y8250
X20250Y24000
X20250Y23000
X23250Y24000
X23250Y23000
X14500Y9500
X23250Y21000
X23250Y22000
X20250Y22000
X20250Y21000
X28500Y19120
X27500Y19120
X14500Y7813
X13500Y7813
X29250Y19120
X30250Y19120
X20407Y4331
X19407Y4331
X17407Y1331
X18407Y1331
X18407Y4331
X17407Y4331
X19407Y1331
X20407Y1331
T9
X16250Y11375
X17250Y12375
X20750Y17250
X20750Y16250
X21750Y15250
X21750Y16250
X13754Y2944
X14754Y3944
X15754Y2944
X21512Y2980
X22512Y3980
X23512Y2980
X19250Y11375
X20250Y12375
X21250Y11375
X18250Y11375
M30