%
M48
M72
T01C0.02756
T02C0.03150
T03C0.03200
T04C0.03937
T05C0.04331
T06C0.05100
T07C0.05118
T08C0.12598
%
T01
X190100Y65100
X200100Y75100
X210100Y65100
X218850Y65100
X228850Y75100
X238850Y65100
X243850Y110100
X252600Y110100
X262600Y120100
X272600Y110100
X233850Y120100
X223850Y110100
X217600Y130100
X217600Y140100
X227600Y140100
X227600Y150100
T02
X202600Y126350
X210100Y116350
X276350Y132600
X305100Y86350
X342600Y78850
X291350Y58850
T03
X282600Y56350
X272600Y56350
X262600Y56350
X252600Y56350
X252600Y86350
X262600Y86350
X272600Y86350
X282600Y86350
X235100Y85100
X225100Y85100
X202600Y180100
X202600Y190100
X202600Y200100
X202600Y210100
X172600Y210100
X172600Y200100
X172600Y190100
X172600Y180100
X285100Y215100
X295100Y215100
X310100Y215100
X320100Y215100
X402600Y212600
X402600Y202600
X420100Y202600
X420100Y212600
T04
X372600Y230100
X297600Y230100
X287600Y230100
X277600Y230100
X267600Y230100
X257600Y230100
X247600Y230100
X147600Y230100
X137600Y230100
X107600Y220100
X97600Y220100
X97600Y210100
X107600Y210100
X107600Y200100
X97600Y200100
X97600Y190100
X107600Y190100
X107600Y180100
X97600Y180100
X97600Y170100
X107600Y170100
X107600Y160100
X97600Y160100
X97600Y150100
X107600Y150100
X107600Y140100
X97600Y140100
X97600Y130100
X107600Y130100
X107600Y120100
X97600Y120100
X247600Y40100
X257600Y40100
X267600Y40100
X277600Y40100
X297600Y40100
X307600Y40100
X317600Y40100
X337600Y40100
T05
X130100Y62600
X140100Y62600
X150100Y62600
X160100Y62600
X170100Y62600
X175100Y85100
X165100Y85100
X155100Y85100
X145100Y85100
X135100Y85100
X140100Y107600
X150100Y107600
X160100Y107600
X170100Y107600
X180100Y107600
X205100Y101350
X205100Y91350
X185100Y130100
X175100Y130100
X165100Y130100
X155100Y130100
X145100Y130100
X150100Y152600
X160100Y152600
X170100Y152600
X180100Y152600
X190100Y152600
X222600Y180100
X222600Y190100
X222600Y200100
X222600Y210100
X152600Y210100
X152600Y200100
X152600Y190100
X152600Y180100
X72600Y180100
X62600Y180100
X40100Y180100
X30100Y180100
X30100Y157600
X40100Y157600
X62600Y157600
X72600Y157600
X72600Y202600
X62600Y202600
X40100Y202600
X30100Y202600
X30100Y225100
X40100Y225100
X62600Y225100
X72600Y225100
X307600Y70100
X307600Y60100
X328850Y60100
X328850Y70100
X350100Y70100
X350100Y60100
X371350Y60100
X371350Y70100
X401350Y72600
X411350Y72600
X421350Y72600
X421350Y51350
X411350Y51350
X401350Y51350
T06
X298650Y104000
X298650Y192000
T07
X252502Y190183
X252502Y170183
X252502Y150183
X252502Y210183
T08
X257935Y254135
X61084Y136025
X415415Y17915
M30
