M48
;GenerationSoftware,Autodesk,EAGLE,9.0.1*%
;CreationDate,2018-05-18T06:40:45Z*%
FMAT,2
ICI,OFF
INCH,TZ,000.0000
T4C0.0276
T3C0.0320
T2C0.0433
T1C0.1181
%
G90
M72
T1
X13589Y1969
X-8065Y1969
X-8065Y13780
X13589Y13780
T2
X-1443Y1500
X-443Y1500
X558Y1500
X1558Y1500
X2558Y1500
X3558Y1500
X9304Y1500
X10304Y1500
X11304Y1500
X8558Y5500
X9558Y5500
X-3443Y5500
X-2443Y5500
X558Y5500
X1558Y5500
X4558Y5500
X5558Y5500
X12558Y5500
X13558Y5500
X-7443Y5500
X-6443Y5500
T3
X7301Y2255
X7301Y1255
T4
X7058Y7439
X7058Y3439
X-8943Y7439
X-8943Y3439
X-4943Y7439
X-4943Y3439
X-943Y7439
X-943Y3439
X11058Y7439
X11058Y3439
X3058Y7439
X3058Y3439
M30