%
M48
M72
T01C0.02756
T02C0.03200
T03C0.03937
T04C0.04000
T05C0.04331
T06C0.05100
T07C0.05118
T08C0.12598
%
T01
X61787Y65364
X71787Y65364
X101787Y55364
X101787Y45364
X131787Y45364
X131787Y55364
X129287Y75364
X139287Y85364
X149287Y75364
X161787Y75364
X171787Y85364
X181787Y75364
X191787Y87864
X201787Y87864
X196787Y105364
X196787Y117864
X166787Y117864
X156787Y117864
X156787Y105364
X166787Y105364
X126787Y105364
X126787Y117864
X71787Y95364
X61787Y95364
X69287Y202864
X59287Y212864
X69287Y222864
X208662Y201614
X246787Y165364
X261787Y165364
X271787Y165364
X271787Y135364
X261787Y135364
X246787Y135364
X281787Y115364
X291787Y127864
X291787Y97864
X281787Y85364
X201787Y57864
X191787Y57864
X208662Y161614
T02
X239912Y120364
X239912Y110364
X239912Y100364
X239912Y90364
X269912Y90364
X269912Y100364
X269912Y110364
X269912Y120364
X114287Y95364
X104287Y95364
X94287Y95364
X84287Y95364
X84287Y65364
X94287Y65364
X104287Y65364
X114287Y65364
X76787Y137864
X66787Y137864
X56787Y137864
X46787Y137864
X46787Y167864
X56787Y167864
X66787Y167864
X76787Y167864
X79287Y232864
X69287Y232864
T03
X29287Y210364
X29287Y200364
X29287Y190364
X29287Y180364
X29287Y170364
X29287Y160364
X29287Y140364
X29287Y130364
X29287Y120364
X29287Y110364
X29287Y100364
X29287Y90364
X29287Y80364
X29287Y70364
X219287Y74364
X219287Y64364
X219287Y54364
X219287Y44364
X219287Y34364
X219287Y84364
X219287Y94364
X219287Y104364
X219287Y114364
X219287Y124364
X219287Y140364
X219287Y150364
X219287Y160364
X219287Y170364
X219287Y180364
X219287Y190364
X219287Y200364
X219287Y210364
T04
X231787Y160364
X231787Y150364
X231787Y140364
X231787Y130364
X239287Y67864
X239287Y57864
X239287Y47864
X261787Y47864
X261787Y57864
X261787Y67864
T05
X271787Y180364
X281787Y180364
X281787Y205364
X271787Y205364
X246787Y205364
X236787Y205364
X236787Y180364
X246787Y180364
X251787Y230364
X251787Y240364
X251787Y250364
X76787Y185364
X66787Y185364
X56787Y185364
X46787Y185364
X46787Y120364
X56787Y120364
X66787Y120364
X76787Y120364
T06
X105687Y155164
X193687Y155164
T07
X221885Y230281
X221885Y250281
X281688Y250447
X281688Y230447
X169370Y40463
X149370Y40463
X81870Y40463
X61870Y40463
T08
X21885Y41112
X21885Y277333
X297476Y277333
X297476Y41112
M30
