%
M48
M72
T01C0.02362
T02C0.02400
T03C0.03200
T04C0.03937
T05C0.04000
T06C0.04724
T07C0.05100
T08C0.05118
T09C0.12598
%
T01
X199700Y33000
X219700Y28000
X269700Y38000
X219700Y93000
X199700Y93000
X134700Y123000
X84700Y123000
X84700Y128000
X84700Y148000
X369700Y38000
T02
X164700Y48000
X154700Y58000
X164700Y68000
X109700Y93000
X99700Y103000
X109700Y113000
X99700Y193000
X109700Y203000
X89700Y203000
T03
X74700Y203000
X74700Y193000
X74700Y148000
X64700Y148000
X54700Y148000
X44700Y148000
X44700Y118000
X54700Y118000
X64700Y118000
X74700Y118000
X74700Y78000
X64700Y78000
X89700Y73000
X99700Y73000
X109700Y73000
X119700Y73000
X119700Y43000
X109700Y43000
X99700Y43000
X89700Y43000
X74700Y38000
X64700Y38000
X109700Y33000
X109700Y23000
X149700Y23000
X149700Y33000
X224700Y68000
X229700Y48000
X229700Y38000
X229700Y28000
X229700Y18000
X259700Y18000
X259700Y28000
X259700Y38000
X274700Y43000
X259700Y48000
X264700Y68000
X244700Y93000
X234700Y103000
X244700Y133000
X244700Y143000
X234700Y143000
X234700Y153000
X224700Y153000
X194700Y158000
X184700Y168000
X174700Y178000
X164700Y188000
X194700Y198000
X184700Y208000
X174700Y218000
X164700Y228000
X224700Y193000
X234700Y193000
X244700Y183000
X314700Y43000
X324700Y43000
X364700Y43000
T04
X207200Y42000
X207200Y32000
X207200Y22000
X207200Y12000
X207200Y52000
X207200Y62000
X207200Y72000
X207200Y82000
X207200Y92000
X207200Y102000
X207200Y118000
X207200Y128000
X207200Y138000
X207200Y148000
X207200Y158000
X207200Y168000
X207200Y178000
X207200Y188000
X17200Y188000
X17200Y178000
X17200Y168000
X17200Y158000
X17200Y148000
X17200Y138000
X17200Y118000
X17200Y108000
X17200Y98000
X17200Y88000
X17200Y78000
X17200Y68000
X17200Y58000
X17200Y48000
T05
X194700Y108000
X194700Y118000
X194700Y128000
X194700Y138000
X289700Y53000
X299700Y53000
X309700Y53000
X339700Y53000
X349700Y53000
X359700Y53000
T06
X389700Y48000
X389700Y58000
X389700Y68000
X154700Y143000
X144700Y143000
X119700Y143000
X109700Y143000
X109700Y168000
X119700Y168000
X144700Y168000
X154700Y168000
X74700Y168000
X64700Y168000
X54700Y168000
X44700Y168000
X44700Y98000
X54700Y98000
X64700Y98000
X74700Y98000
T07
X264500Y81100
X264500Y169100
T08
X289783Y20598
X309783Y20598
X339783Y20598
X359783Y20598
X184783Y18098
X164783Y18098
X89783Y18098
X69783Y18098
T09
X40684Y22685
X40684Y219535
X395015Y219535
X395015Y22685
M30
