M48
;GenerationSoftware,Autodesk,EAGLE,9.0.1*%
;CreationDate,2018-05-17T04:15:06Z*%
FMAT,2
ICI,OFF
METRIC,TZ,000.000
T4C0.700
T3C0.813
T2C1.100
T1C3.000
%
G90
M71
T1
X5000Y5000
X60000Y5000
X60000Y35000
X5000Y35000
T2
X43180Y3810
X40640Y3810
X38100Y3810
X35560Y3810
X33020Y3810
X30480Y3810
X15885Y3810
X13345Y3810
X10805Y3810
X17780Y13970
X15240Y13970
X48260Y13970
X45720Y13970
X38100Y13970
X35560Y13970
X27940Y13970
X25400Y13970
X7620Y13970
X5080Y13970
X58420Y13970
X55880Y13970
T3
X20971Y5728
X20971Y3188
T4
X21590Y19050
X21590Y8890
X62230Y19050
X62230Y8890
X52070Y19050
X52070Y8890
X41910Y19050
X41910Y8890
X11430Y19050
X11430Y8890
X31750Y19050
X31750Y8890
M30