M48
;GenerationSoftware,Autodesk,EAGLE,9.0.1*%
;CreationDate,2018-05-17T04:27:09Z*%
FMAT,2
ICI,OFF
METRIC,TZ,000.000
T9C0.700
T8C0.813
T7C0.900
T6C1.000
T5C1.016
T4C1.100
T3C1.295
T2C1.300
T1C3.000
%
G90
M71
T1
X90000Y5000
X5000Y70000
X90000Y70000
X5000Y5000
X55245Y48895
X3175Y15875
X4445Y64135
X55245Y20955
X85725Y15875
T2
X71416Y7962
X66336Y7962
X32999Y8280
X27919Y8280
T3
X34976Y30201
X34976Y52553
T4
X42545Y21907
X63500Y69215
X63500Y71755
X68898Y69215
X68898Y71755
X74295Y69215
X74295Y71755
X79693Y69215
X79693Y71755
X12382Y21273
X85090Y69215
X85090Y71755
X34925Y70485
X37465Y70485
X40005Y70485
X42545Y70485
X45085Y70485
X47625Y70485
X65087Y50165
X65087Y52705
X65087Y55245
X65087Y57785
X45720Y50165
X45720Y52705
X45720Y55245
X45720Y57785
X9843Y21273
X45085Y21907
X14922Y21273
X24765Y21273
X27305Y21273
X29845Y21273
X58102Y69215
X58102Y71755
T5
X63182Y20955
X65723Y25400
X68263Y25400
X70803Y25400
X73343Y25400
X75883Y25400
X60642Y20955
X65723Y20955
X68263Y20955
X70803Y20955
X73343Y20955
X75883Y20955
X60642Y38735
X63182Y38735
X65723Y38735
X68263Y38735
X70803Y38735
X73343Y38735
X75883Y38735
X60642Y34290
X63182Y34290
X65723Y34290
X68263Y34290
X70803Y34290
X73343Y34290
X75883Y34290
X60642Y29845
X63182Y29845
X65723Y29845
X68263Y29845
X70803Y29845
X73343Y29845
X75883Y29845
X60642Y25400
X63182Y25400
T6
X72708Y43974
X70803Y41275
X73978Y58102
X73978Y60325
X56197Y24447
X40640Y55245
X55245Y71120
X42545Y19050
X38735Y20003
X68263Y42863
X40799Y34131
X41593Y47942
X47625Y40005
X47625Y46355
X57785Y38735
X26035Y64135
X45085Y15875
X47625Y15875
X42545Y15875
X40005Y15875
X85725Y61595
X83185Y61595
X83185Y59055
X85725Y59055
X85725Y56515
X83185Y56515
X83185Y53975
X85725Y53975
X24765Y15875
X29845Y15875
X32385Y15875
X34925Y15875
X34925Y64135
X37465Y64135
X40005Y64135
X42545Y64135
X45085Y64135
X47625Y64135
X73025Y64135
X75565Y64135
X15875Y64135
X83185Y43815
X85725Y43815
X85725Y46355
X83185Y46355
X83185Y48895
X85725Y48895
X85725Y51435
X83185Y51435
T7
X59055Y51435
T8
X49212Y34290
X34290Y24130
X49212Y36830
X60007Y46990
X60007Y44450
X49847Y23495
X49847Y20955
X51435Y60960
X51435Y58420
X59055Y60960
X59055Y58420
X36830Y24130
X59055Y53340
X59055Y55880
X51435Y55880
X51435Y53340
X72390Y47942
X69850Y47942
X36830Y19685
X34290Y19685
X74295Y47942
X76835Y47942
X53022Y12065
X50482Y12065
X45402Y4445
X47942Y4445
X47942Y12065
X45402Y12065
X50482Y4445
X53022Y4445
T9
X41275Y28892
X43815Y31432
X52705Y43815
X52705Y41275
X55245Y38735
X55245Y41275
X37148Y8255
X39688Y10795
X42228Y8255
X56197Y7937
X58737Y10478
X61277Y7937
X48895Y28892
X51435Y31432
X53975Y28892
X46355Y28892
M30