M48
;GenerationSoftware,Autodesk,EAGLE,9.0.1*%
;CreationDate,2018-05-22T06:21:53Z*%
FMAT,2
ICI,OFF
INCH,TZ,000.0000
T6C0.0315
T5C0.0320
T4C0.0394
T3C0.0400
T2C0.0433
T1C0.1181
%
G90
M72
T1
X1969Y1969
X11811Y1969
X1969Y19685
X11811Y19685
T2
X6000Y3241
X5500Y2375
X5000Y1509
X9250Y2433
X8750Y1567
X2000Y16250
X2000Y17250
T3
X10000Y16375
X12000Y16375
X5250Y17250
X7250Y17250
T4
X5500Y9000
X8500Y9000
T5
X12000Y4750
X11000Y4750
X3000Y4750
X2000Y4750
T6
X10000Y13000
X9000Y13000
X8000Y13000
X7000Y13000
X5000Y13000
X3000Y13000
M30