G04 EAGLE Gerber X2 export*
G75*
%MOIN*%
%FSLAX34Y34*%
%LPD*%
%AMOC8*
5,1,8,0,0,1.08239X$1,22.5*%
G01*
%ADD10C,0.100000*%
%ADD11P,0.108239X8X22.500000*%
%ADD12C,0.064961*%
%ADD13C,0.066000*%
%ADD14C,0.086000*%
%ADD15P,0.060614X8X202.500000*%
%ADD16R,0.059055X0.059055*%
%ADD17C,0.050000*%
%ADD18C,0.020000*%

G36*
X13334Y401D02*
X13334Y401D01*
X13339Y402D01*
X13341Y402D01*
X13342Y402D01*
X13346Y404D01*
X13351Y406D01*
X13352Y406D01*
X13353Y407D01*
X13357Y410D01*
X13362Y413D01*
X13362Y414D01*
X13363Y414D01*
X13367Y418D01*
X13370Y422D01*
X13370Y423D01*
X13371Y424D01*
X13373Y428D01*
X13376Y433D01*
X13376Y434D01*
X13376Y435D01*
X13379Y447D01*
X13379Y449D01*
X13379Y450D01*
X13379Y21204D01*
X13378Y21208D01*
X13378Y21213D01*
X13377Y21215D01*
X13377Y21216D01*
X13375Y21220D01*
X13374Y21225D01*
X13373Y21226D01*
X13373Y21227D01*
X13370Y21231D01*
X13367Y21236D01*
X13366Y21236D01*
X13365Y21237D01*
X13361Y21241D01*
X13358Y21244D01*
X13357Y21244D01*
X13356Y21245D01*
X13351Y21247D01*
X13347Y21250D01*
X13346Y21250D01*
X13344Y21251D01*
X13332Y21253D01*
X13331Y21253D01*
X13330Y21253D01*
X450Y21253D01*
X445Y21252D01*
X440Y21252D01*
X439Y21251D01*
X438Y21251D01*
X433Y21249D01*
X428Y21248D01*
X427Y21247D01*
X426Y21247D01*
X422Y21244D01*
X418Y21241D01*
X417Y21240D01*
X416Y21239D01*
X413Y21235D01*
X410Y21232D01*
X409Y21231D01*
X408Y21230D01*
X406Y21225D01*
X404Y21221D01*
X404Y21220D01*
X403Y21218D01*
X401Y21206D01*
X401Y21205D01*
X401Y21204D01*
X401Y450D01*
X401Y445D01*
X402Y440D01*
X402Y439D01*
X402Y438D01*
X404Y433D01*
X406Y428D01*
X406Y427D01*
X407Y426D01*
X410Y422D01*
X413Y418D01*
X414Y417D01*
X414Y416D01*
X418Y413D01*
X422Y410D01*
X423Y409D01*
X424Y408D01*
X428Y406D01*
X433Y404D01*
X434Y404D01*
X435Y403D01*
X447Y401D01*
X449Y401D01*
X450Y401D01*
X13330Y401D01*
X13334Y401D01*
G37*
%LPC*%
G36*
X9385Y1840D02*
X9385Y1840D01*
X8669Y2254D01*
X8561Y2394D01*
X8515Y2566D01*
X8539Y2741D01*
X8627Y2895D01*
X8768Y3003D01*
X8939Y3049D01*
X9124Y3024D01*
X9126Y3024D01*
X9128Y3024D01*
X9129Y3024D01*
X9130Y3024D01*
X9135Y3024D01*
X9137Y3024D01*
X9138Y3024D01*
X9140Y3025D01*
X9141Y3025D01*
X9142Y3025D01*
X9147Y3027D01*
X9148Y3027D01*
X9149Y3027D01*
X9149Y3028D01*
X9152Y3028D01*
X9153Y3029D01*
X9154Y3029D01*
X9158Y3032D01*
X9159Y3033D01*
X9160Y3033D01*
X9163Y3035D01*
X9163Y3036D01*
X9164Y3037D01*
X9168Y3041D01*
X9169Y3042D01*
X9172Y3046D01*
X9173Y3048D01*
X9174Y3049D01*
X9623Y3837D01*
X9624Y3840D01*
X9626Y3844D01*
X9626Y3846D01*
X9628Y3848D01*
X9629Y3861D01*
X9629Y12713D01*
X9629Y12717D01*
X9629Y12721D01*
X9628Y12723D01*
X9628Y12725D01*
X9626Y12729D01*
X9625Y12733D01*
X9624Y12734D01*
X9624Y12735D01*
X9623Y12737D01*
X9619Y12742D01*
X9618Y12743D01*
X9549Y12910D01*
X9549Y13090D01*
X9618Y13257D01*
X9620Y13259D01*
X9621Y13261D01*
X9622Y13262D01*
X9624Y13266D01*
X9626Y13270D01*
X9626Y13271D01*
X9627Y13274D01*
X9629Y13286D01*
X9629Y13287D01*
X9629Y15847D01*
X9629Y15852D01*
X9629Y15856D01*
X9628Y15858D01*
X9628Y15860D01*
X9626Y15864D01*
X9625Y15868D01*
X9624Y15869D01*
X9623Y15871D01*
X9616Y15881D01*
X9615Y15882D01*
X9474Y16023D01*
X9379Y16252D01*
X9379Y16451D01*
X9379Y16455D01*
X9379Y16460D01*
X9378Y16461D01*
X9378Y16463D01*
X9376Y16467D01*
X9375Y16471D01*
X9374Y16473D01*
X9373Y16475D01*
X9366Y16485D01*
X9365Y16485D01*
X9365Y16486D01*
X7361Y18490D01*
X7357Y18492D01*
X7354Y18495D01*
X7353Y18496D01*
X7351Y18497D01*
X7347Y18499D01*
X7343Y18501D01*
X7342Y18501D01*
X7340Y18502D01*
X7327Y18504D01*
X7326Y18504D01*
X4174Y18504D01*
X4170Y18504D01*
X4165Y18504D01*
X4164Y18503D01*
X4162Y18503D01*
X4158Y18501D01*
X4154Y18500D01*
X4152Y18499D01*
X4150Y18498D01*
X4140Y18491D01*
X4140Y18490D01*
X4139Y18490D01*
X3510Y17861D01*
X3508Y17857D01*
X3505Y17854D01*
X3504Y17853D01*
X3503Y17851D01*
X3501Y17847D01*
X3499Y17843D01*
X3499Y17842D01*
X3498Y17840D01*
X3496Y17827D01*
X3496Y17826D01*
X3496Y16551D01*
X3439Y16415D01*
X2960Y15936D01*
X2824Y15879D01*
X2604Y15879D01*
X2603Y15879D01*
X2602Y15879D01*
X2600Y15879D01*
X2591Y15878D01*
X2587Y15876D01*
X2585Y15876D01*
X2413Y15804D01*
X1587Y15804D01*
X1423Y15872D01*
X1297Y15998D01*
X1230Y16161D01*
X1230Y16339D01*
X1297Y16502D01*
X1423Y16628D01*
X1587Y16696D01*
X2413Y16696D01*
X2565Y16633D01*
X2567Y16632D01*
X2568Y16632D01*
X2573Y16631D01*
X2577Y16629D01*
X2579Y16629D01*
X2580Y16629D01*
X2585Y16629D01*
X2590Y16629D01*
X2591Y16630D01*
X2593Y16630D01*
X2597Y16631D01*
X2602Y16632D01*
X2603Y16633D01*
X2605Y16633D01*
X2607Y16635D01*
X2613Y16638D01*
X2617Y16642D01*
X2619Y16643D01*
X2740Y16764D01*
X2742Y16768D01*
X2745Y16771D01*
X2746Y16772D01*
X2747Y16774D01*
X2749Y16778D01*
X2751Y16782D01*
X2751Y16783D01*
X2752Y16785D01*
X2754Y16798D01*
X2754Y16799D01*
X2754Y16966D01*
X2754Y16969D01*
X2754Y16972D01*
X2753Y16975D01*
X2753Y16978D01*
X2751Y16981D01*
X2751Y16984D01*
X2749Y16987D01*
X2748Y16989D01*
X2746Y16992D01*
X2745Y16995D01*
X2743Y16997D01*
X2741Y16999D01*
X2738Y17001D01*
X2736Y17004D01*
X2733Y17005D01*
X2731Y17007D01*
X2728Y17009D01*
X2725Y17010D01*
X2723Y17011D01*
X2720Y17012D01*
X2717Y17013D01*
X2714Y17014D01*
X2711Y17014D01*
X2708Y17015D01*
X2704Y17014D01*
X2701Y17015D01*
X2698Y17014D01*
X2695Y17014D01*
X2692Y17013D01*
X2689Y17012D01*
X2686Y17011D01*
X2683Y17010D01*
X2681Y17008D01*
X2678Y17007D01*
X2676Y17005D01*
X2673Y17003D01*
X2666Y16995D01*
X2665Y16994D01*
X2649Y16973D01*
X2602Y16925D01*
X2548Y16886D01*
X2488Y16856D01*
X2424Y16835D01*
X2358Y16824D01*
X2099Y16824D01*
X2099Y17200D01*
X2099Y17205D01*
X2098Y17210D01*
X2098Y17211D01*
X2098Y17212D01*
X2096Y17217D01*
X2094Y17222D01*
X2094Y17223D01*
X2093Y17224D01*
X2090Y17228D01*
X2087Y17232D01*
X2086Y17233D01*
X2086Y17234D01*
X2082Y17237D01*
X2078Y17240D01*
X2077Y17241D01*
X2076Y17242D01*
X2072Y17244D01*
X2067Y17246D01*
X2066Y17246D01*
X2065Y17247D01*
X2053Y17249D01*
X2051Y17249D01*
X2050Y17249D01*
X1999Y17249D01*
X1999Y17251D01*
X2050Y17251D01*
X2055Y17251D01*
X2060Y17252D01*
X2061Y17252D01*
X2062Y17252D01*
X2067Y17254D01*
X2072Y17256D01*
X2073Y17256D01*
X2074Y17257D01*
X2078Y17260D01*
X2082Y17263D01*
X2083Y17264D01*
X2084Y17264D01*
X2087Y17268D01*
X2090Y17272D01*
X2091Y17273D01*
X2092Y17274D01*
X2094Y17278D01*
X2096Y17283D01*
X2096Y17284D01*
X2097Y17285D01*
X2099Y17297D01*
X2099Y17299D01*
X2099Y17300D01*
X2099Y17676D01*
X2358Y17676D01*
X2424Y17665D01*
X2488Y17644D01*
X2548Y17614D01*
X2602Y17575D01*
X2649Y17527D01*
X2665Y17506D01*
X2667Y17503D01*
X2669Y17501D01*
X2672Y17499D01*
X2674Y17496D01*
X2676Y17495D01*
X2679Y17493D01*
X2682Y17491D01*
X2684Y17490D01*
X2687Y17489D01*
X2690Y17488D01*
X2693Y17487D01*
X2696Y17486D01*
X2699Y17486D01*
X2702Y17485D01*
X2705Y17486D01*
X2708Y17485D01*
X2712Y17486D01*
X2715Y17486D01*
X2718Y17487D01*
X2721Y17488D01*
X2724Y17489D01*
X2727Y17490D01*
X2729Y17492D01*
X2732Y17493D01*
X2734Y17495D01*
X2737Y17497D01*
X2739Y17499D01*
X2741Y17501D01*
X2743Y17504D01*
X2745Y17506D01*
X2747Y17509D01*
X2748Y17511D01*
X2750Y17514D01*
X2751Y17517D01*
X2752Y17519D01*
X2753Y17523D01*
X2754Y17533D01*
X2754Y17534D01*
X2754Y18074D01*
X2811Y18210D01*
X2922Y18321D01*
X3679Y19078D01*
X3790Y19189D01*
X3926Y19246D01*
X7574Y19246D01*
X7710Y19189D01*
X7821Y19078D01*
X9889Y17010D01*
X9893Y17008D01*
X9896Y17005D01*
X9897Y17004D01*
X9899Y17003D01*
X9903Y17001D01*
X9907Y16999D01*
X9908Y16999D01*
X9910Y16998D01*
X9923Y16996D01*
X9924Y16996D01*
X10123Y16996D01*
X10352Y16901D01*
X10526Y16727D01*
X10621Y16498D01*
X10621Y16252D01*
X10526Y16023D01*
X10385Y15882D01*
X10383Y15879D01*
X10380Y15876D01*
X10379Y15874D01*
X10378Y15872D01*
X10376Y15869D01*
X10374Y15865D01*
X10374Y15863D01*
X10373Y15861D01*
X10371Y15849D01*
X10371Y15848D01*
X10371Y15847D01*
X10371Y13287D01*
X10371Y13283D01*
X10371Y13279D01*
X10372Y13277D01*
X10372Y13275D01*
X10374Y13271D01*
X10375Y13267D01*
X10376Y13265D01*
X10377Y13263D01*
X10381Y13257D01*
X10451Y13090D01*
X10451Y12910D01*
X10382Y12743D01*
X10380Y12741D01*
X10379Y12740D01*
X10378Y12739D01*
X10378Y12738D01*
X10376Y12734D01*
X10374Y12730D01*
X10374Y12729D01*
X10373Y12728D01*
X10373Y12726D01*
X10371Y12714D01*
X10371Y12713D01*
X10371Y4270D01*
X10371Y4265D01*
X10372Y4260D01*
X10372Y4259D01*
X10372Y4258D01*
X10374Y4253D01*
X10376Y4248D01*
X10376Y4247D01*
X10377Y4246D01*
X10380Y4242D01*
X10383Y4238D01*
X10384Y4237D01*
X10384Y4236D01*
X10388Y4233D01*
X10392Y4230D01*
X10393Y4229D01*
X10394Y4228D01*
X10398Y4226D01*
X10403Y4224D01*
X10404Y4224D01*
X10405Y4223D01*
X10417Y4221D01*
X10419Y4221D01*
X10420Y4221D01*
X11138Y4221D01*
X11142Y4221D01*
X11147Y4221D01*
X11149Y4222D01*
X11150Y4222D01*
X11154Y4224D01*
X11159Y4225D01*
X11160Y4226D01*
X11162Y4227D01*
X11172Y4234D01*
X11173Y4235D01*
X11203Y4265D01*
X11206Y4270D01*
X11210Y4274D01*
X11211Y4275D01*
X11213Y4280D01*
X11215Y4285D01*
X11215Y4286D01*
X11216Y4286D01*
X11216Y4292D01*
X11217Y4297D01*
X11217Y4298D01*
X11217Y4299D01*
X11217Y4304D01*
X11216Y4310D01*
X11216Y4311D01*
X11214Y4316D01*
X11212Y4322D01*
X11212Y4323D01*
X11209Y4327D01*
X11206Y4332D01*
X11205Y4332D01*
X11205Y4333D01*
X11201Y4337D01*
X11196Y4340D01*
X11196Y4341D01*
X11195Y4341D01*
X11190Y4344D01*
X11185Y4346D01*
X11184Y4347D01*
X11172Y4349D01*
X11170Y4349D01*
X11168Y4349D01*
X10834Y4349D01*
X10599Y4584D01*
X10599Y4916D01*
X10765Y5082D01*
X10767Y5085D01*
X10770Y5088D01*
X10771Y5090D01*
X10772Y5091D01*
X10774Y5095D01*
X10776Y5099D01*
X10776Y5101D01*
X10777Y5103D01*
X10779Y5115D01*
X10779Y5116D01*
X10779Y5285D01*
X10779Y5290D01*
X10778Y5295D01*
X10778Y5296D01*
X10778Y5297D01*
X10776Y5302D01*
X10774Y5306D01*
X10774Y5307D01*
X10773Y5309D01*
X10770Y5313D01*
X10767Y5317D01*
X10766Y5318D01*
X10766Y5319D01*
X10762Y5322D01*
X10758Y5325D01*
X10757Y5326D01*
X10756Y5326D01*
X10752Y5329D01*
X10747Y5331D01*
X10746Y5331D01*
X10745Y5332D01*
X10733Y5334D01*
X10731Y5334D01*
X10730Y5334D01*
X10604Y5334D01*
X10533Y5405D01*
X10533Y6095D01*
X10604Y6166D01*
X11294Y6166D01*
X11365Y6095D01*
X11365Y5405D01*
X11294Y5334D01*
X11270Y5334D01*
X11265Y5333D01*
X11260Y5333D01*
X11259Y5333D01*
X11258Y5332D01*
X11253Y5331D01*
X11248Y5329D01*
X11247Y5328D01*
X11246Y5328D01*
X11242Y5325D01*
X11238Y5322D01*
X11237Y5321D01*
X11236Y5320D01*
X11233Y5317D01*
X11230Y5313D01*
X11229Y5312D01*
X11228Y5311D01*
X11226Y5306D01*
X11224Y5302D01*
X11224Y5301D01*
X11223Y5300D01*
X11221Y5287D01*
X11221Y5286D01*
X11221Y5285D01*
X11221Y5116D01*
X11221Y5112D01*
X11221Y5108D01*
X11222Y5106D01*
X11222Y5104D01*
X11224Y5100D01*
X11225Y5096D01*
X11226Y5095D01*
X11227Y5093D01*
X11234Y5082D01*
X11235Y5082D01*
X11401Y4916D01*
X11401Y4582D01*
X11401Y4576D01*
X11402Y4571D01*
X11402Y4570D01*
X11404Y4564D01*
X11406Y4559D01*
X11407Y4559D01*
X11407Y4558D01*
X11410Y4553D01*
X11413Y4549D01*
X11414Y4548D01*
X11419Y4544D01*
X11423Y4541D01*
X11423Y4540D01*
X11424Y4540D01*
X11429Y4538D01*
X11434Y4535D01*
X11435Y4535D01*
X11441Y4534D01*
X11446Y4533D01*
X11447Y4533D01*
X11453Y4533D01*
X11459Y4533D01*
X11459Y4534D01*
X11460Y4534D01*
X11465Y4535D01*
X11470Y4537D01*
X11471Y4537D01*
X11472Y4538D01*
X11482Y4544D01*
X11484Y4546D01*
X11485Y4547D01*
X11585Y4647D01*
X11587Y4650D01*
X11590Y4654D01*
X11591Y4655D01*
X11592Y4657D01*
X11594Y4661D01*
X11596Y4665D01*
X11596Y4666D01*
X11597Y4668D01*
X11599Y4681D01*
X11599Y4682D01*
X11599Y4916D01*
X11834Y5151D01*
X12166Y5151D01*
X12401Y4916D01*
X12401Y4584D01*
X12166Y4349D01*
X11932Y4349D01*
X11928Y4349D01*
X11923Y4349D01*
X11921Y4348D01*
X11920Y4348D01*
X11916Y4346D01*
X11911Y4345D01*
X11910Y4344D01*
X11908Y4343D01*
X11898Y4336D01*
X11897Y4335D01*
X11375Y3813D01*
X11294Y3779D01*
X10421Y3779D01*
X10419Y3779D01*
X10417Y3779D01*
X10413Y3778D01*
X10408Y3778D01*
X10407Y3777D01*
X10405Y3777D01*
X10401Y3775D01*
X10397Y3773D01*
X10395Y3772D01*
X10394Y3771D01*
X10390Y3768D01*
X10387Y3766D01*
X10386Y3764D01*
X10384Y3763D01*
X10382Y3759D01*
X10379Y3756D01*
X10378Y3754D01*
X10377Y3753D01*
X10376Y3750D01*
X10374Y3745D01*
X10373Y3739D01*
X10372Y3736D01*
X10371Y3730D01*
X10371Y3726D01*
X10371Y3724D01*
X10371Y3676D01*
X10364Y3660D01*
X10361Y3648D01*
X10359Y3631D01*
X10335Y3589D01*
X10334Y3586D01*
X10332Y3584D01*
X10314Y3540D01*
X10302Y3528D01*
X10295Y3518D01*
X10294Y3518D01*
X10294Y3517D01*
X9816Y2677D01*
X9814Y2673D01*
X9812Y2669D01*
X9812Y2667D01*
X9811Y2666D01*
X9810Y2661D01*
X9809Y2656D01*
X9810Y2655D01*
X9809Y2654D01*
X9810Y2649D01*
X9810Y2644D01*
X9811Y2643D01*
X9811Y2641D01*
X9813Y2637D01*
X9814Y2632D01*
X9815Y2631D01*
X9815Y2630D01*
X9818Y2626D01*
X9821Y2622D01*
X9821Y2621D01*
X9822Y2620D01*
X9830Y2613D01*
X9939Y2472D01*
X9985Y2300D01*
X9961Y2125D01*
X9873Y1971D01*
X9732Y1863D01*
X9561Y1817D01*
X9385Y1840D01*
G37*
%LPD*%
%LPC*%
G36*
X5635Y1782D02*
X5635Y1782D01*
X4919Y2196D01*
X4825Y2318D01*
X4824Y2319D01*
X4824Y2320D01*
X4822Y2322D01*
X4817Y2327D01*
X4812Y2330D01*
X4810Y2331D01*
X2842Y3414D01*
X2838Y3415D01*
X2837Y3416D01*
X2790Y3436D01*
X2780Y3446D01*
X2770Y3453D01*
X2769Y3454D01*
X2757Y3461D01*
X2725Y3500D01*
X2723Y3503D01*
X2721Y3504D01*
X2686Y3540D01*
X2680Y3553D01*
X2674Y3564D01*
X2673Y3565D01*
X2665Y3576D01*
X2650Y3624D01*
X2649Y3628D01*
X2649Y3630D01*
X2629Y3676D01*
X2629Y3690D01*
X2628Y3703D01*
X2627Y3703D01*
X2627Y3704D01*
X2623Y3717D01*
X2629Y3768D01*
X2629Y3771D01*
X2629Y3773D01*
X2629Y4534D01*
X2629Y4538D01*
X2629Y4542D01*
X2628Y4544D01*
X2628Y4546D01*
X2626Y4550D01*
X2625Y4554D01*
X2624Y4555D01*
X2623Y4557D01*
X2616Y4568D01*
X2615Y4568D01*
X2599Y4584D01*
X2599Y4916D01*
X2615Y4932D01*
X2617Y4935D01*
X2620Y4938D01*
X2621Y4940D01*
X2622Y4941D01*
X2624Y4945D01*
X2626Y4949D01*
X2626Y4951D01*
X2627Y4953D01*
X2629Y4965D01*
X2629Y4966D01*
X2629Y11074D01*
X2686Y11210D01*
X4535Y13059D01*
X4537Y13063D01*
X4540Y13066D01*
X4541Y13067D01*
X4542Y13069D01*
X4544Y13073D01*
X4546Y13077D01*
X4546Y13078D01*
X4547Y13080D01*
X4548Y13088D01*
X4618Y13257D01*
X4620Y13259D01*
X4621Y13261D01*
X4622Y13262D01*
X4624Y13266D01*
X4626Y13270D01*
X4626Y13271D01*
X4627Y13274D01*
X4629Y13286D01*
X4629Y13287D01*
X4629Y17074D01*
X4632Y17081D01*
X4634Y17085D01*
X4635Y17089D01*
X4635Y17091D01*
X4636Y17093D01*
X4636Y17098D01*
X4636Y17102D01*
X4636Y17103D01*
X4636Y17106D01*
X4633Y17118D01*
X4632Y17118D01*
X4632Y17119D01*
X4629Y17127D01*
X4629Y17373D01*
X4724Y17602D01*
X4898Y17776D01*
X5127Y17871D01*
X5373Y17871D01*
X5602Y17776D01*
X5776Y17602D01*
X5871Y17373D01*
X5871Y17127D01*
X5776Y16898D01*
X5602Y16724D01*
X5401Y16641D01*
X5400Y16640D01*
X5398Y16639D01*
X5394Y16637D01*
X5390Y16635D01*
X5389Y16633D01*
X5388Y16633D01*
X5385Y16629D01*
X5381Y16626D01*
X5381Y16625D01*
X5380Y16623D01*
X5377Y16619D01*
X5375Y16615D01*
X5375Y16614D01*
X5374Y16612D01*
X5373Y16610D01*
X5371Y16603D01*
X5371Y16598D01*
X5371Y16595D01*
X5371Y13287D01*
X5371Y13283D01*
X5371Y13279D01*
X5372Y13277D01*
X5372Y13275D01*
X5374Y13271D01*
X5375Y13267D01*
X5376Y13265D01*
X5377Y13263D01*
X5381Y13257D01*
X5451Y13090D01*
X5451Y12910D01*
X5382Y12745D01*
X5255Y12618D01*
X5088Y12549D01*
X5085Y12549D01*
X5084Y12548D01*
X5082Y12548D01*
X5078Y12546D01*
X5074Y12545D01*
X5072Y12544D01*
X5070Y12543D01*
X5060Y12536D01*
X5060Y12535D01*
X5059Y12535D01*
X3385Y10861D01*
X3383Y10857D01*
X3380Y10854D01*
X3379Y10853D01*
X3378Y10851D01*
X3376Y10847D01*
X3374Y10843D01*
X3374Y10842D01*
X3373Y10840D01*
X3371Y10827D01*
X3371Y10826D01*
X3371Y4966D01*
X3371Y4962D01*
X3371Y4958D01*
X3372Y4956D01*
X3372Y4954D01*
X3374Y4950D01*
X3375Y4946D01*
X3376Y4945D01*
X3377Y4943D01*
X3384Y4932D01*
X3385Y4932D01*
X3401Y4916D01*
X3401Y4584D01*
X3385Y4568D01*
X3383Y4565D01*
X3380Y4562D01*
X3379Y4560D01*
X3378Y4559D01*
X3376Y4555D01*
X3374Y4551D01*
X3374Y4549D01*
X3373Y4547D01*
X3371Y4535D01*
X3371Y4534D01*
X3371Y3998D01*
X3371Y3993D01*
X3372Y3988D01*
X3372Y3987D01*
X3372Y3986D01*
X3374Y3981D01*
X3376Y3977D01*
X3376Y3976D01*
X3377Y3974D01*
X3380Y3970D01*
X3383Y3966D01*
X3384Y3964D01*
X3394Y3957D01*
X3395Y3956D01*
X3396Y3955D01*
X5145Y2993D01*
X5149Y2992D01*
X5152Y2990D01*
X5155Y2990D01*
X5157Y2989D01*
X5161Y2988D01*
X5164Y2987D01*
X5166Y2987D01*
X5169Y2987D01*
X5182Y2989D01*
X5189Y2991D01*
X5365Y2968D01*
X6081Y2554D01*
X6189Y2414D01*
X6235Y2242D01*
X6211Y2067D01*
X6123Y1913D01*
X5982Y1805D01*
X5811Y1759D01*
X5635Y1782D01*
G37*
%LPD*%
%LPC*%
G36*
X5390Y8449D02*
X5390Y8449D01*
X5188Y8533D01*
X5033Y8688D01*
X4949Y8890D01*
X4949Y9110D01*
X5033Y9312D01*
X5188Y9467D01*
X5390Y9551D01*
X5506Y9551D01*
X5510Y9551D01*
X5515Y9551D01*
X5516Y9552D01*
X5518Y9552D01*
X5522Y9554D01*
X5526Y9555D01*
X5528Y9556D01*
X5530Y9557D01*
X5540Y9564D01*
X5540Y9565D01*
X5541Y9565D01*
X6615Y10639D01*
X6617Y10643D01*
X6620Y10646D01*
X6621Y10647D01*
X6622Y10649D01*
X6624Y10653D01*
X6626Y10657D01*
X6626Y10658D01*
X6627Y10660D01*
X6629Y10673D01*
X6629Y10674D01*
X6629Y12713D01*
X6629Y12717D01*
X6629Y12721D01*
X6628Y12723D01*
X6628Y12725D01*
X6626Y12729D01*
X6625Y12733D01*
X6624Y12734D01*
X6624Y12735D01*
X6623Y12737D01*
X6619Y12742D01*
X6618Y12743D01*
X6549Y12910D01*
X6549Y13090D01*
X6618Y13255D01*
X6745Y13382D01*
X6910Y13451D01*
X7090Y13451D01*
X7255Y13382D01*
X7382Y13255D01*
X7451Y13090D01*
X7451Y12910D01*
X7382Y12743D01*
X7380Y12741D01*
X7379Y12740D01*
X7378Y12739D01*
X7378Y12738D01*
X7376Y12734D01*
X7374Y12730D01*
X7374Y12729D01*
X7373Y12728D01*
X7373Y12726D01*
X7371Y12714D01*
X7371Y12713D01*
X7371Y10426D01*
X7314Y10290D01*
X6065Y9041D01*
X6063Y9037D01*
X6060Y9034D01*
X6059Y9033D01*
X6058Y9031D01*
X6056Y9027D01*
X6054Y9023D01*
X6054Y9022D01*
X6053Y9020D01*
X6051Y9007D01*
X6051Y9006D01*
X6051Y8890D01*
X5967Y8688D01*
X5812Y8533D01*
X5610Y8449D01*
X5390Y8449D01*
G37*
%LPD*%
%LPC*%
G36*
X8390Y8449D02*
X8390Y8449D01*
X8188Y8533D01*
X8033Y8688D01*
X7949Y8890D01*
X7949Y9110D01*
X8033Y9312D01*
X8115Y9394D01*
X8117Y9397D01*
X8120Y9400D01*
X8121Y9402D01*
X8122Y9404D01*
X8124Y9407D01*
X8126Y9411D01*
X8126Y9413D01*
X8127Y9415D01*
X8129Y9427D01*
X8129Y9428D01*
X8129Y9429D01*
X8129Y11699D01*
X8186Y11835D01*
X8615Y12264D01*
X8617Y12268D01*
X8620Y12271D01*
X8621Y12272D01*
X8622Y12274D01*
X8624Y12278D01*
X8626Y12282D01*
X8626Y12283D01*
X8627Y12285D01*
X8629Y12298D01*
X8629Y12299D01*
X8629Y12713D01*
X8629Y12717D01*
X8629Y12721D01*
X8628Y12723D01*
X8628Y12725D01*
X8626Y12729D01*
X8625Y12733D01*
X8624Y12734D01*
X8624Y12735D01*
X8623Y12737D01*
X8619Y12742D01*
X8618Y12743D01*
X8549Y12910D01*
X8549Y13090D01*
X8618Y13255D01*
X8745Y13382D01*
X8910Y13451D01*
X9090Y13451D01*
X9255Y13382D01*
X9382Y13255D01*
X9451Y13090D01*
X9451Y12910D01*
X9382Y12743D01*
X9380Y12741D01*
X9379Y12740D01*
X9378Y12739D01*
X9378Y12738D01*
X9376Y12734D01*
X9374Y12730D01*
X9374Y12729D01*
X9373Y12728D01*
X9373Y12726D01*
X9371Y12714D01*
X9371Y12713D01*
X9371Y12051D01*
X9314Y11915D01*
X8885Y11486D01*
X8883Y11482D01*
X8880Y11479D01*
X8879Y11478D01*
X8878Y11476D01*
X8876Y11472D01*
X8874Y11468D01*
X8874Y11467D01*
X8873Y11465D01*
X8871Y11452D01*
X8871Y11451D01*
X8871Y9429D01*
X8871Y9424D01*
X8871Y9420D01*
X8872Y9418D01*
X8872Y9416D01*
X8874Y9412D01*
X8875Y9408D01*
X8876Y9407D01*
X8877Y9405D01*
X8884Y9395D01*
X8885Y9394D01*
X8967Y9312D01*
X9051Y9110D01*
X9051Y8890D01*
X8967Y8688D01*
X8812Y8533D01*
X8610Y8449D01*
X8390Y8449D01*
G37*
%LPD*%
%LPC*%
G36*
X8885Y974D02*
X8885Y974D01*
X8169Y1388D01*
X8061Y1528D01*
X8059Y1538D01*
X8057Y1541D01*
X8056Y1545D01*
X8055Y1547D01*
X8054Y1549D01*
X8052Y1552D01*
X8050Y1555D01*
X8049Y1557D01*
X8047Y1559D01*
X8037Y1567D01*
X6304Y2622D01*
X6303Y2623D01*
X6301Y2623D01*
X6299Y2624D01*
X6292Y2627D01*
X6287Y2628D01*
X6285Y2629D01*
X6135Y2648D01*
X5419Y3062D01*
X5311Y3203D01*
X5265Y3374D01*
X5289Y3549D01*
X5377Y3703D01*
X5518Y3811D01*
X5689Y3857D01*
X5865Y3834D01*
X6581Y3420D01*
X6689Y3280D01*
X6691Y3270D01*
X6693Y3267D01*
X6694Y3263D01*
X6695Y3261D01*
X6696Y3259D01*
X6698Y3256D01*
X6700Y3253D01*
X6701Y3251D01*
X6703Y3249D01*
X6713Y3241D01*
X8446Y2186D01*
X8447Y2185D01*
X8449Y2185D01*
X8451Y2184D01*
X8458Y2181D01*
X8463Y2180D01*
X8465Y2179D01*
X8615Y2160D01*
X9331Y1746D01*
X9439Y1606D01*
X9485Y1434D01*
X9461Y1259D01*
X9373Y1105D01*
X9232Y997D01*
X9061Y951D01*
X8885Y974D01*
G37*
%LPD*%
%LPC*%
G36*
X1838Y18694D02*
X1838Y18694D01*
X1586Y18761D01*
X1360Y18892D01*
X1175Y19076D01*
X1045Y19302D01*
X977Y19555D01*
X977Y19816D01*
X1045Y20068D01*
X1175Y20294D01*
X1360Y20478D01*
X1586Y20609D01*
X1838Y20676D01*
X2099Y20676D01*
X2351Y20609D01*
X2577Y20478D01*
X2762Y20294D01*
X2892Y20068D01*
X2960Y19816D01*
X2960Y19555D01*
X2892Y19302D01*
X2762Y19076D01*
X2577Y18892D01*
X2351Y18761D01*
X2099Y18694D01*
X1838Y18694D01*
G37*
%LPD*%
%LPC*%
G36*
X11681Y977D02*
X11681Y977D01*
X11428Y1045D01*
X11202Y1175D01*
X11018Y1360D01*
X10887Y1586D01*
X10820Y1838D01*
X10820Y2099D01*
X10887Y2351D01*
X11018Y2577D01*
X11202Y2762D01*
X11428Y2892D01*
X11681Y2960D01*
X11942Y2960D01*
X12194Y2892D01*
X12420Y2762D01*
X12604Y2577D01*
X12735Y2351D01*
X12802Y2099D01*
X12802Y1838D01*
X12735Y1586D01*
X12604Y1360D01*
X12420Y1175D01*
X12194Y1045D01*
X11942Y977D01*
X11681Y977D01*
G37*
%LPD*%
%LPC*%
G36*
X1838Y977D02*
X1838Y977D01*
X1586Y1045D01*
X1360Y1175D01*
X1175Y1360D01*
X1045Y1586D01*
X977Y1838D01*
X977Y2099D01*
X1045Y2351D01*
X1175Y2577D01*
X1360Y2762D01*
X1586Y2892D01*
X1838Y2960D01*
X2099Y2960D01*
X2351Y2892D01*
X2577Y2762D01*
X2762Y2577D01*
X2892Y2351D01*
X2960Y2099D01*
X2960Y1838D01*
X2892Y1586D01*
X2762Y1360D01*
X2577Y1175D01*
X2351Y1045D01*
X2099Y977D01*
X1838Y977D01*
G37*
%LPD*%
%LPC*%
G36*
X11681Y18694D02*
X11681Y18694D01*
X11428Y18761D01*
X11202Y18892D01*
X11018Y19076D01*
X10887Y19302D01*
X10820Y19555D01*
X10820Y19816D01*
X10887Y20068D01*
X11018Y20294D01*
X11202Y20478D01*
X11428Y20609D01*
X11681Y20676D01*
X11942Y20676D01*
X12194Y20609D01*
X12420Y20478D01*
X12604Y20294D01*
X12735Y20068D01*
X12802Y19816D01*
X12802Y19555D01*
X12735Y19302D01*
X12604Y19076D01*
X12420Y18892D01*
X12194Y18761D01*
X11942Y18694D01*
X11681Y18694D01*
G37*
%LPD*%
%LPC*%
G36*
X1834Y4349D02*
X1834Y4349D01*
X1599Y4584D01*
X1599Y4916D01*
X1765Y5082D01*
X1767Y5085D01*
X1770Y5088D01*
X1771Y5090D01*
X1772Y5091D01*
X1774Y5095D01*
X1776Y5099D01*
X1776Y5101D01*
X1777Y5103D01*
X1779Y5115D01*
X1779Y5116D01*
X1779Y5285D01*
X1779Y5290D01*
X1778Y5295D01*
X1778Y5296D01*
X1778Y5297D01*
X1776Y5302D01*
X1774Y5306D01*
X1774Y5307D01*
X1773Y5309D01*
X1770Y5313D01*
X1767Y5317D01*
X1766Y5318D01*
X1766Y5319D01*
X1762Y5322D01*
X1758Y5325D01*
X1757Y5326D01*
X1756Y5326D01*
X1752Y5329D01*
X1747Y5331D01*
X1746Y5331D01*
X1745Y5332D01*
X1733Y5334D01*
X1731Y5334D01*
X1730Y5334D01*
X1706Y5334D01*
X1635Y5405D01*
X1635Y6095D01*
X1706Y6166D01*
X2396Y6166D01*
X2467Y6095D01*
X2467Y5405D01*
X2396Y5334D01*
X2270Y5334D01*
X2265Y5333D01*
X2260Y5333D01*
X2259Y5333D01*
X2258Y5332D01*
X2253Y5331D01*
X2248Y5329D01*
X2247Y5328D01*
X2246Y5328D01*
X2242Y5325D01*
X2238Y5322D01*
X2237Y5321D01*
X2236Y5320D01*
X2233Y5317D01*
X2230Y5313D01*
X2229Y5312D01*
X2228Y5311D01*
X2226Y5306D01*
X2224Y5302D01*
X2224Y5301D01*
X2223Y5300D01*
X2221Y5287D01*
X2221Y5286D01*
X2221Y5285D01*
X2221Y5116D01*
X2221Y5112D01*
X2221Y5108D01*
X2222Y5106D01*
X2222Y5104D01*
X2224Y5100D01*
X2225Y5096D01*
X2226Y5095D01*
X2227Y5093D01*
X2234Y5082D01*
X2235Y5082D01*
X2401Y4916D01*
X2401Y4584D01*
X2166Y4349D01*
X1834Y4349D01*
G37*
%LPD*%
%LPC*%
G36*
X2910Y12549D02*
X2910Y12549D01*
X2745Y12618D01*
X2618Y12745D01*
X2549Y12910D01*
X2549Y13090D01*
X2618Y13255D01*
X2745Y13382D01*
X2910Y13451D01*
X3090Y13451D01*
X3255Y13382D01*
X3382Y13255D01*
X3451Y13090D01*
X3451Y12910D01*
X3382Y12745D01*
X3255Y12618D01*
X3090Y12549D01*
X2910Y12549D01*
G37*
%LPD*%
%LPC*%
G36*
X12099Y16474D02*
X12099Y16474D01*
X12099Y16976D01*
X12249Y16976D01*
X12601Y16624D01*
X12601Y16474D01*
X12099Y16474D01*
G37*
%LPD*%
%LPC*%
G36*
X7349Y17349D02*
X7349Y17349D01*
X7349Y17851D01*
X7499Y17851D01*
X7851Y17499D01*
X7851Y17349D01*
X7349Y17349D01*
G37*
%LPD*%
%LPC*%
G36*
X11399Y16474D02*
X11399Y16474D01*
X11399Y16624D01*
X11751Y16976D01*
X11901Y16976D01*
X11901Y16474D01*
X11399Y16474D01*
G37*
%LPD*%
%LPC*%
G36*
X12099Y15774D02*
X12099Y15774D01*
X12099Y16276D01*
X12601Y16276D01*
X12601Y16126D01*
X12249Y15774D01*
X12099Y15774D01*
G37*
%LPD*%
%LPC*%
G36*
X6649Y17349D02*
X6649Y17349D01*
X6649Y17499D01*
X7001Y17851D01*
X7151Y17851D01*
X7151Y17349D01*
X6649Y17349D01*
G37*
%LPD*%
%LPC*%
G36*
X7349Y16649D02*
X7349Y16649D01*
X7349Y17151D01*
X7851Y17151D01*
X7851Y17001D01*
X7499Y16649D01*
X7349Y16649D01*
G37*
%LPD*%
%LPC*%
G36*
X7001Y16649D02*
X7001Y16649D01*
X6649Y17001D01*
X6649Y17151D01*
X7151Y17151D01*
X7151Y16649D01*
X7001Y16649D01*
G37*
%LPD*%
%LPC*%
G36*
X11751Y15774D02*
X11751Y15774D01*
X11399Y16126D01*
X11399Y16276D01*
X11901Y16276D01*
X11901Y15774D01*
X11751Y15774D01*
G37*
%LPD*%
%LPC*%
G36*
X5136Y1545D02*
X5136Y1545D01*
X5299Y1828D01*
X5523Y1698D01*
X5575Y1656D01*
X5620Y1606D01*
X5656Y1550D01*
X5684Y1489D01*
X5701Y1424D01*
X5708Y1358D01*
X5705Y1291D01*
X5691Y1225D01*
X5690Y1225D01*
X5136Y1545D01*
G37*
%LPD*%
%LPC*%
G36*
X4409Y1965D02*
X4409Y1965D01*
X4459Y2010D01*
X4515Y2047D01*
X4576Y2074D01*
X4641Y2091D01*
X4708Y2098D01*
X4774Y2095D01*
X4840Y2081D01*
X4902Y2057D01*
X5127Y1927D01*
X4964Y1645D01*
X4409Y1965D01*
G37*
%LPD*%
%LPC*%
G36*
X4477Y1320D02*
X4477Y1320D01*
X4425Y1362D01*
X4380Y1412D01*
X4344Y1468D01*
X4316Y1529D01*
X4299Y1594D01*
X4292Y1660D01*
X4295Y1727D01*
X4309Y1793D01*
X4310Y1793D01*
X4864Y1473D01*
X4701Y1190D01*
X4477Y1320D01*
G37*
%LPD*%
%LPC*%
G36*
X1260Y17349D02*
X1260Y17349D01*
X1260Y17350D01*
X1281Y17413D01*
X1311Y17473D01*
X1351Y17527D01*
X1398Y17575D01*
X1452Y17614D01*
X1512Y17644D01*
X1576Y17665D01*
X1642Y17676D01*
X1901Y17676D01*
X1901Y17349D01*
X1260Y17349D01*
G37*
%LPD*%
%LPC*%
G36*
X1642Y16824D02*
X1642Y16824D01*
X1576Y16835D01*
X1512Y16856D01*
X1452Y16886D01*
X1398Y16925D01*
X1351Y16973D01*
X1311Y17027D01*
X1281Y17087D01*
X1260Y17150D01*
X1260Y17151D01*
X1901Y17151D01*
X1901Y16824D01*
X1642Y16824D01*
G37*
%LPD*%
%LPC*%
G36*
X5226Y923D02*
X5226Y923D01*
X5160Y937D01*
X5098Y961D01*
X4873Y1091D01*
X5036Y1373D01*
X5591Y1053D01*
X5541Y1008D01*
X5485Y971D01*
X5424Y944D01*
X5359Y927D01*
X5292Y920D01*
X5226Y923D01*
G37*
%LPD*%
%LPC*%
G36*
X1048Y5849D02*
X1048Y5849D01*
X1048Y6146D01*
X1257Y6146D01*
X1283Y6139D01*
X1306Y6126D01*
X1325Y6107D01*
X1338Y6084D01*
X1345Y6059D01*
X1345Y5849D01*
X1048Y5849D01*
G37*
%LPD*%
%LPC*%
G36*
X12150Y5849D02*
X12150Y5849D01*
X12150Y6146D01*
X12360Y6146D01*
X12385Y6139D01*
X12408Y6126D01*
X12427Y6107D01*
X12440Y6084D01*
X12447Y6059D01*
X12447Y5849D01*
X12150Y5849D01*
G37*
%LPD*%
%LPC*%
G36*
X11743Y5354D02*
X11743Y5354D01*
X11717Y5361D01*
X11694Y5374D01*
X11675Y5393D01*
X11662Y5416D01*
X11655Y5441D01*
X11655Y5651D01*
X11952Y5651D01*
X11952Y5354D01*
X11743Y5354D01*
G37*
%LPD*%
%LPC*%
G36*
X640Y5354D02*
X640Y5354D01*
X615Y5361D01*
X592Y5374D01*
X573Y5393D01*
X560Y5416D01*
X553Y5441D01*
X553Y5651D01*
X850Y5651D01*
X850Y5354D01*
X640Y5354D01*
G37*
%LPD*%
%LPC*%
G36*
X12150Y5354D02*
X12150Y5354D01*
X12150Y5651D01*
X12447Y5651D01*
X12447Y5441D01*
X12440Y5416D01*
X12427Y5393D01*
X12408Y5374D01*
X12385Y5361D01*
X12360Y5354D01*
X12150Y5354D01*
G37*
%LPD*%
%LPC*%
G36*
X553Y5849D02*
X553Y5849D01*
X553Y6059D01*
X560Y6084D01*
X573Y6107D01*
X592Y6126D01*
X615Y6139D01*
X640Y6146D01*
X850Y6146D01*
X850Y5849D01*
X553Y5849D01*
G37*
%LPD*%
%LPC*%
G36*
X1048Y5354D02*
X1048Y5354D01*
X1048Y5651D01*
X1345Y5651D01*
X1345Y5441D01*
X1338Y5416D01*
X1325Y5393D01*
X1306Y5374D01*
X1283Y5361D01*
X1257Y5354D01*
X1048Y5354D01*
G37*
%LPD*%
%LPC*%
G36*
X11655Y5849D02*
X11655Y5849D01*
X11655Y6059D01*
X11662Y6084D01*
X11675Y6107D01*
X11694Y6126D01*
X11717Y6139D01*
X11743Y6146D01*
X11952Y6146D01*
X11952Y5849D01*
X11655Y5849D01*
G37*
%LPD*%
%LPC*%
G36*
X7576Y13078D02*
X7576Y13078D01*
X7580Y13101D01*
X7601Y13165D01*
X7632Y13226D01*
X7671Y13281D01*
X7719Y13329D01*
X7774Y13368D01*
X7835Y13399D01*
X7899Y13420D01*
X7922Y13424D01*
X7922Y13078D01*
X7576Y13078D01*
G37*
%LPD*%
%LPC*%
G36*
X8078Y12922D02*
X8078Y12922D01*
X8424Y12922D01*
X8420Y12899D01*
X8399Y12835D01*
X8368Y12774D01*
X8329Y12719D01*
X8281Y12671D01*
X8226Y12632D01*
X8165Y12601D01*
X8101Y12580D01*
X8078Y12576D01*
X8078Y12922D01*
G37*
%LPD*%
%LPC*%
G36*
X7899Y12580D02*
X7899Y12580D01*
X7835Y12601D01*
X7774Y12632D01*
X7719Y12671D01*
X7671Y12719D01*
X7632Y12774D01*
X7601Y12835D01*
X7580Y12899D01*
X7576Y12922D01*
X7922Y12922D01*
X7922Y12576D01*
X7899Y12580D01*
G37*
%LPD*%
%LPC*%
G36*
X8078Y13078D02*
X8078Y13078D01*
X8078Y13424D01*
X8101Y13420D01*
X8165Y13399D01*
X8226Y13368D01*
X8281Y13329D01*
X8329Y13281D01*
X8368Y13226D01*
X8399Y13165D01*
X8420Y13101D01*
X8424Y13078D01*
X8078Y13078D01*
G37*
%LPD*%
%LPC*%
G36*
X11999Y16374D02*
X11999Y16374D01*
X11999Y16376D01*
X12001Y16376D01*
X12001Y16374D01*
X11999Y16374D01*
G37*
%LPD*%
%LPC*%
G36*
X7249Y17249D02*
X7249Y17249D01*
X7249Y17251D01*
X7251Y17251D01*
X7251Y17249D01*
X7249Y17249D01*
G37*
%LPD*%
%LPC*%
G36*
X4999Y1509D02*
X4999Y1509D01*
X5000Y1510D01*
X5001Y1509D01*
X5000Y1508D01*
X4999Y1509D01*
G37*
%LPD*%
%LPC*%
G36*
X948Y5749D02*
X948Y5749D01*
X948Y5751D01*
X950Y5751D01*
X950Y5749D01*
X948Y5749D01*
G37*
%LPD*%
%LPC*%
G36*
X12050Y5749D02*
X12050Y5749D01*
X12050Y5751D01*
X12052Y5751D01*
X12052Y5749D01*
X12050Y5749D01*
G37*
%LPD*%
D10*
X10000Y16375D03*
D11*
X12000Y16375D03*
D10*
X5250Y17250D03*
D11*
X7250Y17250D03*
D12*
X5719Y3403D02*
X6281Y3079D01*
X5781Y2213D02*
X5219Y2537D01*
X4719Y1671D02*
X5281Y1347D01*
D13*
X10000Y13000D03*
X9000Y13000D03*
X8000Y13000D03*
X7000Y13000D03*
X5000Y13000D03*
X3000Y13000D03*
D14*
X5500Y9000D03*
X8500Y9000D03*
D15*
X12000Y4750D03*
X11000Y4750D03*
X3000Y4750D03*
X2000Y4750D03*
D16*
X10949Y5750D03*
X12051Y5750D03*
X2051Y5750D03*
X949Y5750D03*
D12*
X8969Y2595D02*
X9531Y2271D01*
X9031Y1405D02*
X8469Y1729D01*
X2325Y16250D02*
X1675Y16250D01*
X1675Y17250D02*
X2325Y17250D01*
D17*
X7000Y13000D02*
X7000Y10500D01*
X5500Y9000D01*
X9000Y12125D02*
X9000Y13000D01*
X9000Y12125D02*
X8500Y11625D01*
X8500Y9000D01*
X5000Y13000D02*
X5000Y17000D01*
X5250Y17250D01*
X5000Y13000D02*
X3000Y11000D01*
X3000Y4750D01*
X3000Y3750D02*
X5500Y2375D01*
X3000Y3750D02*
X3000Y4750D01*
X10000Y13000D02*
X10000Y16375D01*
X10000Y13000D02*
X10000Y4000D01*
D18*
X11250Y4000D02*
X12000Y4750D01*
X11250Y4000D02*
X10000Y4000D01*
D17*
X10000Y3750D02*
X9250Y2433D01*
X10000Y3750D02*
X10000Y4000D01*
X10000Y16375D02*
X7500Y18875D01*
X4000Y18875D02*
X3125Y18000D01*
X3125Y16625D02*
X2750Y16250D01*
X2000Y16250D01*
X4000Y18875D02*
X7500Y18875D01*
X3125Y18000D02*
X3125Y16625D01*
D18*
X11000Y5699D02*
X11000Y4750D01*
X11000Y5699D02*
X10998Y5712D01*
X10993Y5725D01*
X10985Y5735D01*
X10975Y5743D01*
X10962Y5748D01*
X10949Y5750D01*
X2000Y5699D02*
X2000Y4750D01*
X2000Y5699D02*
X2002Y5712D01*
X2007Y5725D01*
X2015Y5735D01*
X2026Y5743D01*
X2038Y5748D01*
X2051Y5750D01*
D17*
X6000Y3241D02*
X8750Y1567D01*
M02*
