%
M48
M72
T01C0.03200
T02C0.04000
T03C0.04331
T04C0.04400
T05C0.05118
T06C0.12598
%
T01
X30310Y75167
X40310Y75167
X62810Y130167
X62810Y140167
T02
X30310Y115167
X30310Y105167
X30310Y95167
T03
X50310Y40167
X60310Y40167
X70310Y40167
X70310Y17667
X60310Y17667
X50310Y17667
T04
X50310Y60167
X50310Y70167
X80310Y70167
X80310Y60167
T05
X100212Y50250
X100212Y70250
T06
X21885Y22352
X100625Y22352
X103145Y105167
X100625Y140462
X21885Y140462
M30
