%
M48
M72
T01C0.02756
T02C0.03150
T03C0.03200
T04C0.03937
T05C0.04331
T06C0.05100
T07C0.05118
T08C0.12598
%
T01
X153850Y62600
X163850Y72600
X173850Y62600
X182600Y62600
X192600Y72600
X202600Y62600
X207600Y107600
X216350Y107600
X226350Y117600
X236350Y107600
X197600Y117600
X187600Y107600
X181350Y127600
X181350Y137600
X191350Y137600
X191350Y147600
T02
X170100Y156350
X161350Y166350
X152600Y166350
X166350Y131350
X166350Y122600
X187600Y125100
X181350Y88850
X181350Y80100
X163850Y80100
X210100Y53850
X255100Y56350
X256350Y68850
X268850Y83850
X246350Y95100
X240100Y130100
X236350Y167600
X100100Y170100
X98850Y158850
X80100Y172600
X80100Y182600
X98225Y215725
X306350Y75100
X350100Y55100
X385100Y86350
X290100Y45100
T03
X246350Y53850
X236350Y53850
X226350Y53850
X216350Y53850
X198850Y82600
X188850Y82600
X216350Y83850
X226350Y83850
X236350Y83850
X246350Y83850
X166350Y177600
X166350Y187600
X166350Y197600
X166350Y207600
X136350Y207600
X136350Y197600
X136350Y187600
X136350Y177600
X248850Y212600
X258850Y212600
X273850Y212600
X283850Y212600
X366350Y210100
X366350Y200100
X383850Y200100
X383850Y210100
T04
X336350Y227600
X261350Y227600
X251350Y227600
X241350Y227600
X231350Y227600
X221350Y227600
X211350Y227600
X111350Y227600
X101350Y227600
X71350Y217600
X61350Y217600
X61350Y207600
X71350Y207600
X71350Y197600
X61350Y197600
X61350Y187600
X71350Y187600
X71350Y177600
X61350Y177600
X61350Y167600
X71350Y167600
X71350Y157600
X61350Y157600
X61350Y147600
X71350Y147600
X71350Y137600
X61350Y137600
X61350Y127600
X71350Y127600
X71350Y117600
X61350Y117600
X211350Y37600
X221350Y37600
X231350Y37600
X241350Y37600
X261350Y37600
X271350Y37600
X281350Y37600
X301350Y37600
T05
X93850Y60100
X103850Y60100
X113850Y60100
X123850Y60100
X133850Y60100
X138850Y82600
X128850Y82600
X118850Y82600
X108850Y82600
X98850Y82600
X103850Y105100
X113850Y105100
X123850Y105100
X133850Y105100
X143850Y105100
X167600Y105100
X167600Y95100
X148850Y127600
X138850Y127600
X128850Y127600
X118850Y127600
X108850Y127600
X113850Y150100
X123850Y150100
X133850Y150100
X143850Y150100
X153850Y150100
X186350Y177600
X186350Y187600
X186350Y197600
X186350Y207600
X116350Y207600
X116350Y197600
X116350Y187600
X116350Y177600
X31350Y177600
X21350Y177600
X21350Y200100
X31350Y200100
X31350Y222600
X21350Y222600
X21350Y155100
X31350Y155100
X31350Y132600
X21350Y132600
X21350Y110100
X31350Y110100
X31350Y87600
X21350Y87600
X21350Y65100
X31350Y65100
X271350Y67600
X271350Y57600
X292600Y57600
X292600Y67600
X313850Y67600
X313850Y57600
X335100Y57600
X335100Y67600
X365100Y71350
X375100Y71350
X385100Y71350
X385100Y48850
X375100Y48850
X365100Y48850
T06
X262400Y101500
X262400Y189500
T07
X216252Y187683
X216252Y167683
X216252Y147683
X216252Y207683
T08
X221685Y251635
X24834Y251635
X221685Y15415
X379165Y15415
M30
