M48
;GenerationSoftware,Autodesk,EAGLE,9.0.1*%
;CreationDate,2018-05-17T06:22:33Z*%
FMAT,2
ICI,OFF
METRIC,TZ,000.000
T6C0.800
T5C0.813
T4C1.000
T3C1.016
T2C1.100
T1C3.000
%
G90
M71
T1
X6430Y5000
X-18570Y5000
X6430Y50000
X-18570Y50000
T2
X-1905Y7915
X-635Y5715
X635Y3515
X-13335Y7915
X-12065Y5715
X-10795Y3515
T3
X5715Y42545
X635Y42545
X-11430Y47625
X-6350Y47625
T4
X-10160Y22860
X-2540Y22860
T5
X5080Y12065
X7620Y12065
X-17780Y12065
X-20320Y12065
T6
X1270Y33020
X-1270Y33020
X-3810Y33020
X-6350Y33020
X-11430Y33020
X-16510Y33020
M30