M48
;GenerationSoftware,Autodesk,EAGLE,9.0.1*%
;CreationDate,2018-05-18T06:36:17Z*%
FMAT,2
ICI,OFF
INCH,TZ,000.0000
T6C0.0315
T5C0.0320
T4C0.0394
T3C0.0400
T2C0.0433
T1C0.1181
%
G90
M72
T1
X1969Y1969
X11811Y1969
X1969Y19685
X11811Y19685
T2
X5250Y3116
X4750Y2250
X4250Y1384
X9750Y3116
X9250Y2250
X8750Y1384
T3
X2250Y16750
X4250Y16750
X9000Y18750
X7000Y18750
T4
X8500Y9000
X5500Y9000
T5
X2500Y4750
X1500Y4750
X11500Y4750
X12500Y4750
T6
X4000Y13000
X5000Y13000
X6000Y13000
X7000Y13000
X9000Y13000
X11000Y13000
M30