%
M48
M72
T01C0.02756
T02C0.03150
T03C0.03200
T04C0.03937
T05C0.04331
T06C0.05100
T07C0.05118
T08C0.12598
%
T01
X167864Y110100
X177864Y120100
X187864Y110100
X196614Y110100
X206614Y120100
X216614Y110100
X222864Y130100
X222864Y140100
X212864Y140100
X212864Y150100
X211614Y75100
X201614Y65100
X221614Y65100
X230364Y65100
X240364Y75100
X250364Y65100
T02
X230364Y116350
X237864Y126350
X164114Y132600
X135364Y86350
X97864Y78850
X149114Y58850
T03
X157864Y56350
X167864Y56350
X177864Y56350
X187864Y56350
X187864Y86350
X177864Y86350
X167864Y86350
X157864Y86350
X205364Y85100
X215364Y85100
X237864Y180100
X237864Y190100
X237864Y200100
X237864Y210100
X267864Y210100
X267864Y200100
X267864Y190100
X267864Y180100
X155364Y215100
X145364Y215100
X130364Y215100
X120364Y215100
X37864Y212600
X37864Y202600
X20364Y202600
X20364Y212600
T04
X67864Y230100
X142864Y230100
X152864Y230100
X162864Y230100
X172864Y230100
X182864Y230100
X192864Y230100
X292864Y230100
X302864Y230100
X332864Y220100
X342864Y220100
X342864Y210100
X332864Y210100
X332864Y200100
X342864Y200100
X342864Y190100
X332864Y190100
X332864Y180100
X342864Y180100
X342864Y170100
X332864Y170100
X332864Y160100
X342864Y160100
X342864Y150100
X332864Y150100
X332864Y140100
X342864Y140100
X342864Y130100
X332864Y130100
X332864Y120100
X342864Y120100
X192864Y40100
X182864Y40100
X172864Y40100
X162864Y40100
X142864Y40100
X132864Y40100
X122864Y40100
X102864Y40100
T05
X111614Y60100
X111614Y70100
X90364Y70100
X90364Y60100
X69114Y60100
X69114Y70100
X39114Y72600
X29114Y72600
X19114Y72600
X19114Y51350
X29114Y51350
X39114Y51350
X132864Y60100
X132864Y70100
X235364Y91350
X235364Y101350
X260364Y107600
X270364Y107600
X280364Y107600
X290364Y107600
X300364Y107600
X295364Y85100
X305364Y85100
X285364Y85100
X275364Y85100
X265364Y85100
X270364Y62600
X280364Y62600
X290364Y62600
X300364Y62600
X310364Y62600
X295364Y130100
X285364Y130100
X275364Y130100
X265364Y130100
X255364Y130100
X250364Y152600
X260364Y152600
X270364Y152600
X280364Y152600
X290364Y152600
X287864Y180100
X287864Y190100
X287864Y200100
X287864Y210100
X217864Y210100
X217864Y200100
X217864Y190100
X217864Y180100
X367864Y180100
X377864Y180100
X400364Y180100
X410364Y180100
X410364Y157600
X400364Y157600
X377864Y157600
X367864Y157600
X367864Y202600
X377864Y202600
X400364Y202600
X410364Y202600
X410364Y225100
X400364Y225100
X377864Y225100
X367864Y225100
T06
X141814Y192000
X141814Y104000
T07
X187963Y150183
X187963Y170183
X187963Y190183
X187963Y210183
T08
X25049Y17915
X379380Y136025
X182530Y254135
M30
