G75*
%MOIN*%
%OFA0B0*%
%FSLAX25Y25*%
%IPPOS*%
%LPD*%
%AMOC8*
5,1,8,0,0,1.08239X$1,22.5*
%
%ADD10C,0.06000*%
%ADD11OC8,0.05200*%
%ADD12C,0.07087*%
%ADD13R,0.05900X0.05900*%
%ADD14C,0.05900*%
%ADD15OC8,0.05150*%
%ADD16C,0.06600*%
%ADD17OC8,0.05600*%
%ADD18C,0.02400*%
D10*
X0037950Y0181046D02*
X0043950Y0181046D01*
X0043950Y0191046D02*
X0037950Y0191046D01*
X0037950Y0201046D02*
X0043950Y0201046D01*
X0091700Y0201046D02*
X0097700Y0201046D01*
X0097700Y0191046D02*
X0091700Y0191046D01*
X0091700Y0181046D02*
X0097700Y0181046D01*
X0146700Y0181046D02*
X0152700Y0181046D01*
X0152700Y0191046D02*
X0146700Y0191046D01*
X0146700Y0201046D02*
X0152700Y0201046D01*
X0201700Y0201046D02*
X0207700Y0201046D01*
X0207700Y0191046D02*
X0201700Y0191046D01*
X0201700Y0181046D02*
X0207700Y0181046D01*
X0210200Y0136046D02*
X0204200Y0136046D01*
X0204200Y0126046D02*
X0210200Y0126046D01*
X0210200Y0116046D02*
X0204200Y0116046D01*
X0204200Y0106046D02*
X0210200Y0106046D01*
X0210200Y0096046D02*
X0204200Y0096046D01*
X0204200Y0086046D02*
X0210200Y0086046D01*
X0252050Y0101496D02*
X0252050Y0107496D01*
X0269850Y0107496D02*
X0269850Y0101496D01*
X0269850Y0127096D02*
X0269850Y0133096D01*
X0252050Y0133096D02*
X0252050Y0127096D01*
D11*
X0047200Y0052296D03*
X0047200Y0062296D03*
X0074700Y0062296D03*
X0074700Y0052296D03*
X0102200Y0052296D03*
X0102200Y0062296D03*
X0129700Y0062296D03*
X0129700Y0052296D03*
X0157200Y0052296D03*
X0157200Y0062296D03*
X0175950Y0062296D03*
X0183450Y0101046D03*
X0183450Y0121046D03*
X0187200Y0151046D03*
X0164700Y0161046D03*
X0187200Y0191046D03*
X0164700Y0201046D03*
X0132200Y0191046D03*
X0109700Y0201046D03*
X0077200Y0191046D03*
X0055950Y0201046D03*
X0055950Y0161046D03*
X0077200Y0151046D03*
X0063450Y0136046D03*
X0052200Y0136046D03*
X0040950Y0136046D03*
X0020950Y0136046D03*
X0020950Y0096046D03*
X0040950Y0096046D03*
X0052200Y0096046D03*
X0063450Y0096046D03*
X0109700Y0161046D03*
X0132200Y0151046D03*
X0213450Y0142296D03*
X0219700Y0161046D03*
X0243450Y0158546D03*
X0253450Y0142296D03*
X0243450Y0198546D03*
X0219700Y0201046D03*
X0215950Y0062296D03*
D12*
X0224907Y0096046D02*
X0231993Y0096046D01*
X0231993Y0106046D02*
X0224907Y0106046D01*
X0224907Y0116046D02*
X0231993Y0116046D01*
X0231993Y0126046D02*
X0224907Y0126046D01*
X0148450Y0246252D02*
X0148450Y0253339D01*
X0138450Y0253339D02*
X0138450Y0246252D01*
X0128450Y0246252D02*
X0128450Y0253339D01*
X0118450Y0253339D02*
X0118450Y0246252D01*
X0108450Y0246252D02*
X0108450Y0253339D01*
X0098450Y0253339D02*
X0098450Y0246252D01*
X0023243Y0172296D02*
X0016157Y0172296D01*
X0016157Y0162296D02*
X0023243Y0162296D01*
X0023243Y0152296D02*
X0016157Y0152296D01*
D13*
X0168450Y0126046D03*
D14*
X0158450Y0126046D03*
X0148450Y0126046D03*
X0138450Y0126046D03*
X0128450Y0126046D03*
X0118450Y0126046D03*
X0108450Y0126046D03*
X0098450Y0126046D03*
X0088450Y0126046D03*
X0078450Y0126046D03*
X0078450Y0096046D03*
X0088450Y0096046D03*
X0098450Y0096046D03*
X0108450Y0096046D03*
X0118450Y0096046D03*
X0128450Y0096046D03*
X0138450Y0096046D03*
X0148450Y0096046D03*
X0158450Y0096046D03*
X0168450Y0096046D03*
D15*
X0177200Y0191046D03*
X0177200Y0201046D03*
X0177200Y0211046D03*
X0122200Y0211046D03*
X0122200Y0201046D03*
X0122200Y0191046D03*
X0068450Y0191046D03*
X0068450Y0201046D03*
X0068450Y0211046D03*
X0232200Y0211046D03*
X0232200Y0201046D03*
X0232200Y0191046D03*
D16*
X0223450Y0218546D03*
X0223450Y0229796D03*
X0193450Y0229796D03*
X0193450Y0218546D03*
X0168450Y0218546D03*
X0168450Y0229796D03*
X0138450Y0229796D03*
X0138450Y0218546D03*
X0113450Y0218546D03*
X0113450Y0229796D03*
X0083450Y0229796D03*
X0083450Y0218546D03*
X0059700Y0218546D03*
X0059700Y0229796D03*
X0029700Y0229796D03*
X0029700Y0218546D03*
D17*
X0228450Y0078546D03*
X0257200Y0078546D03*
D18*
X0228450Y0078546D01*
M02*
