%
M48
M72
T01C0.03150
T02C0.03200
T03C0.03900
T04C0.04000
T05C0.04400
T06C0.04724
T07C0.12598
%
T01
X25917Y78546
X54667Y78546
X50917Y191046
X50917Y201046
X50917Y211046
X105917Y211046
X105917Y201046
X105917Y191046
X160917Y191046
X160917Y201046
X160917Y211046
X214667Y211046
X214667Y201046
X214667Y191046
T02
X205917Y191046
X227167Y201046
X227167Y161046
X205917Y151046
X219667Y136046
X230917Y136046
X242167Y136046
X262167Y136046
X262167Y96046
X242167Y96046
X230917Y96046
X219667Y96046
X208417Y62296
X208417Y52296
X235917Y52296
X235917Y62296
X180917Y62296
X180917Y52296
X153417Y52296
X153417Y62296
X125917Y62296
X125917Y52296
X107167Y62296
X99667Y101046
X99667Y121046
X95917Y151046
X118417Y161046
X95917Y191046
X118417Y201046
X150917Y191046
X173417Y201046
X173417Y161046
X150917Y151046
X69667Y142296
X63417Y161046
X39667Y158546
X29667Y142296
X39667Y198546
X63417Y201046
X67167Y62296
T03
X114667Y96046
X124667Y96046
X134667Y96046
X144667Y96046
X154667Y96046
X164667Y96046
X174667Y96046
X184667Y96046
X194667Y96046
X204667Y96046
X204667Y126046
X194667Y126046
X184667Y126046
X174667Y126046
X164667Y126046
X154667Y126046
X144667Y126046
X134667Y126046
X124667Y126046
X114667Y126046
T04
X75917Y126046
X75917Y136046
X75917Y116046
X75917Y106046
X75917Y96046
X75917Y86046
X31067Y104496
X13267Y104496
X13267Y130096
X31067Y130096
X78417Y181046
X78417Y191046
X78417Y201046
X133417Y201046
X133417Y191046
X133417Y181046
X188417Y181046
X188417Y191046
X188417Y201046
X242167Y201046
X242167Y191046
X242167Y181046
T05
X253417Y218546
X253417Y229796
X223417Y229796
X223417Y218546
X199667Y218546
X199667Y229796
X169667Y229796
X169667Y218546
X144667Y218546
X144667Y229796
X114667Y229796
X114667Y218546
X89667Y218546
X89667Y229796
X59667Y229796
X59667Y218546
T06
X134667Y249796
X144667Y249796
X154667Y249796
X164667Y249796
X174667Y249796
X184667Y249796
X263417Y172296
X263417Y162296
X263417Y152296
X54667Y126046
X54667Y116046
X54667Y106046
X54667Y96046
T07
X25011Y60731
X25011Y257581
X261232Y257581
X261232Y60731
M30
