G75*
%MOIN*%
%OFA0B0*%
%FSLAX25Y25*%
%IPPOS*%
%LPD*%
%AMOC8*
5,1,8,0,0,1.08239X$1,22.5*
%
%ADD10C,0.00000*%
%ADD11C,0.00600*%
%ADD12C,0.02000*%
%ADD13C,0.00500*%
%ADD14R,0.05000X0.42000*%
%ADD15C,0.01200*%
%ADD16C,0.00400*%
%ADD17R,0.02400X0.03400*%
%ADD18C,0.00300*%
%ADD19C,0.00800*%
%ADD20C,0.00200*%
%ADD21R,0.03400X0.02400*%
%ADD22C,0.01000*%
%ADD23R,0.02000X0.10000*%
%ADD24R,0.07500X0.03000*%
D10*
X0002200Y0041046D02*
X0002200Y0277266D01*
X0277791Y0277266D01*
X0277791Y0041046D01*
X0002200Y0041046D01*
X0015586Y0060731D02*
X0015588Y0060889D01*
X0015594Y0061047D01*
X0015604Y0061205D01*
X0015618Y0061363D01*
X0015636Y0061520D01*
X0015657Y0061677D01*
X0015683Y0061833D01*
X0015713Y0061989D01*
X0015746Y0062144D01*
X0015784Y0062297D01*
X0015825Y0062450D01*
X0015870Y0062602D01*
X0015919Y0062753D01*
X0015972Y0062902D01*
X0016028Y0063050D01*
X0016088Y0063196D01*
X0016152Y0063341D01*
X0016220Y0063484D01*
X0016291Y0063626D01*
X0016365Y0063766D01*
X0016443Y0063903D01*
X0016525Y0064039D01*
X0016609Y0064173D01*
X0016698Y0064304D01*
X0016789Y0064433D01*
X0016884Y0064560D01*
X0016981Y0064685D01*
X0017082Y0064807D01*
X0017186Y0064926D01*
X0017293Y0065043D01*
X0017403Y0065157D01*
X0017516Y0065268D01*
X0017631Y0065377D01*
X0017749Y0065482D01*
X0017870Y0065584D01*
X0017993Y0065684D01*
X0018119Y0065780D01*
X0018247Y0065873D01*
X0018377Y0065963D01*
X0018510Y0066049D01*
X0018645Y0066133D01*
X0018781Y0066212D01*
X0018920Y0066289D01*
X0019061Y0066361D01*
X0019203Y0066431D01*
X0019347Y0066496D01*
X0019493Y0066558D01*
X0019640Y0066616D01*
X0019789Y0066671D01*
X0019939Y0066722D01*
X0020090Y0066769D01*
X0020242Y0066812D01*
X0020395Y0066851D01*
X0020550Y0066887D01*
X0020705Y0066918D01*
X0020861Y0066946D01*
X0021017Y0066970D01*
X0021174Y0066990D01*
X0021332Y0067006D01*
X0021489Y0067018D01*
X0021648Y0067026D01*
X0021806Y0067030D01*
X0021964Y0067030D01*
X0022122Y0067026D01*
X0022281Y0067018D01*
X0022438Y0067006D01*
X0022596Y0066990D01*
X0022753Y0066970D01*
X0022909Y0066946D01*
X0023065Y0066918D01*
X0023220Y0066887D01*
X0023375Y0066851D01*
X0023528Y0066812D01*
X0023680Y0066769D01*
X0023831Y0066722D01*
X0023981Y0066671D01*
X0024130Y0066616D01*
X0024277Y0066558D01*
X0024423Y0066496D01*
X0024567Y0066431D01*
X0024709Y0066361D01*
X0024850Y0066289D01*
X0024989Y0066212D01*
X0025125Y0066133D01*
X0025260Y0066049D01*
X0025393Y0065963D01*
X0025523Y0065873D01*
X0025651Y0065780D01*
X0025777Y0065684D01*
X0025900Y0065584D01*
X0026021Y0065482D01*
X0026139Y0065377D01*
X0026254Y0065268D01*
X0026367Y0065157D01*
X0026477Y0065043D01*
X0026584Y0064926D01*
X0026688Y0064807D01*
X0026789Y0064685D01*
X0026886Y0064560D01*
X0026981Y0064433D01*
X0027072Y0064304D01*
X0027161Y0064173D01*
X0027245Y0064039D01*
X0027327Y0063903D01*
X0027405Y0063766D01*
X0027479Y0063626D01*
X0027550Y0063484D01*
X0027618Y0063341D01*
X0027682Y0063196D01*
X0027742Y0063050D01*
X0027798Y0062902D01*
X0027851Y0062753D01*
X0027900Y0062602D01*
X0027945Y0062450D01*
X0027986Y0062297D01*
X0028024Y0062144D01*
X0028057Y0061989D01*
X0028087Y0061833D01*
X0028113Y0061677D01*
X0028134Y0061520D01*
X0028152Y0061363D01*
X0028166Y0061205D01*
X0028176Y0061047D01*
X0028182Y0060889D01*
X0028184Y0060731D01*
X0028182Y0060573D01*
X0028176Y0060415D01*
X0028166Y0060257D01*
X0028152Y0060099D01*
X0028134Y0059942D01*
X0028113Y0059785D01*
X0028087Y0059629D01*
X0028057Y0059473D01*
X0028024Y0059318D01*
X0027986Y0059165D01*
X0027945Y0059012D01*
X0027900Y0058860D01*
X0027851Y0058709D01*
X0027798Y0058560D01*
X0027742Y0058412D01*
X0027682Y0058266D01*
X0027618Y0058121D01*
X0027550Y0057978D01*
X0027479Y0057836D01*
X0027405Y0057696D01*
X0027327Y0057559D01*
X0027245Y0057423D01*
X0027161Y0057289D01*
X0027072Y0057158D01*
X0026981Y0057029D01*
X0026886Y0056902D01*
X0026789Y0056777D01*
X0026688Y0056655D01*
X0026584Y0056536D01*
X0026477Y0056419D01*
X0026367Y0056305D01*
X0026254Y0056194D01*
X0026139Y0056085D01*
X0026021Y0055980D01*
X0025900Y0055878D01*
X0025777Y0055778D01*
X0025651Y0055682D01*
X0025523Y0055589D01*
X0025393Y0055499D01*
X0025260Y0055413D01*
X0025125Y0055329D01*
X0024989Y0055250D01*
X0024850Y0055173D01*
X0024709Y0055101D01*
X0024567Y0055031D01*
X0024423Y0054966D01*
X0024277Y0054904D01*
X0024130Y0054846D01*
X0023981Y0054791D01*
X0023831Y0054740D01*
X0023680Y0054693D01*
X0023528Y0054650D01*
X0023375Y0054611D01*
X0023220Y0054575D01*
X0023065Y0054544D01*
X0022909Y0054516D01*
X0022753Y0054492D01*
X0022596Y0054472D01*
X0022438Y0054456D01*
X0022281Y0054444D01*
X0022122Y0054436D01*
X0021964Y0054432D01*
X0021806Y0054432D01*
X0021648Y0054436D01*
X0021489Y0054444D01*
X0021332Y0054456D01*
X0021174Y0054472D01*
X0021017Y0054492D01*
X0020861Y0054516D01*
X0020705Y0054544D01*
X0020550Y0054575D01*
X0020395Y0054611D01*
X0020242Y0054650D01*
X0020090Y0054693D01*
X0019939Y0054740D01*
X0019789Y0054791D01*
X0019640Y0054846D01*
X0019493Y0054904D01*
X0019347Y0054966D01*
X0019203Y0055031D01*
X0019061Y0055101D01*
X0018920Y0055173D01*
X0018781Y0055250D01*
X0018645Y0055329D01*
X0018510Y0055413D01*
X0018377Y0055499D01*
X0018247Y0055589D01*
X0018119Y0055682D01*
X0017993Y0055778D01*
X0017870Y0055878D01*
X0017749Y0055980D01*
X0017631Y0056085D01*
X0017516Y0056194D01*
X0017403Y0056305D01*
X0017293Y0056419D01*
X0017186Y0056536D01*
X0017082Y0056655D01*
X0016981Y0056777D01*
X0016884Y0056902D01*
X0016789Y0057029D01*
X0016698Y0057158D01*
X0016609Y0057289D01*
X0016525Y0057423D01*
X0016443Y0057559D01*
X0016365Y0057696D01*
X0016291Y0057836D01*
X0016220Y0057978D01*
X0016152Y0058121D01*
X0016088Y0058266D01*
X0016028Y0058412D01*
X0015972Y0058560D01*
X0015919Y0058709D01*
X0015870Y0058860D01*
X0015825Y0059012D01*
X0015784Y0059165D01*
X0015746Y0059318D01*
X0015713Y0059473D01*
X0015683Y0059629D01*
X0015657Y0059785D01*
X0015636Y0059942D01*
X0015618Y0060099D01*
X0015604Y0060257D01*
X0015594Y0060415D01*
X0015588Y0060573D01*
X0015586Y0060731D01*
X0176450Y0109846D02*
X0176381Y0109848D01*
X0176313Y0109854D01*
X0176245Y0109864D01*
X0176178Y0109877D01*
X0176112Y0109895D01*
X0176047Y0109916D01*
X0175983Y0109941D01*
X0175921Y0109969D01*
X0175860Y0110001D01*
X0175801Y0110036D01*
X0175745Y0110075D01*
X0175690Y0110117D01*
X0175639Y0110162D01*
X0175589Y0110210D01*
X0175543Y0110260D01*
X0175500Y0110313D01*
X0175459Y0110369D01*
X0175422Y0110426D01*
X0175389Y0110486D01*
X0175358Y0110548D01*
X0175332Y0110611D01*
X0175309Y0110675D01*
X0175289Y0110741D01*
X0175274Y0110808D01*
X0175262Y0110875D01*
X0175254Y0110943D01*
X0175250Y0111012D01*
X0175250Y0111080D01*
X0175254Y0111149D01*
X0175262Y0111217D01*
X0175274Y0111284D01*
X0175289Y0111351D01*
X0175309Y0111417D01*
X0175332Y0111481D01*
X0175358Y0111544D01*
X0175389Y0111606D01*
X0175422Y0111666D01*
X0175459Y0111723D01*
X0175500Y0111779D01*
X0175543Y0111832D01*
X0175589Y0111882D01*
X0175639Y0111930D01*
X0175690Y0111975D01*
X0175745Y0112017D01*
X0175801Y0112056D01*
X0175860Y0112091D01*
X0175921Y0112123D01*
X0175983Y0112151D01*
X0176047Y0112176D01*
X0176112Y0112197D01*
X0176178Y0112215D01*
X0176245Y0112228D01*
X0176313Y0112238D01*
X0176381Y0112244D01*
X0176450Y0112246D01*
X0251807Y0060731D02*
X0251809Y0060889D01*
X0251815Y0061047D01*
X0251825Y0061205D01*
X0251839Y0061363D01*
X0251857Y0061520D01*
X0251878Y0061677D01*
X0251904Y0061833D01*
X0251934Y0061989D01*
X0251967Y0062144D01*
X0252005Y0062297D01*
X0252046Y0062450D01*
X0252091Y0062602D01*
X0252140Y0062753D01*
X0252193Y0062902D01*
X0252249Y0063050D01*
X0252309Y0063196D01*
X0252373Y0063341D01*
X0252441Y0063484D01*
X0252512Y0063626D01*
X0252586Y0063766D01*
X0252664Y0063903D01*
X0252746Y0064039D01*
X0252830Y0064173D01*
X0252919Y0064304D01*
X0253010Y0064433D01*
X0253105Y0064560D01*
X0253202Y0064685D01*
X0253303Y0064807D01*
X0253407Y0064926D01*
X0253514Y0065043D01*
X0253624Y0065157D01*
X0253737Y0065268D01*
X0253852Y0065377D01*
X0253970Y0065482D01*
X0254091Y0065584D01*
X0254214Y0065684D01*
X0254340Y0065780D01*
X0254468Y0065873D01*
X0254598Y0065963D01*
X0254731Y0066049D01*
X0254866Y0066133D01*
X0255002Y0066212D01*
X0255141Y0066289D01*
X0255282Y0066361D01*
X0255424Y0066431D01*
X0255568Y0066496D01*
X0255714Y0066558D01*
X0255861Y0066616D01*
X0256010Y0066671D01*
X0256160Y0066722D01*
X0256311Y0066769D01*
X0256463Y0066812D01*
X0256616Y0066851D01*
X0256771Y0066887D01*
X0256926Y0066918D01*
X0257082Y0066946D01*
X0257238Y0066970D01*
X0257395Y0066990D01*
X0257553Y0067006D01*
X0257710Y0067018D01*
X0257869Y0067026D01*
X0258027Y0067030D01*
X0258185Y0067030D01*
X0258343Y0067026D01*
X0258502Y0067018D01*
X0258659Y0067006D01*
X0258817Y0066990D01*
X0258974Y0066970D01*
X0259130Y0066946D01*
X0259286Y0066918D01*
X0259441Y0066887D01*
X0259596Y0066851D01*
X0259749Y0066812D01*
X0259901Y0066769D01*
X0260052Y0066722D01*
X0260202Y0066671D01*
X0260351Y0066616D01*
X0260498Y0066558D01*
X0260644Y0066496D01*
X0260788Y0066431D01*
X0260930Y0066361D01*
X0261071Y0066289D01*
X0261210Y0066212D01*
X0261346Y0066133D01*
X0261481Y0066049D01*
X0261614Y0065963D01*
X0261744Y0065873D01*
X0261872Y0065780D01*
X0261998Y0065684D01*
X0262121Y0065584D01*
X0262242Y0065482D01*
X0262360Y0065377D01*
X0262475Y0065268D01*
X0262588Y0065157D01*
X0262698Y0065043D01*
X0262805Y0064926D01*
X0262909Y0064807D01*
X0263010Y0064685D01*
X0263107Y0064560D01*
X0263202Y0064433D01*
X0263293Y0064304D01*
X0263382Y0064173D01*
X0263466Y0064039D01*
X0263548Y0063903D01*
X0263626Y0063766D01*
X0263700Y0063626D01*
X0263771Y0063484D01*
X0263839Y0063341D01*
X0263903Y0063196D01*
X0263963Y0063050D01*
X0264019Y0062902D01*
X0264072Y0062753D01*
X0264121Y0062602D01*
X0264166Y0062450D01*
X0264207Y0062297D01*
X0264245Y0062144D01*
X0264278Y0061989D01*
X0264308Y0061833D01*
X0264334Y0061677D01*
X0264355Y0061520D01*
X0264373Y0061363D01*
X0264387Y0061205D01*
X0264397Y0061047D01*
X0264403Y0060889D01*
X0264405Y0060731D01*
X0264403Y0060573D01*
X0264397Y0060415D01*
X0264387Y0060257D01*
X0264373Y0060099D01*
X0264355Y0059942D01*
X0264334Y0059785D01*
X0264308Y0059629D01*
X0264278Y0059473D01*
X0264245Y0059318D01*
X0264207Y0059165D01*
X0264166Y0059012D01*
X0264121Y0058860D01*
X0264072Y0058709D01*
X0264019Y0058560D01*
X0263963Y0058412D01*
X0263903Y0058266D01*
X0263839Y0058121D01*
X0263771Y0057978D01*
X0263700Y0057836D01*
X0263626Y0057696D01*
X0263548Y0057559D01*
X0263466Y0057423D01*
X0263382Y0057289D01*
X0263293Y0057158D01*
X0263202Y0057029D01*
X0263107Y0056902D01*
X0263010Y0056777D01*
X0262909Y0056655D01*
X0262805Y0056536D01*
X0262698Y0056419D01*
X0262588Y0056305D01*
X0262475Y0056194D01*
X0262360Y0056085D01*
X0262242Y0055980D01*
X0262121Y0055878D01*
X0261998Y0055778D01*
X0261872Y0055682D01*
X0261744Y0055589D01*
X0261614Y0055499D01*
X0261481Y0055413D01*
X0261346Y0055329D01*
X0261210Y0055250D01*
X0261071Y0055173D01*
X0260930Y0055101D01*
X0260788Y0055031D01*
X0260644Y0054966D01*
X0260498Y0054904D01*
X0260351Y0054846D01*
X0260202Y0054791D01*
X0260052Y0054740D01*
X0259901Y0054693D01*
X0259749Y0054650D01*
X0259596Y0054611D01*
X0259441Y0054575D01*
X0259286Y0054544D01*
X0259130Y0054516D01*
X0258974Y0054492D01*
X0258817Y0054472D01*
X0258659Y0054456D01*
X0258502Y0054444D01*
X0258343Y0054436D01*
X0258185Y0054432D01*
X0258027Y0054432D01*
X0257869Y0054436D01*
X0257710Y0054444D01*
X0257553Y0054456D01*
X0257395Y0054472D01*
X0257238Y0054492D01*
X0257082Y0054516D01*
X0256926Y0054544D01*
X0256771Y0054575D01*
X0256616Y0054611D01*
X0256463Y0054650D01*
X0256311Y0054693D01*
X0256160Y0054740D01*
X0256010Y0054791D01*
X0255861Y0054846D01*
X0255714Y0054904D01*
X0255568Y0054966D01*
X0255424Y0055031D01*
X0255282Y0055101D01*
X0255141Y0055173D01*
X0255002Y0055250D01*
X0254866Y0055329D01*
X0254731Y0055413D01*
X0254598Y0055499D01*
X0254468Y0055589D01*
X0254340Y0055682D01*
X0254214Y0055778D01*
X0254091Y0055878D01*
X0253970Y0055980D01*
X0253852Y0056085D01*
X0253737Y0056194D01*
X0253624Y0056305D01*
X0253514Y0056419D01*
X0253407Y0056536D01*
X0253303Y0056655D01*
X0253202Y0056777D01*
X0253105Y0056902D01*
X0253010Y0057029D01*
X0252919Y0057158D01*
X0252830Y0057289D01*
X0252746Y0057423D01*
X0252664Y0057559D01*
X0252586Y0057696D01*
X0252512Y0057836D01*
X0252441Y0057978D01*
X0252373Y0058121D01*
X0252309Y0058266D01*
X0252249Y0058412D01*
X0252193Y0058560D01*
X0252140Y0058709D01*
X0252091Y0058860D01*
X0252046Y0059012D01*
X0252005Y0059165D01*
X0251967Y0059318D01*
X0251934Y0059473D01*
X0251904Y0059629D01*
X0251878Y0059785D01*
X0251857Y0059942D01*
X0251839Y0060099D01*
X0251825Y0060257D01*
X0251815Y0060415D01*
X0251809Y0060573D01*
X0251807Y0060731D01*
X0251807Y0257581D02*
X0251809Y0257739D01*
X0251815Y0257897D01*
X0251825Y0258055D01*
X0251839Y0258213D01*
X0251857Y0258370D01*
X0251878Y0258527D01*
X0251904Y0258683D01*
X0251934Y0258839D01*
X0251967Y0258994D01*
X0252005Y0259147D01*
X0252046Y0259300D01*
X0252091Y0259452D01*
X0252140Y0259603D01*
X0252193Y0259752D01*
X0252249Y0259900D01*
X0252309Y0260046D01*
X0252373Y0260191D01*
X0252441Y0260334D01*
X0252512Y0260476D01*
X0252586Y0260616D01*
X0252664Y0260753D01*
X0252746Y0260889D01*
X0252830Y0261023D01*
X0252919Y0261154D01*
X0253010Y0261283D01*
X0253105Y0261410D01*
X0253202Y0261535D01*
X0253303Y0261657D01*
X0253407Y0261776D01*
X0253514Y0261893D01*
X0253624Y0262007D01*
X0253737Y0262118D01*
X0253852Y0262227D01*
X0253970Y0262332D01*
X0254091Y0262434D01*
X0254214Y0262534D01*
X0254340Y0262630D01*
X0254468Y0262723D01*
X0254598Y0262813D01*
X0254731Y0262899D01*
X0254866Y0262983D01*
X0255002Y0263062D01*
X0255141Y0263139D01*
X0255282Y0263211D01*
X0255424Y0263281D01*
X0255568Y0263346D01*
X0255714Y0263408D01*
X0255861Y0263466D01*
X0256010Y0263521D01*
X0256160Y0263572D01*
X0256311Y0263619D01*
X0256463Y0263662D01*
X0256616Y0263701D01*
X0256771Y0263737D01*
X0256926Y0263768D01*
X0257082Y0263796D01*
X0257238Y0263820D01*
X0257395Y0263840D01*
X0257553Y0263856D01*
X0257710Y0263868D01*
X0257869Y0263876D01*
X0258027Y0263880D01*
X0258185Y0263880D01*
X0258343Y0263876D01*
X0258502Y0263868D01*
X0258659Y0263856D01*
X0258817Y0263840D01*
X0258974Y0263820D01*
X0259130Y0263796D01*
X0259286Y0263768D01*
X0259441Y0263737D01*
X0259596Y0263701D01*
X0259749Y0263662D01*
X0259901Y0263619D01*
X0260052Y0263572D01*
X0260202Y0263521D01*
X0260351Y0263466D01*
X0260498Y0263408D01*
X0260644Y0263346D01*
X0260788Y0263281D01*
X0260930Y0263211D01*
X0261071Y0263139D01*
X0261210Y0263062D01*
X0261346Y0262983D01*
X0261481Y0262899D01*
X0261614Y0262813D01*
X0261744Y0262723D01*
X0261872Y0262630D01*
X0261998Y0262534D01*
X0262121Y0262434D01*
X0262242Y0262332D01*
X0262360Y0262227D01*
X0262475Y0262118D01*
X0262588Y0262007D01*
X0262698Y0261893D01*
X0262805Y0261776D01*
X0262909Y0261657D01*
X0263010Y0261535D01*
X0263107Y0261410D01*
X0263202Y0261283D01*
X0263293Y0261154D01*
X0263382Y0261023D01*
X0263466Y0260889D01*
X0263548Y0260753D01*
X0263626Y0260616D01*
X0263700Y0260476D01*
X0263771Y0260334D01*
X0263839Y0260191D01*
X0263903Y0260046D01*
X0263963Y0259900D01*
X0264019Y0259752D01*
X0264072Y0259603D01*
X0264121Y0259452D01*
X0264166Y0259300D01*
X0264207Y0259147D01*
X0264245Y0258994D01*
X0264278Y0258839D01*
X0264308Y0258683D01*
X0264334Y0258527D01*
X0264355Y0258370D01*
X0264373Y0258213D01*
X0264387Y0258055D01*
X0264397Y0257897D01*
X0264403Y0257739D01*
X0264405Y0257581D01*
X0264403Y0257423D01*
X0264397Y0257265D01*
X0264387Y0257107D01*
X0264373Y0256949D01*
X0264355Y0256792D01*
X0264334Y0256635D01*
X0264308Y0256479D01*
X0264278Y0256323D01*
X0264245Y0256168D01*
X0264207Y0256015D01*
X0264166Y0255862D01*
X0264121Y0255710D01*
X0264072Y0255559D01*
X0264019Y0255410D01*
X0263963Y0255262D01*
X0263903Y0255116D01*
X0263839Y0254971D01*
X0263771Y0254828D01*
X0263700Y0254686D01*
X0263626Y0254546D01*
X0263548Y0254409D01*
X0263466Y0254273D01*
X0263382Y0254139D01*
X0263293Y0254008D01*
X0263202Y0253879D01*
X0263107Y0253752D01*
X0263010Y0253627D01*
X0262909Y0253505D01*
X0262805Y0253386D01*
X0262698Y0253269D01*
X0262588Y0253155D01*
X0262475Y0253044D01*
X0262360Y0252935D01*
X0262242Y0252830D01*
X0262121Y0252728D01*
X0261998Y0252628D01*
X0261872Y0252532D01*
X0261744Y0252439D01*
X0261614Y0252349D01*
X0261481Y0252263D01*
X0261346Y0252179D01*
X0261210Y0252100D01*
X0261071Y0252023D01*
X0260930Y0251951D01*
X0260788Y0251881D01*
X0260644Y0251816D01*
X0260498Y0251754D01*
X0260351Y0251696D01*
X0260202Y0251641D01*
X0260052Y0251590D01*
X0259901Y0251543D01*
X0259749Y0251500D01*
X0259596Y0251461D01*
X0259441Y0251425D01*
X0259286Y0251394D01*
X0259130Y0251366D01*
X0258974Y0251342D01*
X0258817Y0251322D01*
X0258659Y0251306D01*
X0258502Y0251294D01*
X0258343Y0251286D01*
X0258185Y0251282D01*
X0258027Y0251282D01*
X0257869Y0251286D01*
X0257710Y0251294D01*
X0257553Y0251306D01*
X0257395Y0251322D01*
X0257238Y0251342D01*
X0257082Y0251366D01*
X0256926Y0251394D01*
X0256771Y0251425D01*
X0256616Y0251461D01*
X0256463Y0251500D01*
X0256311Y0251543D01*
X0256160Y0251590D01*
X0256010Y0251641D01*
X0255861Y0251696D01*
X0255714Y0251754D01*
X0255568Y0251816D01*
X0255424Y0251881D01*
X0255282Y0251951D01*
X0255141Y0252023D01*
X0255002Y0252100D01*
X0254866Y0252179D01*
X0254731Y0252263D01*
X0254598Y0252349D01*
X0254468Y0252439D01*
X0254340Y0252532D01*
X0254214Y0252628D01*
X0254091Y0252728D01*
X0253970Y0252830D01*
X0253852Y0252935D01*
X0253737Y0253044D01*
X0253624Y0253155D01*
X0253514Y0253269D01*
X0253407Y0253386D01*
X0253303Y0253505D01*
X0253202Y0253627D01*
X0253105Y0253752D01*
X0253010Y0253879D01*
X0252919Y0254008D01*
X0252830Y0254139D01*
X0252746Y0254273D01*
X0252664Y0254409D01*
X0252586Y0254546D01*
X0252512Y0254686D01*
X0252441Y0254828D01*
X0252373Y0254971D01*
X0252309Y0255116D01*
X0252249Y0255262D01*
X0252193Y0255410D01*
X0252140Y0255559D01*
X0252091Y0255710D01*
X0252046Y0255862D01*
X0252005Y0256015D01*
X0251967Y0256168D01*
X0251934Y0256323D01*
X0251904Y0256479D01*
X0251878Y0256635D01*
X0251857Y0256792D01*
X0251839Y0256949D01*
X0251825Y0257107D01*
X0251815Y0257265D01*
X0251809Y0257423D01*
X0251807Y0257581D01*
X0015586Y0257581D02*
X0015588Y0257739D01*
X0015594Y0257897D01*
X0015604Y0258055D01*
X0015618Y0258213D01*
X0015636Y0258370D01*
X0015657Y0258527D01*
X0015683Y0258683D01*
X0015713Y0258839D01*
X0015746Y0258994D01*
X0015784Y0259147D01*
X0015825Y0259300D01*
X0015870Y0259452D01*
X0015919Y0259603D01*
X0015972Y0259752D01*
X0016028Y0259900D01*
X0016088Y0260046D01*
X0016152Y0260191D01*
X0016220Y0260334D01*
X0016291Y0260476D01*
X0016365Y0260616D01*
X0016443Y0260753D01*
X0016525Y0260889D01*
X0016609Y0261023D01*
X0016698Y0261154D01*
X0016789Y0261283D01*
X0016884Y0261410D01*
X0016981Y0261535D01*
X0017082Y0261657D01*
X0017186Y0261776D01*
X0017293Y0261893D01*
X0017403Y0262007D01*
X0017516Y0262118D01*
X0017631Y0262227D01*
X0017749Y0262332D01*
X0017870Y0262434D01*
X0017993Y0262534D01*
X0018119Y0262630D01*
X0018247Y0262723D01*
X0018377Y0262813D01*
X0018510Y0262899D01*
X0018645Y0262983D01*
X0018781Y0263062D01*
X0018920Y0263139D01*
X0019061Y0263211D01*
X0019203Y0263281D01*
X0019347Y0263346D01*
X0019493Y0263408D01*
X0019640Y0263466D01*
X0019789Y0263521D01*
X0019939Y0263572D01*
X0020090Y0263619D01*
X0020242Y0263662D01*
X0020395Y0263701D01*
X0020550Y0263737D01*
X0020705Y0263768D01*
X0020861Y0263796D01*
X0021017Y0263820D01*
X0021174Y0263840D01*
X0021332Y0263856D01*
X0021489Y0263868D01*
X0021648Y0263876D01*
X0021806Y0263880D01*
X0021964Y0263880D01*
X0022122Y0263876D01*
X0022281Y0263868D01*
X0022438Y0263856D01*
X0022596Y0263840D01*
X0022753Y0263820D01*
X0022909Y0263796D01*
X0023065Y0263768D01*
X0023220Y0263737D01*
X0023375Y0263701D01*
X0023528Y0263662D01*
X0023680Y0263619D01*
X0023831Y0263572D01*
X0023981Y0263521D01*
X0024130Y0263466D01*
X0024277Y0263408D01*
X0024423Y0263346D01*
X0024567Y0263281D01*
X0024709Y0263211D01*
X0024850Y0263139D01*
X0024989Y0263062D01*
X0025125Y0262983D01*
X0025260Y0262899D01*
X0025393Y0262813D01*
X0025523Y0262723D01*
X0025651Y0262630D01*
X0025777Y0262534D01*
X0025900Y0262434D01*
X0026021Y0262332D01*
X0026139Y0262227D01*
X0026254Y0262118D01*
X0026367Y0262007D01*
X0026477Y0261893D01*
X0026584Y0261776D01*
X0026688Y0261657D01*
X0026789Y0261535D01*
X0026886Y0261410D01*
X0026981Y0261283D01*
X0027072Y0261154D01*
X0027161Y0261023D01*
X0027245Y0260889D01*
X0027327Y0260753D01*
X0027405Y0260616D01*
X0027479Y0260476D01*
X0027550Y0260334D01*
X0027618Y0260191D01*
X0027682Y0260046D01*
X0027742Y0259900D01*
X0027798Y0259752D01*
X0027851Y0259603D01*
X0027900Y0259452D01*
X0027945Y0259300D01*
X0027986Y0259147D01*
X0028024Y0258994D01*
X0028057Y0258839D01*
X0028087Y0258683D01*
X0028113Y0258527D01*
X0028134Y0258370D01*
X0028152Y0258213D01*
X0028166Y0258055D01*
X0028176Y0257897D01*
X0028182Y0257739D01*
X0028184Y0257581D01*
X0028182Y0257423D01*
X0028176Y0257265D01*
X0028166Y0257107D01*
X0028152Y0256949D01*
X0028134Y0256792D01*
X0028113Y0256635D01*
X0028087Y0256479D01*
X0028057Y0256323D01*
X0028024Y0256168D01*
X0027986Y0256015D01*
X0027945Y0255862D01*
X0027900Y0255710D01*
X0027851Y0255559D01*
X0027798Y0255410D01*
X0027742Y0255262D01*
X0027682Y0255116D01*
X0027618Y0254971D01*
X0027550Y0254828D01*
X0027479Y0254686D01*
X0027405Y0254546D01*
X0027327Y0254409D01*
X0027245Y0254273D01*
X0027161Y0254139D01*
X0027072Y0254008D01*
X0026981Y0253879D01*
X0026886Y0253752D01*
X0026789Y0253627D01*
X0026688Y0253505D01*
X0026584Y0253386D01*
X0026477Y0253269D01*
X0026367Y0253155D01*
X0026254Y0253044D01*
X0026139Y0252935D01*
X0026021Y0252830D01*
X0025900Y0252728D01*
X0025777Y0252628D01*
X0025651Y0252532D01*
X0025523Y0252439D01*
X0025393Y0252349D01*
X0025260Y0252263D01*
X0025125Y0252179D01*
X0024989Y0252100D01*
X0024850Y0252023D01*
X0024709Y0251951D01*
X0024567Y0251881D01*
X0024423Y0251816D01*
X0024277Y0251754D01*
X0024130Y0251696D01*
X0023981Y0251641D01*
X0023831Y0251590D01*
X0023680Y0251543D01*
X0023528Y0251500D01*
X0023375Y0251461D01*
X0023220Y0251425D01*
X0023065Y0251394D01*
X0022909Y0251366D01*
X0022753Y0251342D01*
X0022596Y0251322D01*
X0022438Y0251306D01*
X0022281Y0251294D01*
X0022122Y0251286D01*
X0021964Y0251282D01*
X0021806Y0251282D01*
X0021648Y0251286D01*
X0021489Y0251294D01*
X0021332Y0251306D01*
X0021174Y0251322D01*
X0021017Y0251342D01*
X0020861Y0251366D01*
X0020705Y0251394D01*
X0020550Y0251425D01*
X0020395Y0251461D01*
X0020242Y0251500D01*
X0020090Y0251543D01*
X0019939Y0251590D01*
X0019789Y0251641D01*
X0019640Y0251696D01*
X0019493Y0251754D01*
X0019347Y0251816D01*
X0019203Y0251881D01*
X0019061Y0251951D01*
X0018920Y0252023D01*
X0018781Y0252100D01*
X0018645Y0252179D01*
X0018510Y0252263D01*
X0018377Y0252349D01*
X0018247Y0252439D01*
X0018119Y0252532D01*
X0017993Y0252628D01*
X0017870Y0252728D01*
X0017749Y0252830D01*
X0017631Y0252935D01*
X0017516Y0253044D01*
X0017403Y0253155D01*
X0017293Y0253269D01*
X0017186Y0253386D01*
X0017082Y0253505D01*
X0016981Y0253627D01*
X0016884Y0253752D01*
X0016789Y0253879D01*
X0016698Y0254008D01*
X0016609Y0254139D01*
X0016525Y0254273D01*
X0016443Y0254409D01*
X0016365Y0254546D01*
X0016291Y0254686D01*
X0016220Y0254828D01*
X0016152Y0254971D01*
X0016088Y0255116D01*
X0016028Y0255262D01*
X0015972Y0255410D01*
X0015919Y0255559D01*
X0015870Y0255710D01*
X0015825Y0255862D01*
X0015784Y0256015D01*
X0015746Y0256168D01*
X0015713Y0256323D01*
X0015683Y0256479D01*
X0015657Y0256635D01*
X0015636Y0256792D01*
X0015618Y0256949D01*
X0015604Y0257107D01*
X0015594Y0257265D01*
X0015588Y0257423D01*
X0015586Y0257581D01*
D11*
X0036700Y0234796D02*
X0036700Y0224796D01*
X0052700Y0224796D01*
X0052700Y0234796D01*
X0036700Y0234796D01*
X0038700Y0229796D02*
X0044700Y0229796D01*
X0044700Y0227296D01*
X0043700Y0227296D01*
X0044700Y0229796D02*
X0044700Y0232296D01*
X0044700Y0229796D02*
X0040700Y0227296D01*
X0040700Y0232296D01*
X0044700Y0229796D01*
X0047200Y0229796D01*
X0052700Y0223546D02*
X0052700Y0213546D01*
X0036700Y0213546D01*
X0036700Y0223546D01*
X0052700Y0223546D01*
X0047200Y0218546D02*
X0044700Y0218546D01*
X0044700Y0221046D01*
X0044700Y0218546D02*
X0044700Y0216046D01*
X0044700Y0218546D02*
X0040700Y0216046D01*
X0040700Y0221046D01*
X0044700Y0218546D01*
X0038700Y0218546D01*
X0034950Y0211046D02*
X0033950Y0210046D01*
X0033950Y0172046D01*
X0034950Y0171046D01*
X0046450Y0171046D01*
X0051450Y0171046D02*
X0051450Y0169546D01*
X0051452Y0169486D01*
X0051457Y0169425D01*
X0051466Y0169366D01*
X0051479Y0169307D01*
X0051495Y0169248D01*
X0051515Y0169191D01*
X0051538Y0169136D01*
X0051565Y0169081D01*
X0051594Y0169029D01*
X0051627Y0168978D01*
X0051663Y0168929D01*
X0051701Y0168883D01*
X0051743Y0168839D01*
X0051787Y0168797D01*
X0051833Y0168759D01*
X0051882Y0168723D01*
X0051933Y0168690D01*
X0051985Y0168661D01*
X0052040Y0168634D01*
X0052095Y0168611D01*
X0052152Y0168591D01*
X0052211Y0168575D01*
X0052270Y0168562D01*
X0052329Y0168553D01*
X0052390Y0168548D01*
X0052450Y0168546D01*
X0059450Y0168546D01*
X0059510Y0168548D01*
X0059571Y0168553D01*
X0059630Y0168562D01*
X0059689Y0168575D01*
X0059748Y0168591D01*
X0059805Y0168611D01*
X0059860Y0168634D01*
X0059915Y0168661D01*
X0059967Y0168690D01*
X0060018Y0168723D01*
X0060067Y0168759D01*
X0060113Y0168797D01*
X0060157Y0168839D01*
X0060199Y0168883D01*
X0060237Y0168929D01*
X0060273Y0168978D01*
X0060306Y0169029D01*
X0060335Y0169081D01*
X0060362Y0169136D01*
X0060385Y0169191D01*
X0060405Y0169248D01*
X0060421Y0169307D01*
X0060434Y0169366D01*
X0060443Y0169425D01*
X0060448Y0169486D01*
X0060450Y0169546D01*
X0060450Y0171046D01*
X0059950Y0171546D01*
X0059950Y0190546D01*
X0060450Y0191046D01*
X0060450Y0192546D01*
X0060448Y0192606D01*
X0060443Y0192667D01*
X0060434Y0192726D01*
X0060421Y0192785D01*
X0060405Y0192844D01*
X0060385Y0192901D01*
X0060362Y0192956D01*
X0060335Y0193011D01*
X0060306Y0193063D01*
X0060273Y0193114D01*
X0060237Y0193163D01*
X0060199Y0193209D01*
X0060157Y0193253D01*
X0060113Y0193295D01*
X0060067Y0193333D01*
X0060018Y0193369D01*
X0059967Y0193402D01*
X0059915Y0193431D01*
X0059860Y0193458D01*
X0059805Y0193481D01*
X0059748Y0193501D01*
X0059689Y0193517D01*
X0059630Y0193530D01*
X0059571Y0193539D01*
X0059510Y0193544D01*
X0059450Y0193546D01*
X0052450Y0193546D01*
X0052390Y0193544D01*
X0052329Y0193539D01*
X0052270Y0193530D01*
X0052211Y0193517D01*
X0052152Y0193501D01*
X0052095Y0193481D01*
X0052040Y0193458D01*
X0051985Y0193431D01*
X0051933Y0193402D01*
X0051882Y0193369D01*
X0051833Y0193333D01*
X0051787Y0193295D01*
X0051743Y0193253D01*
X0051701Y0193209D01*
X0051663Y0193163D01*
X0051627Y0193114D01*
X0051594Y0193063D01*
X0051565Y0193011D01*
X0051538Y0192956D01*
X0051515Y0192901D01*
X0051495Y0192844D01*
X0051479Y0192785D01*
X0051466Y0192726D01*
X0051457Y0192667D01*
X0051452Y0192606D01*
X0051450Y0192546D01*
X0051450Y0191046D01*
X0051950Y0190546D01*
X0051950Y0171546D01*
X0051450Y0171046D01*
X0072700Y0181046D02*
X0072700Y0182546D01*
X0072702Y0182606D01*
X0072707Y0182667D01*
X0072716Y0182726D01*
X0072729Y0182785D01*
X0072745Y0182844D01*
X0072765Y0182901D01*
X0072788Y0182956D01*
X0072815Y0183011D01*
X0072844Y0183063D01*
X0072877Y0183114D01*
X0072913Y0183163D01*
X0072951Y0183209D01*
X0072993Y0183253D01*
X0073037Y0183295D01*
X0073083Y0183333D01*
X0073132Y0183369D01*
X0073183Y0183402D01*
X0073235Y0183431D01*
X0073290Y0183458D01*
X0073345Y0183481D01*
X0073402Y0183501D01*
X0073461Y0183517D01*
X0073520Y0183530D01*
X0073579Y0183539D01*
X0073640Y0183544D01*
X0073700Y0183546D01*
X0080700Y0183546D01*
X0080760Y0183544D01*
X0080821Y0183539D01*
X0080880Y0183530D01*
X0080939Y0183517D01*
X0080998Y0183501D01*
X0081055Y0183481D01*
X0081110Y0183458D01*
X0081165Y0183431D01*
X0081217Y0183402D01*
X0081268Y0183369D01*
X0081317Y0183333D01*
X0081363Y0183295D01*
X0081407Y0183253D01*
X0081449Y0183209D01*
X0081487Y0183163D01*
X0081523Y0183114D01*
X0081556Y0183063D01*
X0081585Y0183011D01*
X0081612Y0182956D01*
X0081635Y0182901D01*
X0081655Y0182844D01*
X0081671Y0182785D01*
X0081684Y0182726D01*
X0081693Y0182667D01*
X0081698Y0182606D01*
X0081700Y0182546D01*
X0081700Y0181046D01*
X0081200Y0180546D01*
X0081200Y0161546D01*
X0081700Y0161046D01*
X0081700Y0159546D01*
X0081698Y0159486D01*
X0081693Y0159425D01*
X0081684Y0159366D01*
X0081671Y0159307D01*
X0081655Y0159248D01*
X0081635Y0159191D01*
X0081612Y0159136D01*
X0081585Y0159081D01*
X0081556Y0159029D01*
X0081523Y0158978D01*
X0081487Y0158929D01*
X0081449Y0158883D01*
X0081407Y0158839D01*
X0081363Y0158797D01*
X0081317Y0158759D01*
X0081268Y0158723D01*
X0081217Y0158690D01*
X0081165Y0158661D01*
X0081110Y0158634D01*
X0081055Y0158611D01*
X0080998Y0158591D01*
X0080939Y0158575D01*
X0080880Y0158562D01*
X0080821Y0158553D01*
X0080760Y0158548D01*
X0080700Y0158546D01*
X0073700Y0158546D01*
X0073640Y0158548D01*
X0073579Y0158553D01*
X0073520Y0158562D01*
X0073461Y0158575D01*
X0073402Y0158591D01*
X0073345Y0158611D01*
X0073290Y0158634D01*
X0073235Y0158661D01*
X0073183Y0158690D01*
X0073132Y0158723D01*
X0073083Y0158759D01*
X0073037Y0158797D01*
X0072993Y0158839D01*
X0072951Y0158883D01*
X0072913Y0158929D01*
X0072877Y0158978D01*
X0072844Y0159029D01*
X0072815Y0159081D01*
X0072788Y0159136D01*
X0072765Y0159191D01*
X0072745Y0159248D01*
X0072729Y0159307D01*
X0072716Y0159366D01*
X0072707Y0159425D01*
X0072702Y0159486D01*
X0072700Y0159546D01*
X0072700Y0161046D01*
X0073200Y0161546D01*
X0073200Y0180546D01*
X0072700Y0181046D01*
X0087700Y0172046D02*
X0087700Y0210046D01*
X0088700Y0211046D01*
X0100200Y0211046D01*
X0098450Y0216046D02*
X0098450Y0218546D01*
X0098450Y0221046D01*
X0098450Y0218546D02*
X0094450Y0216046D01*
X0094450Y0221046D01*
X0098450Y0218546D01*
X0092450Y0218546D01*
X0090450Y0223546D02*
X0090450Y0213546D01*
X0106450Y0213546D01*
X0106450Y0223546D01*
X0090450Y0223546D01*
X0090450Y0224796D02*
X0106450Y0224796D01*
X0106450Y0234796D01*
X0090450Y0234796D01*
X0090450Y0224796D01*
X0094450Y0227296D02*
X0098450Y0229796D01*
X0098450Y0227296D01*
X0097450Y0227296D01*
X0098450Y0229796D02*
X0098450Y0232296D01*
X0098450Y0229796D02*
X0092450Y0229796D01*
X0094450Y0227296D02*
X0094450Y0232296D01*
X0098450Y0229796D01*
X0100950Y0229796D01*
X0100950Y0218546D02*
X0098450Y0218546D01*
X0106200Y0193546D02*
X0113200Y0193546D01*
X0113260Y0193544D01*
X0113321Y0193539D01*
X0113380Y0193530D01*
X0113439Y0193517D01*
X0113498Y0193501D01*
X0113555Y0193481D01*
X0113610Y0193458D01*
X0113665Y0193431D01*
X0113717Y0193402D01*
X0113768Y0193369D01*
X0113817Y0193333D01*
X0113863Y0193295D01*
X0113907Y0193253D01*
X0113949Y0193209D01*
X0113987Y0193163D01*
X0114023Y0193114D01*
X0114056Y0193063D01*
X0114085Y0193011D01*
X0114112Y0192956D01*
X0114135Y0192901D01*
X0114155Y0192844D01*
X0114171Y0192785D01*
X0114184Y0192726D01*
X0114193Y0192667D01*
X0114198Y0192606D01*
X0114200Y0192546D01*
X0114200Y0191046D01*
X0113700Y0190546D01*
X0113700Y0171546D01*
X0114200Y0171046D01*
X0114200Y0169546D01*
X0114198Y0169486D01*
X0114193Y0169425D01*
X0114184Y0169366D01*
X0114171Y0169307D01*
X0114155Y0169248D01*
X0114135Y0169191D01*
X0114112Y0169136D01*
X0114085Y0169081D01*
X0114056Y0169029D01*
X0114023Y0168978D01*
X0113987Y0168929D01*
X0113949Y0168883D01*
X0113907Y0168839D01*
X0113863Y0168797D01*
X0113817Y0168759D01*
X0113768Y0168723D01*
X0113717Y0168690D01*
X0113665Y0168661D01*
X0113610Y0168634D01*
X0113555Y0168611D01*
X0113498Y0168591D01*
X0113439Y0168575D01*
X0113380Y0168562D01*
X0113321Y0168553D01*
X0113260Y0168548D01*
X0113200Y0168546D01*
X0106200Y0168546D01*
X0106140Y0168548D01*
X0106079Y0168553D01*
X0106020Y0168562D01*
X0105961Y0168575D01*
X0105902Y0168591D01*
X0105845Y0168611D01*
X0105790Y0168634D01*
X0105735Y0168661D01*
X0105683Y0168690D01*
X0105632Y0168723D01*
X0105583Y0168759D01*
X0105537Y0168797D01*
X0105493Y0168839D01*
X0105451Y0168883D01*
X0105413Y0168929D01*
X0105377Y0168978D01*
X0105344Y0169029D01*
X0105315Y0169081D01*
X0105288Y0169136D01*
X0105265Y0169191D01*
X0105245Y0169248D01*
X0105229Y0169307D01*
X0105216Y0169366D01*
X0105207Y0169425D01*
X0105202Y0169486D01*
X0105200Y0169546D01*
X0105200Y0171046D01*
X0105700Y0171546D01*
X0105700Y0190546D01*
X0105200Y0191046D01*
X0105200Y0192546D01*
X0105202Y0192606D01*
X0105207Y0192667D01*
X0105216Y0192726D01*
X0105229Y0192785D01*
X0105245Y0192844D01*
X0105265Y0192901D01*
X0105288Y0192956D01*
X0105315Y0193011D01*
X0105344Y0193063D01*
X0105377Y0193114D01*
X0105413Y0193163D01*
X0105451Y0193209D01*
X0105493Y0193253D01*
X0105537Y0193295D01*
X0105583Y0193333D01*
X0105632Y0193369D01*
X0105683Y0193402D01*
X0105735Y0193431D01*
X0105790Y0193458D01*
X0105845Y0193481D01*
X0105902Y0193501D01*
X0105961Y0193517D01*
X0106020Y0193530D01*
X0106079Y0193539D01*
X0106140Y0193544D01*
X0106200Y0193546D01*
X0100200Y0171046D02*
X0088700Y0171046D01*
X0087700Y0172046D01*
X0066950Y0128546D02*
X0059950Y0128546D01*
X0059890Y0128544D01*
X0059829Y0128539D01*
X0059770Y0128530D01*
X0059711Y0128517D01*
X0059652Y0128501D01*
X0059595Y0128481D01*
X0059540Y0128458D01*
X0059485Y0128431D01*
X0059433Y0128402D01*
X0059382Y0128369D01*
X0059333Y0128333D01*
X0059287Y0128295D01*
X0059243Y0128253D01*
X0059201Y0128209D01*
X0059163Y0128163D01*
X0059127Y0128114D01*
X0059094Y0128063D01*
X0059065Y0128011D01*
X0059038Y0127956D01*
X0059015Y0127901D01*
X0058995Y0127844D01*
X0058979Y0127785D01*
X0058966Y0127726D01*
X0058957Y0127667D01*
X0058952Y0127606D01*
X0058950Y0127546D01*
X0058950Y0126046D01*
X0059450Y0125546D01*
X0059450Y0106546D01*
X0058950Y0106046D01*
X0058950Y0104546D01*
X0058952Y0104486D01*
X0058957Y0104425D01*
X0058966Y0104366D01*
X0058979Y0104307D01*
X0058995Y0104248D01*
X0059015Y0104191D01*
X0059038Y0104136D01*
X0059065Y0104081D01*
X0059094Y0104029D01*
X0059127Y0103978D01*
X0059163Y0103929D01*
X0059201Y0103883D01*
X0059243Y0103839D01*
X0059287Y0103797D01*
X0059333Y0103759D01*
X0059382Y0103723D01*
X0059433Y0103690D01*
X0059485Y0103661D01*
X0059540Y0103634D01*
X0059595Y0103611D01*
X0059652Y0103591D01*
X0059711Y0103575D01*
X0059770Y0103562D01*
X0059829Y0103553D01*
X0059890Y0103548D01*
X0059950Y0103546D01*
X0066950Y0103546D01*
X0067010Y0103548D01*
X0067071Y0103553D01*
X0067130Y0103562D01*
X0067189Y0103575D01*
X0067248Y0103591D01*
X0067305Y0103611D01*
X0067360Y0103634D01*
X0067415Y0103661D01*
X0067467Y0103690D01*
X0067518Y0103723D01*
X0067567Y0103759D01*
X0067613Y0103797D01*
X0067657Y0103839D01*
X0067699Y0103883D01*
X0067737Y0103929D01*
X0067773Y0103978D01*
X0067806Y0104029D01*
X0067835Y0104081D01*
X0067862Y0104136D01*
X0067885Y0104191D01*
X0067905Y0104248D01*
X0067921Y0104307D01*
X0067934Y0104366D01*
X0067943Y0104425D01*
X0067948Y0104486D01*
X0067950Y0104546D01*
X0067950Y0106046D01*
X0067450Y0106546D01*
X0067450Y0125546D01*
X0067950Y0126046D01*
X0067950Y0127546D01*
X0067948Y0127606D01*
X0067943Y0127667D01*
X0067934Y0127726D01*
X0067921Y0127785D01*
X0067905Y0127844D01*
X0067885Y0127901D01*
X0067862Y0127956D01*
X0067835Y0128011D01*
X0067806Y0128063D01*
X0067773Y0128114D01*
X0067737Y0128163D01*
X0067699Y0128209D01*
X0067657Y0128253D01*
X0067613Y0128295D01*
X0067567Y0128333D01*
X0067518Y0128369D01*
X0067467Y0128402D01*
X0067415Y0128431D01*
X0067360Y0128458D01*
X0067305Y0128481D01*
X0067248Y0128501D01*
X0067189Y0128517D01*
X0067130Y0128530D01*
X0067071Y0128539D01*
X0067010Y0128544D01*
X0066950Y0128546D01*
X0070450Y0125046D02*
X0074350Y0125046D01*
X0070450Y0125046D02*
X0070450Y0097046D01*
X0074350Y0097046D01*
X0082550Y0097046D02*
X0084350Y0097046D01*
X0092550Y0097046D02*
X0094350Y0097046D01*
X0102550Y0097046D02*
X0104350Y0097046D01*
X0112550Y0097046D02*
X0114350Y0097046D01*
X0122550Y0097046D02*
X0124350Y0097046D01*
X0132550Y0097046D02*
X0134350Y0097046D01*
X0142550Y0097046D02*
X0144350Y0097046D01*
X0152550Y0097046D02*
X0154350Y0097046D01*
X0162550Y0097046D02*
X0164350Y0097046D01*
X0172550Y0097046D02*
X0176450Y0097046D01*
X0176450Y0109846D01*
X0176450Y0112246D01*
X0176450Y0125046D01*
X0172750Y0125046D01*
X0178950Y0117546D02*
X0178950Y0104546D01*
X0178952Y0104459D01*
X0178958Y0104372D01*
X0178967Y0104285D01*
X0178980Y0104199D01*
X0178997Y0104113D01*
X0179018Y0104028D01*
X0179043Y0103945D01*
X0179071Y0103862D01*
X0179102Y0103781D01*
X0179137Y0103701D01*
X0179176Y0103623D01*
X0179218Y0103546D01*
X0179263Y0103471D01*
X0179312Y0103399D01*
X0179363Y0103328D01*
X0179418Y0103260D01*
X0179475Y0103195D01*
X0179536Y0103132D01*
X0179599Y0103071D01*
X0179664Y0103014D01*
X0179732Y0102959D01*
X0179803Y0102908D01*
X0179875Y0102859D01*
X0179950Y0102814D01*
X0180027Y0102772D01*
X0180105Y0102733D01*
X0180185Y0102698D01*
X0180266Y0102667D01*
X0180349Y0102639D01*
X0180432Y0102614D01*
X0180517Y0102593D01*
X0180603Y0102576D01*
X0180689Y0102563D01*
X0180776Y0102554D01*
X0180863Y0102548D01*
X0180950Y0102546D01*
X0183450Y0106046D02*
X0183450Y0109746D01*
X0183450Y0112246D02*
X0183450Y0116046D01*
X0180950Y0119546D02*
X0180863Y0119544D01*
X0180776Y0119538D01*
X0180689Y0119529D01*
X0180603Y0119516D01*
X0180517Y0119499D01*
X0180432Y0119478D01*
X0180349Y0119453D01*
X0180266Y0119425D01*
X0180185Y0119394D01*
X0180105Y0119359D01*
X0180027Y0119320D01*
X0179950Y0119278D01*
X0179875Y0119233D01*
X0179803Y0119184D01*
X0179732Y0119133D01*
X0179664Y0119078D01*
X0179599Y0119021D01*
X0179536Y0118960D01*
X0179475Y0118897D01*
X0179418Y0118832D01*
X0179363Y0118764D01*
X0179312Y0118693D01*
X0179263Y0118621D01*
X0179218Y0118546D01*
X0179176Y0118469D01*
X0179137Y0118391D01*
X0179102Y0118311D01*
X0179071Y0118230D01*
X0179043Y0118147D01*
X0179018Y0118064D01*
X0178997Y0117979D01*
X0178980Y0117893D01*
X0178967Y0117807D01*
X0178958Y0117720D01*
X0178952Y0117633D01*
X0178950Y0117546D01*
X0185950Y0119546D02*
X0186037Y0119544D01*
X0186124Y0119538D01*
X0186211Y0119529D01*
X0186297Y0119516D01*
X0186383Y0119499D01*
X0186468Y0119478D01*
X0186551Y0119453D01*
X0186634Y0119425D01*
X0186715Y0119394D01*
X0186795Y0119359D01*
X0186873Y0119320D01*
X0186950Y0119278D01*
X0187025Y0119233D01*
X0187097Y0119184D01*
X0187168Y0119133D01*
X0187236Y0119078D01*
X0187301Y0119021D01*
X0187364Y0118960D01*
X0187425Y0118897D01*
X0187482Y0118832D01*
X0187537Y0118764D01*
X0187588Y0118693D01*
X0187637Y0118621D01*
X0187682Y0118546D01*
X0187724Y0118469D01*
X0187763Y0118391D01*
X0187798Y0118311D01*
X0187829Y0118230D01*
X0187857Y0118147D01*
X0187882Y0118064D01*
X0187903Y0117979D01*
X0187920Y0117893D01*
X0187933Y0117807D01*
X0187942Y0117720D01*
X0187948Y0117633D01*
X0187950Y0117546D01*
X0187950Y0104546D01*
X0187948Y0104459D01*
X0187942Y0104372D01*
X0187933Y0104285D01*
X0187920Y0104199D01*
X0187903Y0104113D01*
X0187882Y0104028D01*
X0187857Y0103945D01*
X0187829Y0103862D01*
X0187798Y0103781D01*
X0187763Y0103701D01*
X0187724Y0103623D01*
X0187682Y0103546D01*
X0187637Y0103471D01*
X0187588Y0103399D01*
X0187537Y0103328D01*
X0187482Y0103260D01*
X0187425Y0103195D01*
X0187364Y0103132D01*
X0187301Y0103071D01*
X0187236Y0103014D01*
X0187168Y0102959D01*
X0187097Y0102908D01*
X0187025Y0102859D01*
X0186950Y0102814D01*
X0186873Y0102772D01*
X0186795Y0102733D01*
X0186715Y0102698D01*
X0186634Y0102667D01*
X0186551Y0102639D01*
X0186468Y0102614D01*
X0186383Y0102593D01*
X0186297Y0102576D01*
X0186211Y0102563D01*
X0186124Y0102554D01*
X0186037Y0102548D01*
X0185950Y0102546D01*
X0202200Y0103546D02*
X0202200Y0108546D01*
X0204700Y0111046D01*
X0202200Y0113546D01*
X0202200Y0118546D01*
X0204700Y0121046D01*
X0202200Y0123546D01*
X0202200Y0128546D01*
X0204700Y0131046D01*
X0202200Y0133546D01*
X0202200Y0138546D01*
X0204700Y0141046D01*
X0209700Y0141046D01*
X0212200Y0138546D01*
X0212200Y0133546D01*
X0209700Y0131046D01*
X0212200Y0128546D01*
X0212200Y0123546D01*
X0209700Y0121046D01*
X0204700Y0121046D01*
X0209700Y0121046D02*
X0212200Y0118546D01*
X0212200Y0113546D01*
X0209700Y0111046D01*
X0212200Y0108546D01*
X0212200Y0103546D01*
X0209700Y0101046D01*
X0212200Y0098546D01*
X0212200Y0093546D01*
X0209700Y0091046D01*
X0212200Y0088546D01*
X0212200Y0083546D01*
X0209700Y0081046D01*
X0204700Y0081046D01*
X0202200Y0083546D01*
X0202200Y0088546D01*
X0204700Y0091046D01*
X0202200Y0093546D01*
X0202200Y0098546D01*
X0204700Y0101046D01*
X0202200Y0103546D01*
X0204700Y0101046D02*
X0209700Y0101046D01*
X0209700Y0091046D02*
X0204700Y0091046D01*
X0204700Y0111046D02*
X0209700Y0111046D01*
X0209700Y0131046D02*
X0204700Y0131046D01*
X0220950Y0138796D02*
X0220950Y0145796D01*
X0220952Y0145856D01*
X0220957Y0145917D01*
X0220966Y0145976D01*
X0220979Y0146035D01*
X0220995Y0146094D01*
X0221015Y0146151D01*
X0221038Y0146206D01*
X0221065Y0146261D01*
X0221094Y0146313D01*
X0221127Y0146364D01*
X0221163Y0146413D01*
X0221201Y0146459D01*
X0221243Y0146503D01*
X0221287Y0146545D01*
X0221333Y0146583D01*
X0221382Y0146619D01*
X0221433Y0146652D01*
X0221485Y0146681D01*
X0221540Y0146708D01*
X0221595Y0146731D01*
X0221652Y0146751D01*
X0221711Y0146767D01*
X0221770Y0146780D01*
X0221829Y0146789D01*
X0221890Y0146794D01*
X0221950Y0146796D01*
X0223450Y0146796D01*
X0223950Y0146296D01*
X0242950Y0146296D01*
X0243450Y0146796D01*
X0244950Y0146796D01*
X0245010Y0146794D01*
X0245071Y0146789D01*
X0245130Y0146780D01*
X0245189Y0146767D01*
X0245248Y0146751D01*
X0245305Y0146731D01*
X0245360Y0146708D01*
X0245415Y0146681D01*
X0245467Y0146652D01*
X0245518Y0146619D01*
X0245567Y0146583D01*
X0245613Y0146545D01*
X0245657Y0146503D01*
X0245699Y0146459D01*
X0245737Y0146413D01*
X0245773Y0146364D01*
X0245806Y0146313D01*
X0245835Y0146261D01*
X0245862Y0146206D01*
X0245885Y0146151D01*
X0245905Y0146094D01*
X0245921Y0146035D01*
X0245934Y0145976D01*
X0245943Y0145917D01*
X0245948Y0145856D01*
X0245950Y0145796D01*
X0245950Y0138796D01*
X0245948Y0138736D01*
X0245943Y0138675D01*
X0245934Y0138616D01*
X0245921Y0138557D01*
X0245905Y0138498D01*
X0245885Y0138441D01*
X0245862Y0138386D01*
X0245835Y0138331D01*
X0245806Y0138279D01*
X0245773Y0138228D01*
X0245737Y0138179D01*
X0245699Y0138133D01*
X0245657Y0138089D01*
X0245613Y0138047D01*
X0245567Y0138009D01*
X0245518Y0137973D01*
X0245467Y0137940D01*
X0245415Y0137911D01*
X0245360Y0137884D01*
X0245305Y0137861D01*
X0245248Y0137841D01*
X0245189Y0137825D01*
X0245130Y0137812D01*
X0245071Y0137803D01*
X0245010Y0137798D01*
X0244950Y0137796D01*
X0243450Y0137796D01*
X0242950Y0138296D01*
X0223950Y0138296D01*
X0223450Y0137796D01*
X0221950Y0137796D01*
X0221890Y0137798D01*
X0221829Y0137803D01*
X0221770Y0137812D01*
X0221711Y0137825D01*
X0221652Y0137841D01*
X0221595Y0137861D01*
X0221540Y0137884D01*
X0221485Y0137911D01*
X0221433Y0137940D01*
X0221382Y0137973D01*
X0221333Y0138009D01*
X0221287Y0138047D01*
X0221243Y0138089D01*
X0221201Y0138133D01*
X0221163Y0138179D01*
X0221127Y0138228D01*
X0221094Y0138279D01*
X0221065Y0138331D01*
X0221038Y0138386D01*
X0221015Y0138441D01*
X0220995Y0138498D01*
X0220979Y0138557D01*
X0220966Y0138616D01*
X0220957Y0138675D01*
X0220952Y0138736D01*
X0220950Y0138796D01*
X0248950Y0125796D02*
X0248950Y0122296D01*
X0248950Y0112796D01*
X0248950Y0108796D01*
X0256950Y0105296D02*
X0257950Y0105296D01*
X0257950Y0104296D01*
X0263950Y0104296D01*
X0263950Y0105296D01*
X0264950Y0105296D01*
X0272950Y0108796D02*
X0272950Y0112296D01*
X0272950Y0122296D01*
X0272950Y0125796D01*
X0264950Y0129296D02*
X0263950Y0129296D01*
X0263950Y0130296D01*
X0257950Y0130296D01*
X0257950Y0129296D01*
X0256950Y0129296D01*
X0259950Y0117296D02*
X0259952Y0117359D01*
X0259958Y0117421D01*
X0259968Y0117483D01*
X0259981Y0117545D01*
X0259999Y0117605D01*
X0260020Y0117664D01*
X0260045Y0117722D01*
X0260074Y0117778D01*
X0260106Y0117832D01*
X0260141Y0117884D01*
X0260179Y0117933D01*
X0260221Y0117981D01*
X0260265Y0118025D01*
X0260313Y0118067D01*
X0260362Y0118105D01*
X0260414Y0118140D01*
X0260468Y0118172D01*
X0260524Y0118201D01*
X0260582Y0118226D01*
X0260641Y0118247D01*
X0260701Y0118265D01*
X0260763Y0118278D01*
X0260825Y0118288D01*
X0260887Y0118294D01*
X0260950Y0118296D01*
X0261013Y0118294D01*
X0261075Y0118288D01*
X0261137Y0118278D01*
X0261199Y0118265D01*
X0261259Y0118247D01*
X0261318Y0118226D01*
X0261376Y0118201D01*
X0261432Y0118172D01*
X0261486Y0118140D01*
X0261538Y0118105D01*
X0261587Y0118067D01*
X0261635Y0118025D01*
X0261679Y0117981D01*
X0261721Y0117933D01*
X0261759Y0117884D01*
X0261794Y0117832D01*
X0261826Y0117778D01*
X0261855Y0117722D01*
X0261880Y0117664D01*
X0261901Y0117605D01*
X0261919Y0117545D01*
X0261932Y0117483D01*
X0261942Y0117421D01*
X0261948Y0117359D01*
X0261950Y0117296D01*
X0261948Y0117233D01*
X0261942Y0117171D01*
X0261932Y0117109D01*
X0261919Y0117047D01*
X0261901Y0116987D01*
X0261880Y0116928D01*
X0261855Y0116870D01*
X0261826Y0116814D01*
X0261794Y0116760D01*
X0261759Y0116708D01*
X0261721Y0116659D01*
X0261679Y0116611D01*
X0261635Y0116567D01*
X0261587Y0116525D01*
X0261538Y0116487D01*
X0261486Y0116452D01*
X0261432Y0116420D01*
X0261376Y0116391D01*
X0261318Y0116366D01*
X0261259Y0116345D01*
X0261199Y0116327D01*
X0261137Y0116314D01*
X0261075Y0116304D01*
X0261013Y0116298D01*
X0260950Y0116296D01*
X0260887Y0116298D01*
X0260825Y0116304D01*
X0260763Y0116314D01*
X0260701Y0116327D01*
X0260641Y0116345D01*
X0260582Y0116366D01*
X0260524Y0116391D01*
X0260468Y0116420D01*
X0260414Y0116452D01*
X0260362Y0116487D01*
X0260313Y0116525D01*
X0260265Y0116567D01*
X0260221Y0116611D01*
X0260179Y0116659D01*
X0260141Y0116708D01*
X0260106Y0116760D01*
X0260074Y0116814D01*
X0260045Y0116870D01*
X0260020Y0116928D01*
X0259999Y0116987D01*
X0259981Y0117047D01*
X0259968Y0117109D01*
X0259958Y0117171D01*
X0259952Y0117233D01*
X0259950Y0117296D01*
X0253950Y0117296D02*
X0253952Y0117468D01*
X0253958Y0117639D01*
X0253969Y0117811D01*
X0253984Y0117982D01*
X0254003Y0118153D01*
X0254026Y0118323D01*
X0254053Y0118493D01*
X0254085Y0118662D01*
X0254120Y0118830D01*
X0254160Y0118997D01*
X0254204Y0119163D01*
X0254251Y0119328D01*
X0254303Y0119492D01*
X0254359Y0119654D01*
X0254419Y0119815D01*
X0254483Y0119975D01*
X0254551Y0120133D01*
X0254622Y0120289D01*
X0254697Y0120443D01*
X0254777Y0120596D01*
X0254859Y0120746D01*
X0254946Y0120895D01*
X0255036Y0121041D01*
X0255130Y0121185D01*
X0255227Y0121327D01*
X0255328Y0121466D01*
X0255432Y0121603D01*
X0255539Y0121737D01*
X0255650Y0121868D01*
X0255763Y0121997D01*
X0255880Y0122123D01*
X0256000Y0122246D01*
X0256123Y0122366D01*
X0256249Y0122483D01*
X0256378Y0122596D01*
X0256509Y0122707D01*
X0256643Y0122814D01*
X0256780Y0122918D01*
X0256919Y0123019D01*
X0257061Y0123116D01*
X0257205Y0123210D01*
X0257351Y0123300D01*
X0257500Y0123387D01*
X0257650Y0123469D01*
X0257803Y0123549D01*
X0257957Y0123624D01*
X0258113Y0123695D01*
X0258271Y0123763D01*
X0258431Y0123827D01*
X0258592Y0123887D01*
X0258754Y0123943D01*
X0258918Y0123995D01*
X0259083Y0124042D01*
X0259249Y0124086D01*
X0259416Y0124126D01*
X0259584Y0124161D01*
X0259753Y0124193D01*
X0259923Y0124220D01*
X0260093Y0124243D01*
X0260264Y0124262D01*
X0260435Y0124277D01*
X0260607Y0124288D01*
X0260778Y0124294D01*
X0260950Y0124296D01*
X0261122Y0124294D01*
X0261293Y0124288D01*
X0261465Y0124277D01*
X0261636Y0124262D01*
X0261807Y0124243D01*
X0261977Y0124220D01*
X0262147Y0124193D01*
X0262316Y0124161D01*
X0262484Y0124126D01*
X0262651Y0124086D01*
X0262817Y0124042D01*
X0262982Y0123995D01*
X0263146Y0123943D01*
X0263308Y0123887D01*
X0263469Y0123827D01*
X0263629Y0123763D01*
X0263787Y0123695D01*
X0263943Y0123624D01*
X0264097Y0123549D01*
X0264250Y0123469D01*
X0264400Y0123387D01*
X0264549Y0123300D01*
X0264695Y0123210D01*
X0264839Y0123116D01*
X0264981Y0123019D01*
X0265120Y0122918D01*
X0265257Y0122814D01*
X0265391Y0122707D01*
X0265522Y0122596D01*
X0265651Y0122483D01*
X0265777Y0122366D01*
X0265900Y0122246D01*
X0266020Y0122123D01*
X0266137Y0121997D01*
X0266250Y0121868D01*
X0266361Y0121737D01*
X0266468Y0121603D01*
X0266572Y0121466D01*
X0266673Y0121327D01*
X0266770Y0121185D01*
X0266864Y0121041D01*
X0266954Y0120895D01*
X0267041Y0120746D01*
X0267123Y0120596D01*
X0267203Y0120443D01*
X0267278Y0120289D01*
X0267349Y0120133D01*
X0267417Y0119975D01*
X0267481Y0119815D01*
X0267541Y0119654D01*
X0267597Y0119492D01*
X0267649Y0119328D01*
X0267696Y0119163D01*
X0267740Y0118997D01*
X0267780Y0118830D01*
X0267815Y0118662D01*
X0267847Y0118493D01*
X0267874Y0118323D01*
X0267897Y0118153D01*
X0267916Y0117982D01*
X0267931Y0117811D01*
X0267942Y0117639D01*
X0267948Y0117468D01*
X0267950Y0117296D01*
X0267948Y0117124D01*
X0267942Y0116953D01*
X0267931Y0116781D01*
X0267916Y0116610D01*
X0267897Y0116439D01*
X0267874Y0116269D01*
X0267847Y0116099D01*
X0267815Y0115930D01*
X0267780Y0115762D01*
X0267740Y0115595D01*
X0267696Y0115429D01*
X0267649Y0115264D01*
X0267597Y0115100D01*
X0267541Y0114938D01*
X0267481Y0114777D01*
X0267417Y0114617D01*
X0267349Y0114459D01*
X0267278Y0114303D01*
X0267203Y0114149D01*
X0267123Y0113996D01*
X0267041Y0113846D01*
X0266954Y0113697D01*
X0266864Y0113551D01*
X0266770Y0113407D01*
X0266673Y0113265D01*
X0266572Y0113126D01*
X0266468Y0112989D01*
X0266361Y0112855D01*
X0266250Y0112724D01*
X0266137Y0112595D01*
X0266020Y0112469D01*
X0265900Y0112346D01*
X0265777Y0112226D01*
X0265651Y0112109D01*
X0265522Y0111996D01*
X0265391Y0111885D01*
X0265257Y0111778D01*
X0265120Y0111674D01*
X0264981Y0111573D01*
X0264839Y0111476D01*
X0264695Y0111382D01*
X0264549Y0111292D01*
X0264400Y0111205D01*
X0264250Y0111123D01*
X0264097Y0111043D01*
X0263943Y0110968D01*
X0263787Y0110897D01*
X0263629Y0110829D01*
X0263469Y0110765D01*
X0263308Y0110705D01*
X0263146Y0110649D01*
X0262982Y0110597D01*
X0262817Y0110550D01*
X0262651Y0110506D01*
X0262484Y0110466D01*
X0262316Y0110431D01*
X0262147Y0110399D01*
X0261977Y0110372D01*
X0261807Y0110349D01*
X0261636Y0110330D01*
X0261465Y0110315D01*
X0261293Y0110304D01*
X0261122Y0110298D01*
X0260950Y0110296D01*
X0260778Y0110298D01*
X0260607Y0110304D01*
X0260435Y0110315D01*
X0260264Y0110330D01*
X0260093Y0110349D01*
X0259923Y0110372D01*
X0259753Y0110399D01*
X0259584Y0110431D01*
X0259416Y0110466D01*
X0259249Y0110506D01*
X0259083Y0110550D01*
X0258918Y0110597D01*
X0258754Y0110649D01*
X0258592Y0110705D01*
X0258431Y0110765D01*
X0258271Y0110829D01*
X0258113Y0110897D01*
X0257957Y0110968D01*
X0257803Y0111043D01*
X0257650Y0111123D01*
X0257500Y0111205D01*
X0257351Y0111292D01*
X0257205Y0111382D01*
X0257061Y0111476D01*
X0256919Y0111573D01*
X0256780Y0111674D01*
X0256643Y0111778D01*
X0256509Y0111885D01*
X0256378Y0111996D01*
X0256249Y0112109D01*
X0256123Y0112226D01*
X0256000Y0112346D01*
X0255880Y0112469D01*
X0255763Y0112595D01*
X0255650Y0112724D01*
X0255539Y0112855D01*
X0255432Y0112989D01*
X0255328Y0113126D01*
X0255227Y0113265D01*
X0255130Y0113407D01*
X0255036Y0113551D01*
X0254946Y0113697D01*
X0254859Y0113846D01*
X0254777Y0113996D01*
X0254697Y0114149D01*
X0254622Y0114303D01*
X0254551Y0114459D01*
X0254483Y0114617D01*
X0254419Y0114777D01*
X0254359Y0114938D01*
X0254303Y0115100D01*
X0254251Y0115264D01*
X0254204Y0115429D01*
X0254160Y0115595D01*
X0254120Y0115762D01*
X0254085Y0115930D01*
X0254053Y0116099D01*
X0254026Y0116269D01*
X0254003Y0116439D01*
X0253984Y0116610D01*
X0253969Y0116781D01*
X0253958Y0116953D01*
X0253952Y0117124D01*
X0253950Y0117296D01*
X0246950Y0166046D02*
X0239950Y0166046D01*
X0239890Y0166048D01*
X0239829Y0166053D01*
X0239770Y0166062D01*
X0239711Y0166075D01*
X0239652Y0166091D01*
X0239595Y0166111D01*
X0239540Y0166134D01*
X0239485Y0166161D01*
X0239433Y0166190D01*
X0239382Y0166223D01*
X0239333Y0166259D01*
X0239287Y0166297D01*
X0239243Y0166339D01*
X0239201Y0166383D01*
X0239163Y0166429D01*
X0239127Y0166478D01*
X0239094Y0166529D01*
X0239065Y0166581D01*
X0239038Y0166636D01*
X0239015Y0166691D01*
X0238995Y0166748D01*
X0238979Y0166807D01*
X0238966Y0166866D01*
X0238957Y0166925D01*
X0238952Y0166986D01*
X0238950Y0167046D01*
X0238950Y0168546D01*
X0239450Y0169046D01*
X0239450Y0188046D01*
X0238950Y0188546D01*
X0238950Y0190046D01*
X0238952Y0190106D01*
X0238957Y0190167D01*
X0238966Y0190226D01*
X0238979Y0190285D01*
X0238995Y0190344D01*
X0239015Y0190401D01*
X0239038Y0190456D01*
X0239065Y0190511D01*
X0239094Y0190563D01*
X0239127Y0190614D01*
X0239163Y0190663D01*
X0239201Y0190709D01*
X0239243Y0190753D01*
X0239287Y0190795D01*
X0239333Y0190833D01*
X0239382Y0190869D01*
X0239433Y0190902D01*
X0239485Y0190931D01*
X0239540Y0190958D01*
X0239595Y0190981D01*
X0239652Y0191001D01*
X0239711Y0191017D01*
X0239770Y0191030D01*
X0239829Y0191039D01*
X0239890Y0191044D01*
X0239950Y0191046D01*
X0246950Y0191046D01*
X0247010Y0191044D01*
X0247071Y0191039D01*
X0247130Y0191030D01*
X0247189Y0191017D01*
X0247248Y0191001D01*
X0247305Y0190981D01*
X0247360Y0190958D01*
X0247415Y0190931D01*
X0247467Y0190902D01*
X0247518Y0190869D01*
X0247567Y0190833D01*
X0247613Y0190795D01*
X0247657Y0190753D01*
X0247699Y0190709D01*
X0247737Y0190663D01*
X0247773Y0190614D01*
X0247806Y0190563D01*
X0247835Y0190511D01*
X0247862Y0190456D01*
X0247885Y0190401D01*
X0247905Y0190344D01*
X0247921Y0190285D01*
X0247934Y0190226D01*
X0247943Y0190167D01*
X0247948Y0190106D01*
X0247950Y0190046D01*
X0247950Y0188546D01*
X0247450Y0188046D01*
X0247450Y0169046D01*
X0247950Y0168546D01*
X0247950Y0167046D01*
X0247948Y0166986D01*
X0247943Y0166925D01*
X0247934Y0166866D01*
X0247921Y0166807D01*
X0247905Y0166748D01*
X0247885Y0166691D01*
X0247862Y0166636D01*
X0247835Y0166581D01*
X0247806Y0166529D01*
X0247773Y0166478D01*
X0247737Y0166429D01*
X0247699Y0166383D01*
X0247657Y0166339D01*
X0247613Y0166297D01*
X0247567Y0166259D01*
X0247518Y0166223D01*
X0247467Y0166190D01*
X0247415Y0166161D01*
X0247360Y0166134D01*
X0247305Y0166111D01*
X0247248Y0166091D01*
X0247189Y0166075D01*
X0247130Y0166062D01*
X0247071Y0166053D01*
X0247010Y0166048D01*
X0246950Y0166046D01*
X0224200Y0169546D02*
X0224200Y0171046D01*
X0223700Y0171546D01*
X0223700Y0190546D01*
X0224200Y0191046D01*
X0224200Y0192546D01*
X0224198Y0192606D01*
X0224193Y0192667D01*
X0224184Y0192726D01*
X0224171Y0192785D01*
X0224155Y0192844D01*
X0224135Y0192901D01*
X0224112Y0192956D01*
X0224085Y0193011D01*
X0224056Y0193063D01*
X0224023Y0193114D01*
X0223987Y0193163D01*
X0223949Y0193209D01*
X0223907Y0193253D01*
X0223863Y0193295D01*
X0223817Y0193333D01*
X0223768Y0193369D01*
X0223717Y0193402D01*
X0223665Y0193431D01*
X0223610Y0193458D01*
X0223555Y0193481D01*
X0223498Y0193501D01*
X0223439Y0193517D01*
X0223380Y0193530D01*
X0223321Y0193539D01*
X0223260Y0193544D01*
X0223200Y0193546D01*
X0216200Y0193546D01*
X0216140Y0193544D01*
X0216079Y0193539D01*
X0216020Y0193530D01*
X0215961Y0193517D01*
X0215902Y0193501D01*
X0215845Y0193481D01*
X0215790Y0193458D01*
X0215735Y0193431D01*
X0215683Y0193402D01*
X0215632Y0193369D01*
X0215583Y0193333D01*
X0215537Y0193295D01*
X0215493Y0193253D01*
X0215451Y0193209D01*
X0215413Y0193163D01*
X0215377Y0193114D01*
X0215344Y0193063D01*
X0215315Y0193011D01*
X0215288Y0192956D01*
X0215265Y0192901D01*
X0215245Y0192844D01*
X0215229Y0192785D01*
X0215216Y0192726D01*
X0215207Y0192667D01*
X0215202Y0192606D01*
X0215200Y0192546D01*
X0215200Y0191046D01*
X0215700Y0190546D01*
X0215700Y0171546D01*
X0215200Y0171046D01*
X0215200Y0169546D01*
X0215202Y0169486D01*
X0215207Y0169425D01*
X0215216Y0169366D01*
X0215229Y0169307D01*
X0215245Y0169248D01*
X0215265Y0169191D01*
X0215288Y0169136D01*
X0215315Y0169081D01*
X0215344Y0169029D01*
X0215377Y0168978D01*
X0215413Y0168929D01*
X0215451Y0168883D01*
X0215493Y0168839D01*
X0215537Y0168797D01*
X0215583Y0168759D01*
X0215632Y0168723D01*
X0215683Y0168690D01*
X0215735Y0168661D01*
X0215790Y0168634D01*
X0215845Y0168611D01*
X0215902Y0168591D01*
X0215961Y0168575D01*
X0216020Y0168562D01*
X0216079Y0168553D01*
X0216140Y0168548D01*
X0216200Y0168546D01*
X0223200Y0168546D01*
X0223260Y0168548D01*
X0223321Y0168553D01*
X0223380Y0168562D01*
X0223439Y0168575D01*
X0223498Y0168591D01*
X0223555Y0168611D01*
X0223610Y0168634D01*
X0223665Y0168661D01*
X0223717Y0168690D01*
X0223768Y0168723D01*
X0223817Y0168759D01*
X0223863Y0168797D01*
X0223907Y0168839D01*
X0223949Y0168883D01*
X0223987Y0168929D01*
X0224023Y0168978D01*
X0224056Y0169029D01*
X0224085Y0169081D01*
X0224112Y0169136D01*
X0224135Y0169191D01*
X0224155Y0169248D01*
X0224171Y0169307D01*
X0224184Y0169366D01*
X0224193Y0169425D01*
X0224198Y0169486D01*
X0224200Y0169546D01*
X0210200Y0171046D02*
X0198700Y0171046D01*
X0197700Y0172046D01*
X0197700Y0210046D01*
X0198700Y0211046D01*
X0210200Y0211046D01*
X0208450Y0216046D02*
X0208450Y0218546D01*
X0208450Y0221046D01*
X0208450Y0218546D02*
X0204450Y0216046D01*
X0204450Y0221046D01*
X0208450Y0218546D01*
X0202450Y0218546D01*
X0200450Y0223546D02*
X0200450Y0213546D01*
X0216450Y0213546D01*
X0216450Y0223546D01*
X0200450Y0223546D01*
X0200450Y0224796D02*
X0216450Y0224796D01*
X0216450Y0234796D01*
X0200450Y0234796D01*
X0200450Y0224796D01*
X0204450Y0227296D02*
X0208450Y0229796D01*
X0208450Y0227296D01*
X0207450Y0227296D01*
X0208450Y0229796D02*
X0208450Y0232296D01*
X0208450Y0229796D02*
X0202450Y0229796D01*
X0204450Y0227296D02*
X0204450Y0232296D01*
X0208450Y0229796D01*
X0210950Y0229796D01*
X0210950Y0218546D02*
X0208450Y0218546D01*
X0190700Y0183546D02*
X0183700Y0183546D01*
X0183640Y0183544D01*
X0183579Y0183539D01*
X0183520Y0183530D01*
X0183461Y0183517D01*
X0183402Y0183501D01*
X0183345Y0183481D01*
X0183290Y0183458D01*
X0183235Y0183431D01*
X0183183Y0183402D01*
X0183132Y0183369D01*
X0183083Y0183333D01*
X0183037Y0183295D01*
X0182993Y0183253D01*
X0182951Y0183209D01*
X0182913Y0183163D01*
X0182877Y0183114D01*
X0182844Y0183063D01*
X0182815Y0183011D01*
X0182788Y0182956D01*
X0182765Y0182901D01*
X0182745Y0182844D01*
X0182729Y0182785D01*
X0182716Y0182726D01*
X0182707Y0182667D01*
X0182702Y0182606D01*
X0182700Y0182546D01*
X0182700Y0181046D01*
X0183200Y0180546D01*
X0183200Y0161546D01*
X0182700Y0161046D01*
X0182700Y0159546D01*
X0182702Y0159486D01*
X0182707Y0159425D01*
X0182716Y0159366D01*
X0182729Y0159307D01*
X0182745Y0159248D01*
X0182765Y0159191D01*
X0182788Y0159136D01*
X0182815Y0159081D01*
X0182844Y0159029D01*
X0182877Y0158978D01*
X0182913Y0158929D01*
X0182951Y0158883D01*
X0182993Y0158839D01*
X0183037Y0158797D01*
X0183083Y0158759D01*
X0183132Y0158723D01*
X0183183Y0158690D01*
X0183235Y0158661D01*
X0183290Y0158634D01*
X0183345Y0158611D01*
X0183402Y0158591D01*
X0183461Y0158575D01*
X0183520Y0158562D01*
X0183579Y0158553D01*
X0183640Y0158548D01*
X0183700Y0158546D01*
X0190700Y0158546D01*
X0190760Y0158548D01*
X0190821Y0158553D01*
X0190880Y0158562D01*
X0190939Y0158575D01*
X0190998Y0158591D01*
X0191055Y0158611D01*
X0191110Y0158634D01*
X0191165Y0158661D01*
X0191217Y0158690D01*
X0191268Y0158723D01*
X0191317Y0158759D01*
X0191363Y0158797D01*
X0191407Y0158839D01*
X0191449Y0158883D01*
X0191487Y0158929D01*
X0191523Y0158978D01*
X0191556Y0159029D01*
X0191585Y0159081D01*
X0191612Y0159136D01*
X0191635Y0159191D01*
X0191655Y0159248D01*
X0191671Y0159307D01*
X0191684Y0159366D01*
X0191693Y0159425D01*
X0191698Y0159486D01*
X0191700Y0159546D01*
X0191700Y0161046D01*
X0191200Y0161546D01*
X0191200Y0180546D01*
X0191700Y0181046D01*
X0191700Y0182546D01*
X0191698Y0182606D01*
X0191693Y0182667D01*
X0191684Y0182726D01*
X0191671Y0182785D01*
X0191655Y0182844D01*
X0191635Y0182901D01*
X0191612Y0182956D01*
X0191585Y0183011D01*
X0191556Y0183063D01*
X0191523Y0183114D01*
X0191487Y0183163D01*
X0191449Y0183209D01*
X0191407Y0183253D01*
X0191363Y0183295D01*
X0191317Y0183333D01*
X0191268Y0183369D01*
X0191217Y0183402D01*
X0191165Y0183431D01*
X0191110Y0183458D01*
X0191055Y0183481D01*
X0190998Y0183501D01*
X0190939Y0183517D01*
X0190880Y0183530D01*
X0190821Y0183539D01*
X0190760Y0183544D01*
X0190700Y0183546D01*
X0169200Y0191046D02*
X0168700Y0190546D01*
X0168700Y0171546D01*
X0169200Y0171046D01*
X0169200Y0169546D01*
X0169198Y0169486D01*
X0169193Y0169425D01*
X0169184Y0169366D01*
X0169171Y0169307D01*
X0169155Y0169248D01*
X0169135Y0169191D01*
X0169112Y0169136D01*
X0169085Y0169081D01*
X0169056Y0169029D01*
X0169023Y0168978D01*
X0168987Y0168929D01*
X0168949Y0168883D01*
X0168907Y0168839D01*
X0168863Y0168797D01*
X0168817Y0168759D01*
X0168768Y0168723D01*
X0168717Y0168690D01*
X0168665Y0168661D01*
X0168610Y0168634D01*
X0168555Y0168611D01*
X0168498Y0168591D01*
X0168439Y0168575D01*
X0168380Y0168562D01*
X0168321Y0168553D01*
X0168260Y0168548D01*
X0168200Y0168546D01*
X0161200Y0168546D01*
X0161140Y0168548D01*
X0161079Y0168553D01*
X0161020Y0168562D01*
X0160961Y0168575D01*
X0160902Y0168591D01*
X0160845Y0168611D01*
X0160790Y0168634D01*
X0160735Y0168661D01*
X0160683Y0168690D01*
X0160632Y0168723D01*
X0160583Y0168759D01*
X0160537Y0168797D01*
X0160493Y0168839D01*
X0160451Y0168883D01*
X0160413Y0168929D01*
X0160377Y0168978D01*
X0160344Y0169029D01*
X0160315Y0169081D01*
X0160288Y0169136D01*
X0160265Y0169191D01*
X0160245Y0169248D01*
X0160229Y0169307D01*
X0160216Y0169366D01*
X0160207Y0169425D01*
X0160202Y0169486D01*
X0160200Y0169546D01*
X0160200Y0171046D01*
X0160700Y0171546D01*
X0160700Y0190546D01*
X0160200Y0191046D01*
X0160200Y0192546D01*
X0160202Y0192606D01*
X0160207Y0192667D01*
X0160216Y0192726D01*
X0160229Y0192785D01*
X0160245Y0192844D01*
X0160265Y0192901D01*
X0160288Y0192956D01*
X0160315Y0193011D01*
X0160344Y0193063D01*
X0160377Y0193114D01*
X0160413Y0193163D01*
X0160451Y0193209D01*
X0160493Y0193253D01*
X0160537Y0193295D01*
X0160583Y0193333D01*
X0160632Y0193369D01*
X0160683Y0193402D01*
X0160735Y0193431D01*
X0160790Y0193458D01*
X0160845Y0193481D01*
X0160902Y0193501D01*
X0160961Y0193517D01*
X0161020Y0193530D01*
X0161079Y0193539D01*
X0161140Y0193544D01*
X0161200Y0193546D01*
X0168200Y0193546D01*
X0168260Y0193544D01*
X0168321Y0193539D01*
X0168380Y0193530D01*
X0168439Y0193517D01*
X0168498Y0193501D01*
X0168555Y0193481D01*
X0168610Y0193458D01*
X0168665Y0193431D01*
X0168717Y0193402D01*
X0168768Y0193369D01*
X0168817Y0193333D01*
X0168863Y0193295D01*
X0168907Y0193253D01*
X0168949Y0193209D01*
X0168987Y0193163D01*
X0169023Y0193114D01*
X0169056Y0193063D01*
X0169085Y0193011D01*
X0169112Y0192956D01*
X0169135Y0192901D01*
X0169155Y0192844D01*
X0169171Y0192785D01*
X0169184Y0192726D01*
X0169193Y0192667D01*
X0169198Y0192606D01*
X0169200Y0192546D01*
X0169200Y0191046D01*
X0155200Y0211046D02*
X0143700Y0211046D01*
X0142700Y0210046D01*
X0142700Y0172046D01*
X0143700Y0171046D01*
X0155200Y0171046D01*
X0136700Y0181046D02*
X0136700Y0182546D01*
X0136698Y0182606D01*
X0136693Y0182667D01*
X0136684Y0182726D01*
X0136671Y0182785D01*
X0136655Y0182844D01*
X0136635Y0182901D01*
X0136612Y0182956D01*
X0136585Y0183011D01*
X0136556Y0183063D01*
X0136523Y0183114D01*
X0136487Y0183163D01*
X0136449Y0183209D01*
X0136407Y0183253D01*
X0136363Y0183295D01*
X0136317Y0183333D01*
X0136268Y0183369D01*
X0136217Y0183402D01*
X0136165Y0183431D01*
X0136110Y0183458D01*
X0136055Y0183481D01*
X0135998Y0183501D01*
X0135939Y0183517D01*
X0135880Y0183530D01*
X0135821Y0183539D01*
X0135760Y0183544D01*
X0135700Y0183546D01*
X0128700Y0183546D01*
X0128640Y0183544D01*
X0128579Y0183539D01*
X0128520Y0183530D01*
X0128461Y0183517D01*
X0128402Y0183501D01*
X0128345Y0183481D01*
X0128290Y0183458D01*
X0128235Y0183431D01*
X0128183Y0183402D01*
X0128132Y0183369D01*
X0128083Y0183333D01*
X0128037Y0183295D01*
X0127993Y0183253D01*
X0127951Y0183209D01*
X0127913Y0183163D01*
X0127877Y0183114D01*
X0127844Y0183063D01*
X0127815Y0183011D01*
X0127788Y0182956D01*
X0127765Y0182901D01*
X0127745Y0182844D01*
X0127729Y0182785D01*
X0127716Y0182726D01*
X0127707Y0182667D01*
X0127702Y0182606D01*
X0127700Y0182546D01*
X0127700Y0181046D01*
X0128200Y0180546D01*
X0128200Y0161546D01*
X0127700Y0161046D01*
X0127700Y0159546D01*
X0127702Y0159486D01*
X0127707Y0159425D01*
X0127716Y0159366D01*
X0127729Y0159307D01*
X0127745Y0159248D01*
X0127765Y0159191D01*
X0127788Y0159136D01*
X0127815Y0159081D01*
X0127844Y0159029D01*
X0127877Y0158978D01*
X0127913Y0158929D01*
X0127951Y0158883D01*
X0127993Y0158839D01*
X0128037Y0158797D01*
X0128083Y0158759D01*
X0128132Y0158723D01*
X0128183Y0158690D01*
X0128235Y0158661D01*
X0128290Y0158634D01*
X0128345Y0158611D01*
X0128402Y0158591D01*
X0128461Y0158575D01*
X0128520Y0158562D01*
X0128579Y0158553D01*
X0128640Y0158548D01*
X0128700Y0158546D01*
X0135700Y0158546D01*
X0135760Y0158548D01*
X0135821Y0158553D01*
X0135880Y0158562D01*
X0135939Y0158575D01*
X0135998Y0158591D01*
X0136055Y0158611D01*
X0136110Y0158634D01*
X0136165Y0158661D01*
X0136217Y0158690D01*
X0136268Y0158723D01*
X0136317Y0158759D01*
X0136363Y0158797D01*
X0136407Y0158839D01*
X0136449Y0158883D01*
X0136487Y0158929D01*
X0136523Y0158978D01*
X0136556Y0159029D01*
X0136585Y0159081D01*
X0136612Y0159136D01*
X0136635Y0159191D01*
X0136655Y0159248D01*
X0136671Y0159307D01*
X0136684Y0159366D01*
X0136693Y0159425D01*
X0136698Y0159486D01*
X0136700Y0159546D01*
X0136700Y0161046D01*
X0136200Y0161546D01*
X0136200Y0180546D01*
X0136700Y0181046D01*
X0145450Y0213546D02*
X0161450Y0213546D01*
X0161450Y0223546D01*
X0145450Y0223546D01*
X0145450Y0213546D01*
X0149450Y0216046D02*
X0153450Y0218546D01*
X0153450Y0221046D01*
X0153450Y0218546D02*
X0153450Y0216046D01*
X0153450Y0218546D02*
X0147450Y0218546D01*
X0149450Y0216046D02*
X0149450Y0221046D01*
X0153450Y0218546D01*
X0155950Y0218546D01*
X0161450Y0224796D02*
X0161450Y0234796D01*
X0145450Y0234796D01*
X0145450Y0224796D01*
X0161450Y0224796D01*
X0155950Y0229796D02*
X0153450Y0229796D01*
X0153450Y0227296D01*
X0152450Y0227296D01*
X0153450Y0229796D02*
X0147450Y0229796D01*
X0149450Y0227296D02*
X0149450Y0232296D01*
X0153450Y0229796D01*
X0153450Y0232296D01*
X0153450Y0229796D02*
X0149450Y0227296D01*
X0055700Y0128546D02*
X0048700Y0128546D01*
X0048640Y0128544D01*
X0048579Y0128539D01*
X0048520Y0128530D01*
X0048461Y0128517D01*
X0048402Y0128501D01*
X0048345Y0128481D01*
X0048290Y0128458D01*
X0048235Y0128431D01*
X0048183Y0128402D01*
X0048132Y0128369D01*
X0048083Y0128333D01*
X0048037Y0128295D01*
X0047993Y0128253D01*
X0047951Y0128209D01*
X0047913Y0128163D01*
X0047877Y0128114D01*
X0047844Y0128063D01*
X0047815Y0128011D01*
X0047788Y0127956D01*
X0047765Y0127901D01*
X0047745Y0127844D01*
X0047729Y0127785D01*
X0047716Y0127726D01*
X0047707Y0127667D01*
X0047702Y0127606D01*
X0047700Y0127546D01*
X0047700Y0126046D01*
X0048200Y0125546D01*
X0048200Y0106546D01*
X0047700Y0106046D01*
X0047700Y0104546D01*
X0047702Y0104486D01*
X0047707Y0104425D01*
X0047716Y0104366D01*
X0047729Y0104307D01*
X0047745Y0104248D01*
X0047765Y0104191D01*
X0047788Y0104136D01*
X0047815Y0104081D01*
X0047844Y0104029D01*
X0047877Y0103978D01*
X0047913Y0103929D01*
X0047951Y0103883D01*
X0047993Y0103839D01*
X0048037Y0103797D01*
X0048083Y0103759D01*
X0048132Y0103723D01*
X0048183Y0103690D01*
X0048235Y0103661D01*
X0048290Y0103634D01*
X0048345Y0103611D01*
X0048402Y0103591D01*
X0048461Y0103575D01*
X0048520Y0103562D01*
X0048579Y0103553D01*
X0048640Y0103548D01*
X0048700Y0103546D01*
X0055700Y0103546D01*
X0055760Y0103548D01*
X0055821Y0103553D01*
X0055880Y0103562D01*
X0055939Y0103575D01*
X0055998Y0103591D01*
X0056055Y0103611D01*
X0056110Y0103634D01*
X0056165Y0103661D01*
X0056217Y0103690D01*
X0056268Y0103723D01*
X0056317Y0103759D01*
X0056363Y0103797D01*
X0056407Y0103839D01*
X0056449Y0103883D01*
X0056487Y0103929D01*
X0056523Y0103978D01*
X0056556Y0104029D01*
X0056585Y0104081D01*
X0056612Y0104136D01*
X0056635Y0104191D01*
X0056655Y0104248D01*
X0056671Y0104307D01*
X0056684Y0104366D01*
X0056693Y0104425D01*
X0056698Y0104486D01*
X0056700Y0104546D01*
X0056700Y0106046D01*
X0056200Y0106546D01*
X0056200Y0125546D01*
X0056700Y0126046D01*
X0056700Y0127546D01*
X0056698Y0127606D01*
X0056693Y0127667D01*
X0056684Y0127726D01*
X0056671Y0127785D01*
X0056655Y0127844D01*
X0056635Y0127901D01*
X0056612Y0127956D01*
X0056585Y0128011D01*
X0056556Y0128063D01*
X0056523Y0128114D01*
X0056487Y0128163D01*
X0056449Y0128209D01*
X0056407Y0128253D01*
X0056363Y0128295D01*
X0056317Y0128333D01*
X0056268Y0128369D01*
X0056217Y0128402D01*
X0056165Y0128431D01*
X0056110Y0128458D01*
X0056055Y0128481D01*
X0055998Y0128501D01*
X0055939Y0128517D01*
X0055880Y0128530D01*
X0055821Y0128539D01*
X0055760Y0128544D01*
X0055700Y0128546D01*
X0045450Y0127546D02*
X0045450Y0126046D01*
X0044950Y0125546D01*
X0044950Y0106546D01*
X0045450Y0106046D01*
X0045450Y0104546D01*
X0045448Y0104486D01*
X0045443Y0104425D01*
X0045434Y0104366D01*
X0045421Y0104307D01*
X0045405Y0104248D01*
X0045385Y0104191D01*
X0045362Y0104136D01*
X0045335Y0104081D01*
X0045306Y0104029D01*
X0045273Y0103978D01*
X0045237Y0103929D01*
X0045199Y0103883D01*
X0045157Y0103839D01*
X0045113Y0103797D01*
X0045067Y0103759D01*
X0045018Y0103723D01*
X0044967Y0103690D01*
X0044915Y0103661D01*
X0044860Y0103634D01*
X0044805Y0103611D01*
X0044748Y0103591D01*
X0044689Y0103575D01*
X0044630Y0103562D01*
X0044571Y0103553D01*
X0044510Y0103548D01*
X0044450Y0103546D01*
X0037450Y0103546D01*
X0037390Y0103548D01*
X0037329Y0103553D01*
X0037270Y0103562D01*
X0037211Y0103575D01*
X0037152Y0103591D01*
X0037095Y0103611D01*
X0037040Y0103634D01*
X0036985Y0103661D01*
X0036933Y0103690D01*
X0036882Y0103723D01*
X0036833Y0103759D01*
X0036787Y0103797D01*
X0036743Y0103839D01*
X0036701Y0103883D01*
X0036663Y0103929D01*
X0036627Y0103978D01*
X0036594Y0104029D01*
X0036565Y0104081D01*
X0036538Y0104136D01*
X0036515Y0104191D01*
X0036495Y0104248D01*
X0036479Y0104307D01*
X0036466Y0104366D01*
X0036457Y0104425D01*
X0036452Y0104486D01*
X0036450Y0104546D01*
X0036450Y0106046D01*
X0036950Y0106546D01*
X0036950Y0125546D01*
X0036450Y0126046D01*
X0036450Y0127546D01*
X0036452Y0127606D01*
X0036457Y0127667D01*
X0036466Y0127726D01*
X0036479Y0127785D01*
X0036495Y0127844D01*
X0036515Y0127901D01*
X0036538Y0127956D01*
X0036565Y0128011D01*
X0036594Y0128063D01*
X0036627Y0128114D01*
X0036663Y0128163D01*
X0036701Y0128209D01*
X0036743Y0128253D01*
X0036787Y0128295D01*
X0036833Y0128333D01*
X0036882Y0128369D01*
X0036933Y0128402D01*
X0036985Y0128431D01*
X0037040Y0128458D01*
X0037095Y0128481D01*
X0037152Y0128501D01*
X0037211Y0128517D01*
X0037270Y0128530D01*
X0037329Y0128539D01*
X0037390Y0128544D01*
X0037450Y0128546D01*
X0044450Y0128546D01*
X0044510Y0128544D01*
X0044571Y0128539D01*
X0044630Y0128530D01*
X0044689Y0128517D01*
X0044748Y0128501D01*
X0044805Y0128481D01*
X0044860Y0128458D01*
X0044915Y0128431D01*
X0044967Y0128402D01*
X0045018Y0128369D01*
X0045067Y0128333D01*
X0045113Y0128295D01*
X0045157Y0128253D01*
X0045199Y0128209D01*
X0045237Y0128163D01*
X0045273Y0128114D01*
X0045306Y0128063D01*
X0045335Y0128011D01*
X0045362Y0127956D01*
X0045385Y0127901D01*
X0045405Y0127844D01*
X0045421Y0127785D01*
X0045434Y0127726D01*
X0045443Y0127667D01*
X0045448Y0127606D01*
X0045450Y0127546D01*
X0025450Y0127546D02*
X0025450Y0126046D01*
X0024950Y0125546D01*
X0024950Y0106546D01*
X0025450Y0106046D01*
X0025450Y0104546D01*
X0025448Y0104486D01*
X0025443Y0104425D01*
X0025434Y0104366D01*
X0025421Y0104307D01*
X0025405Y0104248D01*
X0025385Y0104191D01*
X0025362Y0104136D01*
X0025335Y0104081D01*
X0025306Y0104029D01*
X0025273Y0103978D01*
X0025237Y0103929D01*
X0025199Y0103883D01*
X0025157Y0103839D01*
X0025113Y0103797D01*
X0025067Y0103759D01*
X0025018Y0103723D01*
X0024967Y0103690D01*
X0024915Y0103661D01*
X0024860Y0103634D01*
X0024805Y0103611D01*
X0024748Y0103591D01*
X0024689Y0103575D01*
X0024630Y0103562D01*
X0024571Y0103553D01*
X0024510Y0103548D01*
X0024450Y0103546D01*
X0017450Y0103546D01*
X0017390Y0103548D01*
X0017329Y0103553D01*
X0017270Y0103562D01*
X0017211Y0103575D01*
X0017152Y0103591D01*
X0017095Y0103611D01*
X0017040Y0103634D01*
X0016985Y0103661D01*
X0016933Y0103690D01*
X0016882Y0103723D01*
X0016833Y0103759D01*
X0016787Y0103797D01*
X0016743Y0103839D01*
X0016701Y0103883D01*
X0016663Y0103929D01*
X0016627Y0103978D01*
X0016594Y0104029D01*
X0016565Y0104081D01*
X0016538Y0104136D01*
X0016515Y0104191D01*
X0016495Y0104248D01*
X0016479Y0104307D01*
X0016466Y0104366D01*
X0016457Y0104425D01*
X0016452Y0104486D01*
X0016450Y0104546D01*
X0016450Y0106046D01*
X0016950Y0106546D01*
X0016950Y0125546D01*
X0016450Y0126046D01*
X0016450Y0127546D01*
X0016452Y0127606D01*
X0016457Y0127667D01*
X0016466Y0127726D01*
X0016479Y0127785D01*
X0016495Y0127844D01*
X0016515Y0127901D01*
X0016538Y0127956D01*
X0016565Y0128011D01*
X0016594Y0128063D01*
X0016627Y0128114D01*
X0016663Y0128163D01*
X0016701Y0128209D01*
X0016743Y0128253D01*
X0016787Y0128295D01*
X0016833Y0128333D01*
X0016882Y0128369D01*
X0016933Y0128402D01*
X0016985Y0128431D01*
X0017040Y0128458D01*
X0017095Y0128481D01*
X0017152Y0128501D01*
X0017211Y0128517D01*
X0017270Y0128530D01*
X0017329Y0128539D01*
X0017390Y0128544D01*
X0017450Y0128546D01*
X0024450Y0128546D01*
X0024510Y0128544D01*
X0024571Y0128539D01*
X0024630Y0128530D01*
X0024689Y0128517D01*
X0024748Y0128501D01*
X0024805Y0128481D01*
X0024860Y0128458D01*
X0024915Y0128431D01*
X0024967Y0128402D01*
X0025018Y0128369D01*
X0025067Y0128333D01*
X0025113Y0128295D01*
X0025157Y0128253D01*
X0025199Y0128209D01*
X0025237Y0128163D01*
X0025273Y0128114D01*
X0025306Y0128063D01*
X0025335Y0128011D01*
X0025362Y0127956D01*
X0025385Y0127901D01*
X0025405Y0127844D01*
X0025421Y0127785D01*
X0025434Y0127726D01*
X0025443Y0127667D01*
X0025448Y0127606D01*
X0025450Y0127546D01*
X0082550Y0125046D02*
X0084350Y0125046D01*
X0092550Y0125046D02*
X0094350Y0125046D01*
X0102550Y0125046D02*
X0104350Y0125046D01*
X0112550Y0125046D02*
X0114350Y0125046D01*
X0122550Y0125046D02*
X0124350Y0125046D01*
X0132550Y0125046D02*
X0134350Y0125046D01*
X0142550Y0125046D02*
X0144350Y0125046D01*
X0152550Y0125046D02*
X0154350Y0125046D01*
X0162550Y0125046D02*
X0164150Y0125046D01*
X0184450Y0066796D02*
X0185950Y0066796D01*
X0186450Y0066296D01*
X0205450Y0066296D01*
X0205950Y0066796D01*
X0207450Y0066796D01*
X0207510Y0066794D01*
X0207571Y0066789D01*
X0207630Y0066780D01*
X0207689Y0066767D01*
X0207748Y0066751D01*
X0207805Y0066731D01*
X0207860Y0066708D01*
X0207915Y0066681D01*
X0207967Y0066652D01*
X0208018Y0066619D01*
X0208067Y0066583D01*
X0208113Y0066545D01*
X0208157Y0066503D01*
X0208199Y0066459D01*
X0208237Y0066413D01*
X0208273Y0066364D01*
X0208306Y0066313D01*
X0208335Y0066261D01*
X0208362Y0066206D01*
X0208385Y0066151D01*
X0208405Y0066094D01*
X0208421Y0066035D01*
X0208434Y0065976D01*
X0208443Y0065917D01*
X0208448Y0065856D01*
X0208450Y0065796D01*
X0208450Y0058796D01*
X0208448Y0058736D01*
X0208443Y0058675D01*
X0208434Y0058616D01*
X0208421Y0058557D01*
X0208405Y0058498D01*
X0208385Y0058441D01*
X0208362Y0058386D01*
X0208335Y0058331D01*
X0208306Y0058279D01*
X0208273Y0058228D01*
X0208237Y0058179D01*
X0208199Y0058133D01*
X0208157Y0058089D01*
X0208113Y0058047D01*
X0208067Y0058009D01*
X0208018Y0057973D01*
X0207967Y0057940D01*
X0207915Y0057911D01*
X0207860Y0057884D01*
X0207805Y0057861D01*
X0207748Y0057841D01*
X0207689Y0057825D01*
X0207630Y0057812D01*
X0207571Y0057803D01*
X0207510Y0057798D01*
X0207450Y0057796D01*
X0205950Y0057796D01*
X0205450Y0058296D01*
X0186450Y0058296D01*
X0185950Y0057796D01*
X0184450Y0057796D01*
X0184390Y0057798D01*
X0184329Y0057803D01*
X0184270Y0057812D01*
X0184211Y0057825D01*
X0184152Y0057841D01*
X0184095Y0057861D01*
X0184040Y0057884D01*
X0183985Y0057911D01*
X0183933Y0057940D01*
X0183882Y0057973D01*
X0183833Y0058009D01*
X0183787Y0058047D01*
X0183743Y0058089D01*
X0183701Y0058133D01*
X0183663Y0058179D01*
X0183627Y0058228D01*
X0183594Y0058279D01*
X0183565Y0058331D01*
X0183538Y0058386D01*
X0183515Y0058441D01*
X0183495Y0058498D01*
X0183479Y0058557D01*
X0183466Y0058616D01*
X0183457Y0058675D01*
X0183452Y0058736D01*
X0183450Y0058796D01*
X0183450Y0065796D01*
X0183452Y0065856D01*
X0183457Y0065917D01*
X0183466Y0065976D01*
X0183479Y0066035D01*
X0183495Y0066094D01*
X0183515Y0066151D01*
X0183538Y0066206D01*
X0183565Y0066261D01*
X0183594Y0066313D01*
X0183627Y0066364D01*
X0183663Y0066413D01*
X0183701Y0066459D01*
X0183743Y0066503D01*
X0183787Y0066545D01*
X0183833Y0066583D01*
X0183882Y0066619D01*
X0183933Y0066652D01*
X0183985Y0066681D01*
X0184040Y0066708D01*
X0184095Y0066731D01*
X0184152Y0066751D01*
X0184211Y0066767D01*
X0184270Y0066780D01*
X0184329Y0066789D01*
X0184390Y0066794D01*
X0184450Y0066796D01*
X0147200Y0057296D02*
X0147203Y0057541D01*
X0147212Y0057787D01*
X0147227Y0058032D01*
X0147248Y0058276D01*
X0147275Y0058520D01*
X0147308Y0058763D01*
X0147347Y0059006D01*
X0147392Y0059247D01*
X0147443Y0059487D01*
X0147500Y0059726D01*
X0147562Y0059963D01*
X0147631Y0060199D01*
X0147705Y0060433D01*
X0147785Y0060665D01*
X0147870Y0060895D01*
X0147961Y0061123D01*
X0148058Y0061348D01*
X0148160Y0061572D01*
X0148268Y0061792D01*
X0148381Y0062010D01*
X0148499Y0062225D01*
X0148623Y0062437D01*
X0148751Y0062646D01*
X0148885Y0062852D01*
X0149024Y0063054D01*
X0149168Y0063253D01*
X0149317Y0063448D01*
X0149470Y0063640D01*
X0149628Y0063828D01*
X0149790Y0064012D01*
X0149958Y0064191D01*
X0150129Y0064367D01*
X0150305Y0064538D01*
X0150484Y0064706D01*
X0150668Y0064868D01*
X0150856Y0065026D01*
X0151048Y0065179D01*
X0151243Y0065328D01*
X0151442Y0065472D01*
X0151644Y0065611D01*
X0151850Y0065745D01*
X0152059Y0065873D01*
X0152271Y0065997D01*
X0152486Y0066115D01*
X0152704Y0066228D01*
X0152924Y0066336D01*
X0153148Y0066438D01*
X0153373Y0066535D01*
X0153601Y0066626D01*
X0153831Y0066711D01*
X0154063Y0066791D01*
X0154297Y0066865D01*
X0154533Y0066934D01*
X0154770Y0066996D01*
X0155009Y0067053D01*
X0155249Y0067104D01*
X0155490Y0067149D01*
X0155733Y0067188D01*
X0155976Y0067221D01*
X0156220Y0067248D01*
X0156464Y0067269D01*
X0156709Y0067284D01*
X0156955Y0067293D01*
X0157200Y0067296D01*
X0157445Y0067293D01*
X0157691Y0067284D01*
X0157936Y0067269D01*
X0158180Y0067248D01*
X0158424Y0067221D01*
X0158667Y0067188D01*
X0158910Y0067149D01*
X0159151Y0067104D01*
X0159391Y0067053D01*
X0159630Y0066996D01*
X0159867Y0066934D01*
X0160103Y0066865D01*
X0160337Y0066791D01*
X0160569Y0066711D01*
X0160799Y0066626D01*
X0161027Y0066535D01*
X0161252Y0066438D01*
X0161476Y0066336D01*
X0161696Y0066228D01*
X0161914Y0066115D01*
X0162129Y0065997D01*
X0162341Y0065873D01*
X0162550Y0065745D01*
X0162756Y0065611D01*
X0162958Y0065472D01*
X0163157Y0065328D01*
X0163352Y0065179D01*
X0163544Y0065026D01*
X0163732Y0064868D01*
X0163916Y0064706D01*
X0164095Y0064538D01*
X0164271Y0064367D01*
X0164442Y0064191D01*
X0164610Y0064012D01*
X0164772Y0063828D01*
X0164930Y0063640D01*
X0165083Y0063448D01*
X0165232Y0063253D01*
X0165376Y0063054D01*
X0165515Y0062852D01*
X0165649Y0062646D01*
X0165777Y0062437D01*
X0165901Y0062225D01*
X0166019Y0062010D01*
X0166132Y0061792D01*
X0166240Y0061572D01*
X0166342Y0061348D01*
X0166439Y0061123D01*
X0166530Y0060895D01*
X0166615Y0060665D01*
X0166695Y0060433D01*
X0166769Y0060199D01*
X0166838Y0059963D01*
X0166900Y0059726D01*
X0166957Y0059487D01*
X0167008Y0059247D01*
X0167053Y0059006D01*
X0167092Y0058763D01*
X0167125Y0058520D01*
X0167152Y0058276D01*
X0167173Y0058032D01*
X0167188Y0057787D01*
X0167197Y0057541D01*
X0167200Y0057296D01*
X0167197Y0057051D01*
X0167188Y0056805D01*
X0167173Y0056560D01*
X0167152Y0056316D01*
X0167125Y0056072D01*
X0167092Y0055829D01*
X0167053Y0055586D01*
X0167008Y0055345D01*
X0166957Y0055105D01*
X0166900Y0054866D01*
X0166838Y0054629D01*
X0166769Y0054393D01*
X0166695Y0054159D01*
X0166615Y0053927D01*
X0166530Y0053697D01*
X0166439Y0053469D01*
X0166342Y0053244D01*
X0166240Y0053020D01*
X0166132Y0052800D01*
X0166019Y0052582D01*
X0165901Y0052367D01*
X0165777Y0052155D01*
X0165649Y0051946D01*
X0165515Y0051740D01*
X0165376Y0051538D01*
X0165232Y0051339D01*
X0165083Y0051144D01*
X0164930Y0050952D01*
X0164772Y0050764D01*
X0164610Y0050580D01*
X0164442Y0050401D01*
X0164271Y0050225D01*
X0164095Y0050054D01*
X0163916Y0049886D01*
X0163732Y0049724D01*
X0163544Y0049566D01*
X0163352Y0049413D01*
X0163157Y0049264D01*
X0162958Y0049120D01*
X0162756Y0048981D01*
X0162550Y0048847D01*
X0162341Y0048719D01*
X0162129Y0048595D01*
X0161914Y0048477D01*
X0161696Y0048364D01*
X0161476Y0048256D01*
X0161252Y0048154D01*
X0161027Y0048057D01*
X0160799Y0047966D01*
X0160569Y0047881D01*
X0160337Y0047801D01*
X0160103Y0047727D01*
X0159867Y0047658D01*
X0159630Y0047596D01*
X0159391Y0047539D01*
X0159151Y0047488D01*
X0158910Y0047443D01*
X0158667Y0047404D01*
X0158424Y0047371D01*
X0158180Y0047344D01*
X0157936Y0047323D01*
X0157691Y0047308D01*
X0157445Y0047299D01*
X0157200Y0047296D01*
X0156955Y0047299D01*
X0156709Y0047308D01*
X0156464Y0047323D01*
X0156220Y0047344D01*
X0155976Y0047371D01*
X0155733Y0047404D01*
X0155490Y0047443D01*
X0155249Y0047488D01*
X0155009Y0047539D01*
X0154770Y0047596D01*
X0154533Y0047658D01*
X0154297Y0047727D01*
X0154063Y0047801D01*
X0153831Y0047881D01*
X0153601Y0047966D01*
X0153373Y0048057D01*
X0153148Y0048154D01*
X0152924Y0048256D01*
X0152704Y0048364D01*
X0152486Y0048477D01*
X0152271Y0048595D01*
X0152059Y0048719D01*
X0151850Y0048847D01*
X0151644Y0048981D01*
X0151442Y0049120D01*
X0151243Y0049264D01*
X0151048Y0049413D01*
X0150856Y0049566D01*
X0150668Y0049724D01*
X0150484Y0049886D01*
X0150305Y0050054D01*
X0150129Y0050225D01*
X0149958Y0050401D01*
X0149790Y0050580D01*
X0149628Y0050764D01*
X0149470Y0050952D01*
X0149317Y0051144D01*
X0149168Y0051339D01*
X0149024Y0051538D01*
X0148885Y0051740D01*
X0148751Y0051946D01*
X0148623Y0052155D01*
X0148499Y0052367D01*
X0148381Y0052582D01*
X0148268Y0052800D01*
X0148160Y0053020D01*
X0148058Y0053244D01*
X0147961Y0053469D01*
X0147870Y0053697D01*
X0147785Y0053927D01*
X0147705Y0054159D01*
X0147631Y0054393D01*
X0147562Y0054629D01*
X0147500Y0054866D01*
X0147443Y0055105D01*
X0147392Y0055345D01*
X0147347Y0055586D01*
X0147308Y0055829D01*
X0147275Y0056072D01*
X0147248Y0056316D01*
X0147227Y0056560D01*
X0147212Y0056805D01*
X0147203Y0057051D01*
X0147200Y0057296D01*
X0119700Y0057296D02*
X0119703Y0057541D01*
X0119712Y0057787D01*
X0119727Y0058032D01*
X0119748Y0058276D01*
X0119775Y0058520D01*
X0119808Y0058763D01*
X0119847Y0059006D01*
X0119892Y0059247D01*
X0119943Y0059487D01*
X0120000Y0059726D01*
X0120062Y0059963D01*
X0120131Y0060199D01*
X0120205Y0060433D01*
X0120285Y0060665D01*
X0120370Y0060895D01*
X0120461Y0061123D01*
X0120558Y0061348D01*
X0120660Y0061572D01*
X0120768Y0061792D01*
X0120881Y0062010D01*
X0120999Y0062225D01*
X0121123Y0062437D01*
X0121251Y0062646D01*
X0121385Y0062852D01*
X0121524Y0063054D01*
X0121668Y0063253D01*
X0121817Y0063448D01*
X0121970Y0063640D01*
X0122128Y0063828D01*
X0122290Y0064012D01*
X0122458Y0064191D01*
X0122629Y0064367D01*
X0122805Y0064538D01*
X0122984Y0064706D01*
X0123168Y0064868D01*
X0123356Y0065026D01*
X0123548Y0065179D01*
X0123743Y0065328D01*
X0123942Y0065472D01*
X0124144Y0065611D01*
X0124350Y0065745D01*
X0124559Y0065873D01*
X0124771Y0065997D01*
X0124986Y0066115D01*
X0125204Y0066228D01*
X0125424Y0066336D01*
X0125648Y0066438D01*
X0125873Y0066535D01*
X0126101Y0066626D01*
X0126331Y0066711D01*
X0126563Y0066791D01*
X0126797Y0066865D01*
X0127033Y0066934D01*
X0127270Y0066996D01*
X0127509Y0067053D01*
X0127749Y0067104D01*
X0127990Y0067149D01*
X0128233Y0067188D01*
X0128476Y0067221D01*
X0128720Y0067248D01*
X0128964Y0067269D01*
X0129209Y0067284D01*
X0129455Y0067293D01*
X0129700Y0067296D01*
X0129945Y0067293D01*
X0130191Y0067284D01*
X0130436Y0067269D01*
X0130680Y0067248D01*
X0130924Y0067221D01*
X0131167Y0067188D01*
X0131410Y0067149D01*
X0131651Y0067104D01*
X0131891Y0067053D01*
X0132130Y0066996D01*
X0132367Y0066934D01*
X0132603Y0066865D01*
X0132837Y0066791D01*
X0133069Y0066711D01*
X0133299Y0066626D01*
X0133527Y0066535D01*
X0133752Y0066438D01*
X0133976Y0066336D01*
X0134196Y0066228D01*
X0134414Y0066115D01*
X0134629Y0065997D01*
X0134841Y0065873D01*
X0135050Y0065745D01*
X0135256Y0065611D01*
X0135458Y0065472D01*
X0135657Y0065328D01*
X0135852Y0065179D01*
X0136044Y0065026D01*
X0136232Y0064868D01*
X0136416Y0064706D01*
X0136595Y0064538D01*
X0136771Y0064367D01*
X0136942Y0064191D01*
X0137110Y0064012D01*
X0137272Y0063828D01*
X0137430Y0063640D01*
X0137583Y0063448D01*
X0137732Y0063253D01*
X0137876Y0063054D01*
X0138015Y0062852D01*
X0138149Y0062646D01*
X0138277Y0062437D01*
X0138401Y0062225D01*
X0138519Y0062010D01*
X0138632Y0061792D01*
X0138740Y0061572D01*
X0138842Y0061348D01*
X0138939Y0061123D01*
X0139030Y0060895D01*
X0139115Y0060665D01*
X0139195Y0060433D01*
X0139269Y0060199D01*
X0139338Y0059963D01*
X0139400Y0059726D01*
X0139457Y0059487D01*
X0139508Y0059247D01*
X0139553Y0059006D01*
X0139592Y0058763D01*
X0139625Y0058520D01*
X0139652Y0058276D01*
X0139673Y0058032D01*
X0139688Y0057787D01*
X0139697Y0057541D01*
X0139700Y0057296D01*
X0139697Y0057051D01*
X0139688Y0056805D01*
X0139673Y0056560D01*
X0139652Y0056316D01*
X0139625Y0056072D01*
X0139592Y0055829D01*
X0139553Y0055586D01*
X0139508Y0055345D01*
X0139457Y0055105D01*
X0139400Y0054866D01*
X0139338Y0054629D01*
X0139269Y0054393D01*
X0139195Y0054159D01*
X0139115Y0053927D01*
X0139030Y0053697D01*
X0138939Y0053469D01*
X0138842Y0053244D01*
X0138740Y0053020D01*
X0138632Y0052800D01*
X0138519Y0052582D01*
X0138401Y0052367D01*
X0138277Y0052155D01*
X0138149Y0051946D01*
X0138015Y0051740D01*
X0137876Y0051538D01*
X0137732Y0051339D01*
X0137583Y0051144D01*
X0137430Y0050952D01*
X0137272Y0050764D01*
X0137110Y0050580D01*
X0136942Y0050401D01*
X0136771Y0050225D01*
X0136595Y0050054D01*
X0136416Y0049886D01*
X0136232Y0049724D01*
X0136044Y0049566D01*
X0135852Y0049413D01*
X0135657Y0049264D01*
X0135458Y0049120D01*
X0135256Y0048981D01*
X0135050Y0048847D01*
X0134841Y0048719D01*
X0134629Y0048595D01*
X0134414Y0048477D01*
X0134196Y0048364D01*
X0133976Y0048256D01*
X0133752Y0048154D01*
X0133527Y0048057D01*
X0133299Y0047966D01*
X0133069Y0047881D01*
X0132837Y0047801D01*
X0132603Y0047727D01*
X0132367Y0047658D01*
X0132130Y0047596D01*
X0131891Y0047539D01*
X0131651Y0047488D01*
X0131410Y0047443D01*
X0131167Y0047404D01*
X0130924Y0047371D01*
X0130680Y0047344D01*
X0130436Y0047323D01*
X0130191Y0047308D01*
X0129945Y0047299D01*
X0129700Y0047296D01*
X0129455Y0047299D01*
X0129209Y0047308D01*
X0128964Y0047323D01*
X0128720Y0047344D01*
X0128476Y0047371D01*
X0128233Y0047404D01*
X0127990Y0047443D01*
X0127749Y0047488D01*
X0127509Y0047539D01*
X0127270Y0047596D01*
X0127033Y0047658D01*
X0126797Y0047727D01*
X0126563Y0047801D01*
X0126331Y0047881D01*
X0126101Y0047966D01*
X0125873Y0048057D01*
X0125648Y0048154D01*
X0125424Y0048256D01*
X0125204Y0048364D01*
X0124986Y0048477D01*
X0124771Y0048595D01*
X0124559Y0048719D01*
X0124350Y0048847D01*
X0124144Y0048981D01*
X0123942Y0049120D01*
X0123743Y0049264D01*
X0123548Y0049413D01*
X0123356Y0049566D01*
X0123168Y0049724D01*
X0122984Y0049886D01*
X0122805Y0050054D01*
X0122629Y0050225D01*
X0122458Y0050401D01*
X0122290Y0050580D01*
X0122128Y0050764D01*
X0121970Y0050952D01*
X0121817Y0051144D01*
X0121668Y0051339D01*
X0121524Y0051538D01*
X0121385Y0051740D01*
X0121251Y0051946D01*
X0121123Y0052155D01*
X0120999Y0052367D01*
X0120881Y0052582D01*
X0120768Y0052800D01*
X0120660Y0053020D01*
X0120558Y0053244D01*
X0120461Y0053469D01*
X0120370Y0053697D01*
X0120285Y0053927D01*
X0120205Y0054159D01*
X0120131Y0054393D01*
X0120062Y0054629D01*
X0120000Y0054866D01*
X0119943Y0055105D01*
X0119892Y0055345D01*
X0119847Y0055586D01*
X0119808Y0055829D01*
X0119775Y0056072D01*
X0119748Y0056316D01*
X0119727Y0056560D01*
X0119712Y0056805D01*
X0119703Y0057051D01*
X0119700Y0057296D01*
X0092200Y0057296D02*
X0092203Y0057541D01*
X0092212Y0057787D01*
X0092227Y0058032D01*
X0092248Y0058276D01*
X0092275Y0058520D01*
X0092308Y0058763D01*
X0092347Y0059006D01*
X0092392Y0059247D01*
X0092443Y0059487D01*
X0092500Y0059726D01*
X0092562Y0059963D01*
X0092631Y0060199D01*
X0092705Y0060433D01*
X0092785Y0060665D01*
X0092870Y0060895D01*
X0092961Y0061123D01*
X0093058Y0061348D01*
X0093160Y0061572D01*
X0093268Y0061792D01*
X0093381Y0062010D01*
X0093499Y0062225D01*
X0093623Y0062437D01*
X0093751Y0062646D01*
X0093885Y0062852D01*
X0094024Y0063054D01*
X0094168Y0063253D01*
X0094317Y0063448D01*
X0094470Y0063640D01*
X0094628Y0063828D01*
X0094790Y0064012D01*
X0094958Y0064191D01*
X0095129Y0064367D01*
X0095305Y0064538D01*
X0095484Y0064706D01*
X0095668Y0064868D01*
X0095856Y0065026D01*
X0096048Y0065179D01*
X0096243Y0065328D01*
X0096442Y0065472D01*
X0096644Y0065611D01*
X0096850Y0065745D01*
X0097059Y0065873D01*
X0097271Y0065997D01*
X0097486Y0066115D01*
X0097704Y0066228D01*
X0097924Y0066336D01*
X0098148Y0066438D01*
X0098373Y0066535D01*
X0098601Y0066626D01*
X0098831Y0066711D01*
X0099063Y0066791D01*
X0099297Y0066865D01*
X0099533Y0066934D01*
X0099770Y0066996D01*
X0100009Y0067053D01*
X0100249Y0067104D01*
X0100490Y0067149D01*
X0100733Y0067188D01*
X0100976Y0067221D01*
X0101220Y0067248D01*
X0101464Y0067269D01*
X0101709Y0067284D01*
X0101955Y0067293D01*
X0102200Y0067296D01*
X0102445Y0067293D01*
X0102691Y0067284D01*
X0102936Y0067269D01*
X0103180Y0067248D01*
X0103424Y0067221D01*
X0103667Y0067188D01*
X0103910Y0067149D01*
X0104151Y0067104D01*
X0104391Y0067053D01*
X0104630Y0066996D01*
X0104867Y0066934D01*
X0105103Y0066865D01*
X0105337Y0066791D01*
X0105569Y0066711D01*
X0105799Y0066626D01*
X0106027Y0066535D01*
X0106252Y0066438D01*
X0106476Y0066336D01*
X0106696Y0066228D01*
X0106914Y0066115D01*
X0107129Y0065997D01*
X0107341Y0065873D01*
X0107550Y0065745D01*
X0107756Y0065611D01*
X0107958Y0065472D01*
X0108157Y0065328D01*
X0108352Y0065179D01*
X0108544Y0065026D01*
X0108732Y0064868D01*
X0108916Y0064706D01*
X0109095Y0064538D01*
X0109271Y0064367D01*
X0109442Y0064191D01*
X0109610Y0064012D01*
X0109772Y0063828D01*
X0109930Y0063640D01*
X0110083Y0063448D01*
X0110232Y0063253D01*
X0110376Y0063054D01*
X0110515Y0062852D01*
X0110649Y0062646D01*
X0110777Y0062437D01*
X0110901Y0062225D01*
X0111019Y0062010D01*
X0111132Y0061792D01*
X0111240Y0061572D01*
X0111342Y0061348D01*
X0111439Y0061123D01*
X0111530Y0060895D01*
X0111615Y0060665D01*
X0111695Y0060433D01*
X0111769Y0060199D01*
X0111838Y0059963D01*
X0111900Y0059726D01*
X0111957Y0059487D01*
X0112008Y0059247D01*
X0112053Y0059006D01*
X0112092Y0058763D01*
X0112125Y0058520D01*
X0112152Y0058276D01*
X0112173Y0058032D01*
X0112188Y0057787D01*
X0112197Y0057541D01*
X0112200Y0057296D01*
X0112197Y0057051D01*
X0112188Y0056805D01*
X0112173Y0056560D01*
X0112152Y0056316D01*
X0112125Y0056072D01*
X0112092Y0055829D01*
X0112053Y0055586D01*
X0112008Y0055345D01*
X0111957Y0055105D01*
X0111900Y0054866D01*
X0111838Y0054629D01*
X0111769Y0054393D01*
X0111695Y0054159D01*
X0111615Y0053927D01*
X0111530Y0053697D01*
X0111439Y0053469D01*
X0111342Y0053244D01*
X0111240Y0053020D01*
X0111132Y0052800D01*
X0111019Y0052582D01*
X0110901Y0052367D01*
X0110777Y0052155D01*
X0110649Y0051946D01*
X0110515Y0051740D01*
X0110376Y0051538D01*
X0110232Y0051339D01*
X0110083Y0051144D01*
X0109930Y0050952D01*
X0109772Y0050764D01*
X0109610Y0050580D01*
X0109442Y0050401D01*
X0109271Y0050225D01*
X0109095Y0050054D01*
X0108916Y0049886D01*
X0108732Y0049724D01*
X0108544Y0049566D01*
X0108352Y0049413D01*
X0108157Y0049264D01*
X0107958Y0049120D01*
X0107756Y0048981D01*
X0107550Y0048847D01*
X0107341Y0048719D01*
X0107129Y0048595D01*
X0106914Y0048477D01*
X0106696Y0048364D01*
X0106476Y0048256D01*
X0106252Y0048154D01*
X0106027Y0048057D01*
X0105799Y0047966D01*
X0105569Y0047881D01*
X0105337Y0047801D01*
X0105103Y0047727D01*
X0104867Y0047658D01*
X0104630Y0047596D01*
X0104391Y0047539D01*
X0104151Y0047488D01*
X0103910Y0047443D01*
X0103667Y0047404D01*
X0103424Y0047371D01*
X0103180Y0047344D01*
X0102936Y0047323D01*
X0102691Y0047308D01*
X0102445Y0047299D01*
X0102200Y0047296D01*
X0101955Y0047299D01*
X0101709Y0047308D01*
X0101464Y0047323D01*
X0101220Y0047344D01*
X0100976Y0047371D01*
X0100733Y0047404D01*
X0100490Y0047443D01*
X0100249Y0047488D01*
X0100009Y0047539D01*
X0099770Y0047596D01*
X0099533Y0047658D01*
X0099297Y0047727D01*
X0099063Y0047801D01*
X0098831Y0047881D01*
X0098601Y0047966D01*
X0098373Y0048057D01*
X0098148Y0048154D01*
X0097924Y0048256D01*
X0097704Y0048364D01*
X0097486Y0048477D01*
X0097271Y0048595D01*
X0097059Y0048719D01*
X0096850Y0048847D01*
X0096644Y0048981D01*
X0096442Y0049120D01*
X0096243Y0049264D01*
X0096048Y0049413D01*
X0095856Y0049566D01*
X0095668Y0049724D01*
X0095484Y0049886D01*
X0095305Y0050054D01*
X0095129Y0050225D01*
X0094958Y0050401D01*
X0094790Y0050580D01*
X0094628Y0050764D01*
X0094470Y0050952D01*
X0094317Y0051144D01*
X0094168Y0051339D01*
X0094024Y0051538D01*
X0093885Y0051740D01*
X0093751Y0051946D01*
X0093623Y0052155D01*
X0093499Y0052367D01*
X0093381Y0052582D01*
X0093268Y0052800D01*
X0093160Y0053020D01*
X0093058Y0053244D01*
X0092961Y0053469D01*
X0092870Y0053697D01*
X0092785Y0053927D01*
X0092705Y0054159D01*
X0092631Y0054393D01*
X0092562Y0054629D01*
X0092500Y0054866D01*
X0092443Y0055105D01*
X0092392Y0055345D01*
X0092347Y0055586D01*
X0092308Y0055829D01*
X0092275Y0056072D01*
X0092248Y0056316D01*
X0092227Y0056560D01*
X0092212Y0056805D01*
X0092203Y0057051D01*
X0092200Y0057296D01*
X0064700Y0057296D02*
X0064703Y0057541D01*
X0064712Y0057787D01*
X0064727Y0058032D01*
X0064748Y0058276D01*
X0064775Y0058520D01*
X0064808Y0058763D01*
X0064847Y0059006D01*
X0064892Y0059247D01*
X0064943Y0059487D01*
X0065000Y0059726D01*
X0065062Y0059963D01*
X0065131Y0060199D01*
X0065205Y0060433D01*
X0065285Y0060665D01*
X0065370Y0060895D01*
X0065461Y0061123D01*
X0065558Y0061348D01*
X0065660Y0061572D01*
X0065768Y0061792D01*
X0065881Y0062010D01*
X0065999Y0062225D01*
X0066123Y0062437D01*
X0066251Y0062646D01*
X0066385Y0062852D01*
X0066524Y0063054D01*
X0066668Y0063253D01*
X0066817Y0063448D01*
X0066970Y0063640D01*
X0067128Y0063828D01*
X0067290Y0064012D01*
X0067458Y0064191D01*
X0067629Y0064367D01*
X0067805Y0064538D01*
X0067984Y0064706D01*
X0068168Y0064868D01*
X0068356Y0065026D01*
X0068548Y0065179D01*
X0068743Y0065328D01*
X0068942Y0065472D01*
X0069144Y0065611D01*
X0069350Y0065745D01*
X0069559Y0065873D01*
X0069771Y0065997D01*
X0069986Y0066115D01*
X0070204Y0066228D01*
X0070424Y0066336D01*
X0070648Y0066438D01*
X0070873Y0066535D01*
X0071101Y0066626D01*
X0071331Y0066711D01*
X0071563Y0066791D01*
X0071797Y0066865D01*
X0072033Y0066934D01*
X0072270Y0066996D01*
X0072509Y0067053D01*
X0072749Y0067104D01*
X0072990Y0067149D01*
X0073233Y0067188D01*
X0073476Y0067221D01*
X0073720Y0067248D01*
X0073964Y0067269D01*
X0074209Y0067284D01*
X0074455Y0067293D01*
X0074700Y0067296D01*
X0074945Y0067293D01*
X0075191Y0067284D01*
X0075436Y0067269D01*
X0075680Y0067248D01*
X0075924Y0067221D01*
X0076167Y0067188D01*
X0076410Y0067149D01*
X0076651Y0067104D01*
X0076891Y0067053D01*
X0077130Y0066996D01*
X0077367Y0066934D01*
X0077603Y0066865D01*
X0077837Y0066791D01*
X0078069Y0066711D01*
X0078299Y0066626D01*
X0078527Y0066535D01*
X0078752Y0066438D01*
X0078976Y0066336D01*
X0079196Y0066228D01*
X0079414Y0066115D01*
X0079629Y0065997D01*
X0079841Y0065873D01*
X0080050Y0065745D01*
X0080256Y0065611D01*
X0080458Y0065472D01*
X0080657Y0065328D01*
X0080852Y0065179D01*
X0081044Y0065026D01*
X0081232Y0064868D01*
X0081416Y0064706D01*
X0081595Y0064538D01*
X0081771Y0064367D01*
X0081942Y0064191D01*
X0082110Y0064012D01*
X0082272Y0063828D01*
X0082430Y0063640D01*
X0082583Y0063448D01*
X0082732Y0063253D01*
X0082876Y0063054D01*
X0083015Y0062852D01*
X0083149Y0062646D01*
X0083277Y0062437D01*
X0083401Y0062225D01*
X0083519Y0062010D01*
X0083632Y0061792D01*
X0083740Y0061572D01*
X0083842Y0061348D01*
X0083939Y0061123D01*
X0084030Y0060895D01*
X0084115Y0060665D01*
X0084195Y0060433D01*
X0084269Y0060199D01*
X0084338Y0059963D01*
X0084400Y0059726D01*
X0084457Y0059487D01*
X0084508Y0059247D01*
X0084553Y0059006D01*
X0084592Y0058763D01*
X0084625Y0058520D01*
X0084652Y0058276D01*
X0084673Y0058032D01*
X0084688Y0057787D01*
X0084697Y0057541D01*
X0084700Y0057296D01*
X0084697Y0057051D01*
X0084688Y0056805D01*
X0084673Y0056560D01*
X0084652Y0056316D01*
X0084625Y0056072D01*
X0084592Y0055829D01*
X0084553Y0055586D01*
X0084508Y0055345D01*
X0084457Y0055105D01*
X0084400Y0054866D01*
X0084338Y0054629D01*
X0084269Y0054393D01*
X0084195Y0054159D01*
X0084115Y0053927D01*
X0084030Y0053697D01*
X0083939Y0053469D01*
X0083842Y0053244D01*
X0083740Y0053020D01*
X0083632Y0052800D01*
X0083519Y0052582D01*
X0083401Y0052367D01*
X0083277Y0052155D01*
X0083149Y0051946D01*
X0083015Y0051740D01*
X0082876Y0051538D01*
X0082732Y0051339D01*
X0082583Y0051144D01*
X0082430Y0050952D01*
X0082272Y0050764D01*
X0082110Y0050580D01*
X0081942Y0050401D01*
X0081771Y0050225D01*
X0081595Y0050054D01*
X0081416Y0049886D01*
X0081232Y0049724D01*
X0081044Y0049566D01*
X0080852Y0049413D01*
X0080657Y0049264D01*
X0080458Y0049120D01*
X0080256Y0048981D01*
X0080050Y0048847D01*
X0079841Y0048719D01*
X0079629Y0048595D01*
X0079414Y0048477D01*
X0079196Y0048364D01*
X0078976Y0048256D01*
X0078752Y0048154D01*
X0078527Y0048057D01*
X0078299Y0047966D01*
X0078069Y0047881D01*
X0077837Y0047801D01*
X0077603Y0047727D01*
X0077367Y0047658D01*
X0077130Y0047596D01*
X0076891Y0047539D01*
X0076651Y0047488D01*
X0076410Y0047443D01*
X0076167Y0047404D01*
X0075924Y0047371D01*
X0075680Y0047344D01*
X0075436Y0047323D01*
X0075191Y0047308D01*
X0074945Y0047299D01*
X0074700Y0047296D01*
X0074455Y0047299D01*
X0074209Y0047308D01*
X0073964Y0047323D01*
X0073720Y0047344D01*
X0073476Y0047371D01*
X0073233Y0047404D01*
X0072990Y0047443D01*
X0072749Y0047488D01*
X0072509Y0047539D01*
X0072270Y0047596D01*
X0072033Y0047658D01*
X0071797Y0047727D01*
X0071563Y0047801D01*
X0071331Y0047881D01*
X0071101Y0047966D01*
X0070873Y0048057D01*
X0070648Y0048154D01*
X0070424Y0048256D01*
X0070204Y0048364D01*
X0069986Y0048477D01*
X0069771Y0048595D01*
X0069559Y0048719D01*
X0069350Y0048847D01*
X0069144Y0048981D01*
X0068942Y0049120D01*
X0068743Y0049264D01*
X0068548Y0049413D01*
X0068356Y0049566D01*
X0068168Y0049724D01*
X0067984Y0049886D01*
X0067805Y0050054D01*
X0067629Y0050225D01*
X0067458Y0050401D01*
X0067290Y0050580D01*
X0067128Y0050764D01*
X0066970Y0050952D01*
X0066817Y0051144D01*
X0066668Y0051339D01*
X0066524Y0051538D01*
X0066385Y0051740D01*
X0066251Y0051946D01*
X0066123Y0052155D01*
X0065999Y0052367D01*
X0065881Y0052582D01*
X0065768Y0052800D01*
X0065660Y0053020D01*
X0065558Y0053244D01*
X0065461Y0053469D01*
X0065370Y0053697D01*
X0065285Y0053927D01*
X0065205Y0054159D01*
X0065131Y0054393D01*
X0065062Y0054629D01*
X0065000Y0054866D01*
X0064943Y0055105D01*
X0064892Y0055345D01*
X0064847Y0055586D01*
X0064808Y0055829D01*
X0064775Y0056072D01*
X0064748Y0056316D01*
X0064727Y0056560D01*
X0064712Y0056805D01*
X0064703Y0057051D01*
X0064700Y0057296D01*
X0037200Y0057296D02*
X0037203Y0057541D01*
X0037212Y0057787D01*
X0037227Y0058032D01*
X0037248Y0058276D01*
X0037275Y0058520D01*
X0037308Y0058763D01*
X0037347Y0059006D01*
X0037392Y0059247D01*
X0037443Y0059487D01*
X0037500Y0059726D01*
X0037562Y0059963D01*
X0037631Y0060199D01*
X0037705Y0060433D01*
X0037785Y0060665D01*
X0037870Y0060895D01*
X0037961Y0061123D01*
X0038058Y0061348D01*
X0038160Y0061572D01*
X0038268Y0061792D01*
X0038381Y0062010D01*
X0038499Y0062225D01*
X0038623Y0062437D01*
X0038751Y0062646D01*
X0038885Y0062852D01*
X0039024Y0063054D01*
X0039168Y0063253D01*
X0039317Y0063448D01*
X0039470Y0063640D01*
X0039628Y0063828D01*
X0039790Y0064012D01*
X0039958Y0064191D01*
X0040129Y0064367D01*
X0040305Y0064538D01*
X0040484Y0064706D01*
X0040668Y0064868D01*
X0040856Y0065026D01*
X0041048Y0065179D01*
X0041243Y0065328D01*
X0041442Y0065472D01*
X0041644Y0065611D01*
X0041850Y0065745D01*
X0042059Y0065873D01*
X0042271Y0065997D01*
X0042486Y0066115D01*
X0042704Y0066228D01*
X0042924Y0066336D01*
X0043148Y0066438D01*
X0043373Y0066535D01*
X0043601Y0066626D01*
X0043831Y0066711D01*
X0044063Y0066791D01*
X0044297Y0066865D01*
X0044533Y0066934D01*
X0044770Y0066996D01*
X0045009Y0067053D01*
X0045249Y0067104D01*
X0045490Y0067149D01*
X0045733Y0067188D01*
X0045976Y0067221D01*
X0046220Y0067248D01*
X0046464Y0067269D01*
X0046709Y0067284D01*
X0046955Y0067293D01*
X0047200Y0067296D01*
X0047445Y0067293D01*
X0047691Y0067284D01*
X0047936Y0067269D01*
X0048180Y0067248D01*
X0048424Y0067221D01*
X0048667Y0067188D01*
X0048910Y0067149D01*
X0049151Y0067104D01*
X0049391Y0067053D01*
X0049630Y0066996D01*
X0049867Y0066934D01*
X0050103Y0066865D01*
X0050337Y0066791D01*
X0050569Y0066711D01*
X0050799Y0066626D01*
X0051027Y0066535D01*
X0051252Y0066438D01*
X0051476Y0066336D01*
X0051696Y0066228D01*
X0051914Y0066115D01*
X0052129Y0065997D01*
X0052341Y0065873D01*
X0052550Y0065745D01*
X0052756Y0065611D01*
X0052958Y0065472D01*
X0053157Y0065328D01*
X0053352Y0065179D01*
X0053544Y0065026D01*
X0053732Y0064868D01*
X0053916Y0064706D01*
X0054095Y0064538D01*
X0054271Y0064367D01*
X0054442Y0064191D01*
X0054610Y0064012D01*
X0054772Y0063828D01*
X0054930Y0063640D01*
X0055083Y0063448D01*
X0055232Y0063253D01*
X0055376Y0063054D01*
X0055515Y0062852D01*
X0055649Y0062646D01*
X0055777Y0062437D01*
X0055901Y0062225D01*
X0056019Y0062010D01*
X0056132Y0061792D01*
X0056240Y0061572D01*
X0056342Y0061348D01*
X0056439Y0061123D01*
X0056530Y0060895D01*
X0056615Y0060665D01*
X0056695Y0060433D01*
X0056769Y0060199D01*
X0056838Y0059963D01*
X0056900Y0059726D01*
X0056957Y0059487D01*
X0057008Y0059247D01*
X0057053Y0059006D01*
X0057092Y0058763D01*
X0057125Y0058520D01*
X0057152Y0058276D01*
X0057173Y0058032D01*
X0057188Y0057787D01*
X0057197Y0057541D01*
X0057200Y0057296D01*
X0057197Y0057051D01*
X0057188Y0056805D01*
X0057173Y0056560D01*
X0057152Y0056316D01*
X0057125Y0056072D01*
X0057092Y0055829D01*
X0057053Y0055586D01*
X0057008Y0055345D01*
X0056957Y0055105D01*
X0056900Y0054866D01*
X0056838Y0054629D01*
X0056769Y0054393D01*
X0056695Y0054159D01*
X0056615Y0053927D01*
X0056530Y0053697D01*
X0056439Y0053469D01*
X0056342Y0053244D01*
X0056240Y0053020D01*
X0056132Y0052800D01*
X0056019Y0052582D01*
X0055901Y0052367D01*
X0055777Y0052155D01*
X0055649Y0051946D01*
X0055515Y0051740D01*
X0055376Y0051538D01*
X0055232Y0051339D01*
X0055083Y0051144D01*
X0054930Y0050952D01*
X0054772Y0050764D01*
X0054610Y0050580D01*
X0054442Y0050401D01*
X0054271Y0050225D01*
X0054095Y0050054D01*
X0053916Y0049886D01*
X0053732Y0049724D01*
X0053544Y0049566D01*
X0053352Y0049413D01*
X0053157Y0049264D01*
X0052958Y0049120D01*
X0052756Y0048981D01*
X0052550Y0048847D01*
X0052341Y0048719D01*
X0052129Y0048595D01*
X0051914Y0048477D01*
X0051696Y0048364D01*
X0051476Y0048256D01*
X0051252Y0048154D01*
X0051027Y0048057D01*
X0050799Y0047966D01*
X0050569Y0047881D01*
X0050337Y0047801D01*
X0050103Y0047727D01*
X0049867Y0047658D01*
X0049630Y0047596D01*
X0049391Y0047539D01*
X0049151Y0047488D01*
X0048910Y0047443D01*
X0048667Y0047404D01*
X0048424Y0047371D01*
X0048180Y0047344D01*
X0047936Y0047323D01*
X0047691Y0047308D01*
X0047445Y0047299D01*
X0047200Y0047296D01*
X0046955Y0047299D01*
X0046709Y0047308D01*
X0046464Y0047323D01*
X0046220Y0047344D01*
X0045976Y0047371D01*
X0045733Y0047404D01*
X0045490Y0047443D01*
X0045249Y0047488D01*
X0045009Y0047539D01*
X0044770Y0047596D01*
X0044533Y0047658D01*
X0044297Y0047727D01*
X0044063Y0047801D01*
X0043831Y0047881D01*
X0043601Y0047966D01*
X0043373Y0048057D01*
X0043148Y0048154D01*
X0042924Y0048256D01*
X0042704Y0048364D01*
X0042486Y0048477D01*
X0042271Y0048595D01*
X0042059Y0048719D01*
X0041850Y0048847D01*
X0041644Y0048981D01*
X0041442Y0049120D01*
X0041243Y0049264D01*
X0041048Y0049413D01*
X0040856Y0049566D01*
X0040668Y0049724D01*
X0040484Y0049886D01*
X0040305Y0050054D01*
X0040129Y0050225D01*
X0039958Y0050401D01*
X0039790Y0050580D01*
X0039628Y0050764D01*
X0039470Y0050952D01*
X0039317Y0051144D01*
X0039168Y0051339D01*
X0039024Y0051538D01*
X0038885Y0051740D01*
X0038751Y0051946D01*
X0038623Y0052155D01*
X0038499Y0052367D01*
X0038381Y0052582D01*
X0038268Y0052800D01*
X0038160Y0053020D01*
X0038058Y0053244D01*
X0037961Y0053469D01*
X0037870Y0053697D01*
X0037785Y0053927D01*
X0037705Y0054159D01*
X0037631Y0054393D01*
X0037562Y0054629D01*
X0037500Y0054866D01*
X0037443Y0055105D01*
X0037392Y0055345D01*
X0037347Y0055586D01*
X0037308Y0055829D01*
X0037275Y0056072D01*
X0037248Y0056316D01*
X0037227Y0056560D01*
X0037212Y0056805D01*
X0037203Y0057051D01*
X0037200Y0057296D01*
X0034950Y0211046D02*
X0046450Y0211046D01*
D12*
X0036350Y0209246D03*
X0090100Y0209246D03*
X0145100Y0209246D03*
X0200100Y0209246D03*
D13*
X0195650Y0209694D02*
X0195650Y0206692D01*
X0195650Y0208193D02*
X0191146Y0208193D01*
X0192647Y0206692D01*
X0196401Y0205090D02*
X0196401Y0202088D01*
X0195650Y0200486D02*
X0195650Y0197484D01*
X0192647Y0200486D01*
X0191897Y0200486D01*
X0191146Y0199736D01*
X0191146Y0198234D01*
X0191897Y0197484D01*
X0191897Y0195882D02*
X0192647Y0195882D01*
X0193398Y0195132D01*
X0194149Y0195882D01*
X0194899Y0195882D01*
X0195650Y0195132D01*
X0195650Y0193630D01*
X0194899Y0192880D01*
X0195650Y0191278D02*
X0195650Y0188276D01*
X0192647Y0191278D01*
X0191897Y0191278D01*
X0191146Y0190528D01*
X0191146Y0189027D01*
X0191897Y0188276D01*
X0191897Y0186674D02*
X0191146Y0185924D01*
X0191146Y0184423D01*
X0191897Y0183672D01*
X0191146Y0182071D02*
X0194149Y0179068D01*
X0193398Y0179819D02*
X0195650Y0182071D01*
X0195650Y0183672D02*
X0192647Y0186674D01*
X0191897Y0186674D01*
X0195650Y0186674D02*
X0195650Y0183672D01*
X0195650Y0179068D02*
X0191146Y0179068D01*
X0191897Y0177467D02*
X0191146Y0176716D01*
X0191146Y0175215D01*
X0191897Y0174464D01*
X0192647Y0174464D01*
X0193398Y0175215D01*
X0193398Y0176716D01*
X0194149Y0177467D01*
X0194899Y0177467D01*
X0195650Y0176716D01*
X0195650Y0175215D01*
X0194899Y0174464D01*
X0195650Y0172863D02*
X0195650Y0169860D01*
X0192647Y0172863D01*
X0191897Y0172863D01*
X0191146Y0172112D01*
X0191146Y0170611D01*
X0191897Y0169860D01*
X0180950Y0163899D02*
X0180199Y0163899D01*
X0177197Y0166902D01*
X0176446Y0166902D01*
X0176446Y0163899D01*
X0177197Y0162298D02*
X0178698Y0162298D01*
X0179449Y0161547D01*
X0179449Y0159296D01*
X0179449Y0160797D02*
X0180950Y0162298D01*
X0180950Y0159296D02*
X0176446Y0159296D01*
X0176446Y0161547D01*
X0177197Y0162298D01*
X0175450Y0184088D02*
X0170946Y0184088D01*
X0170946Y0186340D01*
X0171697Y0187090D01*
X0173198Y0187090D01*
X0173949Y0186340D01*
X0173949Y0184088D01*
X0173949Y0185589D02*
X0175450Y0187090D01*
X0174699Y0188692D02*
X0175450Y0189442D01*
X0175450Y0190944D01*
X0174699Y0191694D01*
X0173949Y0191694D01*
X0173198Y0190944D01*
X0173198Y0190193D01*
X0173198Y0190944D02*
X0172447Y0191694D01*
X0171697Y0191694D01*
X0170946Y0190944D01*
X0170946Y0189442D01*
X0171697Y0188692D01*
X0178200Y0190593D02*
X0178200Y0211498D01*
X0174450Y0214546D02*
X0174450Y0216047D01*
X0173699Y0216798D01*
X0169946Y0216798D01*
X0170697Y0218399D02*
X0169946Y0219150D01*
X0169946Y0220651D01*
X0170697Y0221402D01*
X0172198Y0220651D02*
X0172198Y0219150D01*
X0171447Y0218399D01*
X0170697Y0218399D01*
X0169196Y0219901D02*
X0175201Y0219901D01*
X0174450Y0220651D02*
X0174450Y0219150D01*
X0173699Y0218399D01*
X0174450Y0220651D02*
X0173699Y0221402D01*
X0172949Y0221402D01*
X0172198Y0220651D01*
X0172198Y0223003D02*
X0172198Y0226006D01*
X0169946Y0225255D02*
X0172198Y0223003D01*
X0174450Y0225255D02*
X0169946Y0225255D01*
X0174450Y0214546D02*
X0173699Y0213796D01*
X0169946Y0213796D01*
X0160099Y0211799D02*
X0160099Y0211049D01*
X0157096Y0208046D01*
X0157096Y0207296D01*
X0155495Y0208046D02*
X0155495Y0211049D01*
X0154744Y0211799D01*
X0152492Y0211799D01*
X0152492Y0207296D01*
X0154744Y0207296D01*
X0155495Y0208046D01*
X0157096Y0211799D02*
X0160099Y0211799D01*
X0158848Y0218546D02*
X0157347Y0218546D01*
X0156596Y0219296D01*
X0154995Y0219296D02*
X0154995Y0222299D01*
X0154244Y0223049D01*
X0151992Y0223049D01*
X0151992Y0218546D01*
X0154244Y0218546D01*
X0154995Y0219296D01*
X0156596Y0222299D02*
X0157347Y0223049D01*
X0158848Y0223049D01*
X0159599Y0222299D01*
X0159599Y0221548D01*
X0158848Y0220797D01*
X0159599Y0220047D01*
X0159599Y0219296D01*
X0158848Y0218546D01*
X0158848Y0220797D02*
X0158097Y0220797D01*
X0158450Y0239796D02*
X0158450Y0259796D01*
X0088450Y0259796D01*
X0088450Y0239796D01*
X0113450Y0239796D01*
X0113450Y0244796D01*
X0133450Y0244796D01*
X0133450Y0239796D01*
X0158450Y0239796D01*
X0133450Y0239796D02*
X0113450Y0239796D01*
X0115697Y0226006D02*
X0116447Y0226006D01*
X0117198Y0225255D01*
X0117949Y0226006D01*
X0118699Y0226006D01*
X0119450Y0225255D01*
X0119450Y0223754D01*
X0118699Y0223003D01*
X0118699Y0221402D02*
X0117949Y0221402D01*
X0117198Y0220651D01*
X0117198Y0219150D01*
X0116447Y0218399D01*
X0115697Y0218399D01*
X0114946Y0219150D01*
X0114946Y0220651D01*
X0115697Y0221402D01*
X0115697Y0223003D02*
X0114946Y0223754D01*
X0114946Y0225255D01*
X0115697Y0226006D01*
X0117198Y0225255D02*
X0117198Y0224505D01*
X0118699Y0221402D02*
X0119450Y0220651D01*
X0119450Y0219150D01*
X0118699Y0218399D01*
X0118699Y0216798D02*
X0114946Y0216798D01*
X0114946Y0213796D02*
X0118699Y0213796D01*
X0119450Y0214546D01*
X0119450Y0216047D01*
X0118699Y0216798D01*
X0120201Y0219901D02*
X0114196Y0219901D01*
X0105099Y0211799D02*
X0103597Y0211049D01*
X0102096Y0209547D01*
X0104348Y0209547D01*
X0105099Y0208797D01*
X0105099Y0208046D01*
X0104348Y0207296D01*
X0102847Y0207296D01*
X0102096Y0208046D01*
X0102096Y0209547D01*
X0100495Y0208046D02*
X0100495Y0211049D01*
X0099744Y0211799D01*
X0097492Y0211799D01*
X0097492Y0207296D01*
X0099744Y0207296D01*
X0100495Y0208046D01*
X0101596Y0218546D02*
X0104599Y0221548D01*
X0104599Y0222299D01*
X0103848Y0223049D01*
X0102347Y0223049D01*
X0101596Y0222299D01*
X0099995Y0222299D02*
X0099244Y0223049D01*
X0096992Y0223049D01*
X0096992Y0218546D01*
X0099244Y0218546D01*
X0099995Y0219296D01*
X0099995Y0222299D01*
X0101596Y0218546D02*
X0104599Y0218546D01*
X0085650Y0208943D02*
X0085650Y0207442D01*
X0084899Y0206692D01*
X0083398Y0208193D02*
X0083398Y0208943D01*
X0084149Y0209694D01*
X0084899Y0209694D01*
X0085650Y0208943D01*
X0083398Y0208943D02*
X0082647Y0209694D01*
X0081897Y0209694D01*
X0081146Y0208943D01*
X0081146Y0207442D01*
X0081897Y0206692D01*
X0086401Y0205090D02*
X0086401Y0202088D01*
X0085650Y0200486D02*
X0085650Y0197484D01*
X0082647Y0200486D01*
X0081897Y0200486D01*
X0081146Y0199736D01*
X0081146Y0198234D01*
X0081897Y0197484D01*
X0081897Y0195882D02*
X0082647Y0195882D01*
X0083398Y0195132D01*
X0084149Y0195882D01*
X0084899Y0195882D01*
X0085650Y0195132D01*
X0085650Y0193630D01*
X0084899Y0192880D01*
X0085650Y0191278D02*
X0085650Y0188276D01*
X0082647Y0191278D01*
X0081897Y0191278D01*
X0081146Y0190528D01*
X0081146Y0189027D01*
X0081897Y0188276D01*
X0081897Y0186674D02*
X0081146Y0185924D01*
X0081146Y0184423D01*
X0081897Y0183672D01*
X0081146Y0182071D02*
X0084149Y0179068D01*
X0083398Y0179819D02*
X0085650Y0182071D01*
X0085650Y0183672D02*
X0082647Y0186674D01*
X0081897Y0186674D01*
X0085650Y0186674D02*
X0085650Y0183672D01*
X0085650Y0179068D02*
X0081146Y0179068D01*
X0081897Y0177467D02*
X0081146Y0176716D01*
X0081146Y0175215D01*
X0081897Y0174464D01*
X0082647Y0174464D01*
X0083398Y0175215D01*
X0083398Y0176716D01*
X0084149Y0177467D01*
X0084899Y0177467D01*
X0085650Y0176716D01*
X0085650Y0175215D01*
X0084899Y0174464D01*
X0085650Y0172863D02*
X0085650Y0169860D01*
X0082647Y0172863D01*
X0081897Y0172863D01*
X0081146Y0172112D01*
X0081146Y0170611D01*
X0081897Y0169860D01*
X0070950Y0166151D02*
X0070950Y0164650D01*
X0070199Y0163899D01*
X0068698Y0163899D02*
X0067947Y0165401D01*
X0067947Y0166151D01*
X0068698Y0166902D01*
X0070199Y0166902D01*
X0070950Y0166151D01*
X0068698Y0163899D02*
X0066446Y0163899D01*
X0066446Y0166902D01*
X0067197Y0162298D02*
X0068698Y0162298D01*
X0069449Y0161547D01*
X0069449Y0159296D01*
X0069449Y0160797D02*
X0070950Y0162298D01*
X0070950Y0159296D02*
X0066446Y0159296D01*
X0066446Y0161547D01*
X0067197Y0162298D01*
X0066700Y0184088D02*
X0062196Y0184088D01*
X0062196Y0186340D01*
X0062947Y0187090D01*
X0064448Y0187090D01*
X0065199Y0186340D01*
X0065199Y0184088D01*
X0065199Y0185589D02*
X0066700Y0187090D01*
X0066700Y0188692D02*
X0066700Y0191694D01*
X0066700Y0190193D02*
X0062196Y0190193D01*
X0063697Y0188692D01*
X0069450Y0190593D02*
X0069450Y0211498D01*
X0065700Y0214546D02*
X0065700Y0216047D01*
X0064949Y0216798D01*
X0061196Y0216798D01*
X0061947Y0218399D02*
X0061196Y0219150D01*
X0061196Y0220651D01*
X0061947Y0221402D01*
X0061947Y0223003D02*
X0061196Y0223754D01*
X0061196Y0225255D01*
X0061947Y0226006D01*
X0062697Y0226006D01*
X0065700Y0223003D01*
X0065700Y0226006D01*
X0064949Y0221402D02*
X0064199Y0221402D01*
X0063448Y0220651D01*
X0063448Y0219150D01*
X0062697Y0218399D01*
X0061947Y0218399D01*
X0060446Y0219901D02*
X0066451Y0219901D01*
X0065700Y0220651D02*
X0065700Y0219150D01*
X0064949Y0218399D01*
X0065700Y0220651D02*
X0064949Y0221402D01*
X0065700Y0214546D02*
X0064949Y0213796D01*
X0061196Y0213796D01*
X0051349Y0211799D02*
X0048346Y0211799D01*
X0048346Y0209547D01*
X0049847Y0210298D01*
X0050598Y0210298D01*
X0051349Y0209547D01*
X0051349Y0208046D01*
X0050598Y0207296D01*
X0049097Y0207296D01*
X0048346Y0208046D01*
X0046745Y0208046D02*
X0046745Y0211049D01*
X0045994Y0211799D01*
X0043742Y0211799D01*
X0043742Y0207296D01*
X0045994Y0207296D01*
X0046745Y0208046D01*
X0047846Y0218546D02*
X0050849Y0218546D01*
X0049347Y0218546D02*
X0049347Y0223049D01*
X0047846Y0221548D01*
X0046245Y0222299D02*
X0045494Y0223049D01*
X0043242Y0223049D01*
X0043242Y0218546D01*
X0045494Y0218546D01*
X0046245Y0219296D01*
X0046245Y0222299D01*
X0031900Y0208943D02*
X0027396Y0208943D01*
X0029648Y0206692D01*
X0029648Y0209694D01*
X0032651Y0205090D02*
X0032651Y0202088D01*
X0031900Y0200486D02*
X0031900Y0197484D01*
X0028897Y0200486D01*
X0028147Y0200486D01*
X0027396Y0199736D01*
X0027396Y0198234D01*
X0028147Y0197484D01*
X0028147Y0195882D02*
X0028897Y0195882D01*
X0029648Y0195132D01*
X0030399Y0195882D01*
X0031149Y0195882D01*
X0031900Y0195132D01*
X0031900Y0193630D01*
X0031149Y0192880D01*
X0031900Y0191278D02*
X0031900Y0188276D01*
X0028897Y0191278D01*
X0028147Y0191278D01*
X0027396Y0190528D01*
X0027396Y0189027D01*
X0028147Y0188276D01*
X0028147Y0186674D02*
X0027396Y0185924D01*
X0027396Y0184423D01*
X0028147Y0183672D01*
X0027396Y0182071D02*
X0030399Y0179068D01*
X0029648Y0179819D02*
X0031900Y0182071D01*
X0031900Y0183672D02*
X0028897Y0186674D01*
X0028147Y0186674D01*
X0029700Y0182296D02*
X0029700Y0142296D01*
X0009700Y0142296D01*
X0009700Y0147296D01*
X0014700Y0147296D01*
X0014700Y0177296D01*
X0009700Y0177296D01*
X0009700Y0147296D01*
X0028147Y0169860D02*
X0027396Y0170611D01*
X0027396Y0172112D01*
X0028147Y0172863D01*
X0028897Y0172863D01*
X0031900Y0169860D01*
X0031900Y0172863D01*
X0031149Y0174464D02*
X0031900Y0175215D01*
X0031900Y0176716D01*
X0031149Y0177467D01*
X0030399Y0177467D01*
X0029648Y0176716D01*
X0029648Y0175215D01*
X0028897Y0174464D01*
X0028147Y0174464D01*
X0027396Y0175215D01*
X0027396Y0176716D01*
X0028147Y0177467D01*
X0027396Y0179068D02*
X0031900Y0179068D01*
X0029700Y0182296D02*
X0009700Y0182296D01*
X0009700Y0177296D01*
X0027396Y0193630D02*
X0027396Y0195132D01*
X0028147Y0195882D01*
X0029648Y0195132D02*
X0029648Y0194381D01*
X0028147Y0192880D02*
X0027396Y0193630D01*
X0031900Y0186674D02*
X0031900Y0183672D01*
X0058417Y0197950D02*
X0058495Y0197706D01*
X0058580Y0197464D01*
X0058670Y0197225D01*
X0058766Y0196987D01*
X0058868Y0196752D01*
X0058976Y0196519D01*
X0059089Y0196289D01*
X0059208Y0196062D01*
X0059332Y0195838D01*
X0059462Y0195617D01*
X0059597Y0195400D01*
X0059738Y0195185D01*
X0059884Y0194974D01*
X0060034Y0194767D01*
X0060190Y0194564D01*
X0060351Y0194364D01*
X0060516Y0194168D01*
X0060686Y0193977D01*
X0060861Y0193789D01*
X0061041Y0193606D01*
X0061224Y0193428D01*
X0061413Y0193253D01*
X0061605Y0193084D01*
X0061801Y0192919D01*
X0062002Y0192759D01*
X0062206Y0192605D01*
X0062414Y0192455D01*
X0062625Y0192310D01*
X0062840Y0192170D01*
X0063058Y0192036D01*
X0063280Y0191907D01*
X0063504Y0191784D01*
X0063732Y0191666D01*
X0063962Y0191553D01*
X0064195Y0191447D01*
X0064431Y0191346D01*
X0064669Y0191250D01*
X0064909Y0191161D01*
X0065151Y0191078D01*
X0065396Y0191000D01*
X0065642Y0190929D01*
X0065890Y0190863D01*
X0066139Y0190804D01*
X0066389Y0190750D01*
X0066641Y0190703D01*
X0066894Y0190662D01*
X0067148Y0190627D01*
X0067403Y0190598D01*
X0067658Y0190576D01*
X0067914Y0190560D01*
X0068170Y0190550D01*
X0068426Y0190546D01*
X0068683Y0190549D01*
X0068939Y0190557D01*
X0069195Y0190572D01*
X0069450Y0190594D01*
X0074950Y0192800D02*
X0074950Y0209292D01*
X0074950Y0192800D02*
X0074751Y0192647D01*
X0074549Y0192499D01*
X0074344Y0192356D01*
X0074135Y0192218D01*
X0073923Y0192085D01*
X0073708Y0191957D01*
X0073490Y0191835D01*
X0073269Y0191717D01*
X0073045Y0191605D01*
X0072819Y0191498D01*
X0072590Y0191397D01*
X0072359Y0191301D01*
X0072125Y0191210D01*
X0071890Y0191125D01*
X0071652Y0191046D01*
X0071413Y0190973D01*
X0071172Y0190905D01*
X0070930Y0190843D01*
X0070686Y0190787D01*
X0070440Y0190736D01*
X0070194Y0190692D01*
X0069947Y0190653D01*
X0069699Y0190621D01*
X0069450Y0190594D01*
X0058417Y0204142D02*
X0058495Y0204384D01*
X0058579Y0204624D01*
X0058668Y0204862D01*
X0058764Y0205098D01*
X0058865Y0205332D01*
X0058971Y0205563D01*
X0059084Y0205791D01*
X0059201Y0206017D01*
X0059324Y0206240D01*
X0059453Y0206459D01*
X0059587Y0206676D01*
X0059726Y0206889D01*
X0059870Y0207099D01*
X0060019Y0207305D01*
X0060173Y0207507D01*
X0060332Y0207706D01*
X0060496Y0207901D01*
X0060665Y0208092D01*
X0060838Y0208278D01*
X0061015Y0208461D01*
X0061197Y0208639D01*
X0061383Y0208812D01*
X0061574Y0208981D01*
X0061768Y0209145D01*
X0061966Y0209305D01*
X0062168Y0209460D01*
X0062374Y0209609D01*
X0062583Y0209754D01*
X0062796Y0209894D01*
X0063012Y0210028D01*
X0063232Y0210157D01*
X0063454Y0210281D01*
X0063679Y0210400D01*
X0063907Y0210512D01*
X0064138Y0210620D01*
X0064371Y0210721D01*
X0064607Y0210817D01*
X0064845Y0210908D01*
X0065085Y0210992D01*
X0065327Y0211071D01*
X0065571Y0211144D01*
X0065817Y0211210D01*
X0066064Y0211271D01*
X0066312Y0211326D01*
X0066562Y0211375D01*
X0066813Y0211418D01*
X0067065Y0211454D01*
X0067317Y0211485D01*
X0067571Y0211509D01*
X0067824Y0211527D01*
X0068079Y0211539D01*
X0068333Y0211545D01*
X0068588Y0211545D01*
X0068842Y0211539D01*
X0069096Y0211526D01*
X0069350Y0211507D01*
X0069603Y0211482D01*
X0069856Y0211451D01*
X0070108Y0211414D01*
X0070358Y0211371D01*
X0070608Y0211322D01*
X0070857Y0211267D01*
X0071104Y0211205D01*
X0071349Y0211138D01*
X0071593Y0211065D01*
X0071835Y0210986D01*
X0072074Y0210901D01*
X0072312Y0210810D01*
X0072548Y0210713D01*
X0072781Y0210611D01*
X0073011Y0210503D01*
X0073239Y0210390D01*
X0073464Y0210271D01*
X0073686Y0210147D01*
X0073905Y0210018D01*
X0074121Y0209883D01*
X0074334Y0209743D01*
X0074543Y0209597D01*
X0074748Y0209447D01*
X0074950Y0209292D01*
X0081897Y0195882D02*
X0081146Y0195132D01*
X0081146Y0193630D01*
X0081897Y0192880D01*
X0083398Y0194381D02*
X0083398Y0195132D01*
X0115946Y0190944D02*
X0115946Y0189442D01*
X0116697Y0188692D01*
X0116697Y0187090D02*
X0115946Y0186340D01*
X0115946Y0184088D01*
X0120450Y0184088D01*
X0118949Y0184088D02*
X0118949Y0186340D01*
X0118198Y0187090D01*
X0116697Y0187090D01*
X0118949Y0185589D02*
X0120450Y0187090D01*
X0120450Y0188692D02*
X0117447Y0191694D01*
X0116697Y0191694D01*
X0115946Y0190944D01*
X0120450Y0191694D02*
X0120450Y0188692D01*
X0123200Y0190593D02*
X0123200Y0211498D01*
X0128700Y0209292D02*
X0128700Y0192800D01*
X0136146Y0193630D02*
X0136897Y0192880D01*
X0136146Y0193630D02*
X0136146Y0195132D01*
X0136897Y0195882D01*
X0137647Y0195882D01*
X0138398Y0195132D01*
X0139149Y0195882D01*
X0139899Y0195882D01*
X0140650Y0195132D01*
X0140650Y0193630D01*
X0139899Y0192880D01*
X0140650Y0191278D02*
X0140650Y0188276D01*
X0137647Y0191278D01*
X0136897Y0191278D01*
X0136146Y0190528D01*
X0136146Y0189027D01*
X0136897Y0188276D01*
X0136897Y0186674D02*
X0136146Y0185924D01*
X0136146Y0184423D01*
X0136897Y0183672D01*
X0136146Y0182071D02*
X0139149Y0179068D01*
X0138398Y0179819D02*
X0140650Y0182071D01*
X0140650Y0183672D02*
X0137647Y0186674D01*
X0136897Y0186674D01*
X0140650Y0186674D02*
X0140650Y0183672D01*
X0140650Y0179068D02*
X0136146Y0179068D01*
X0136897Y0177467D02*
X0136146Y0176716D01*
X0136146Y0175215D01*
X0136897Y0174464D01*
X0137647Y0174464D01*
X0138398Y0175215D01*
X0138398Y0176716D01*
X0139149Y0177467D01*
X0139899Y0177467D01*
X0140650Y0176716D01*
X0140650Y0175215D01*
X0139899Y0174464D01*
X0140650Y0172863D02*
X0140650Y0169860D01*
X0137647Y0172863D01*
X0136897Y0172863D01*
X0136146Y0172112D01*
X0136146Y0170611D01*
X0136897Y0169860D01*
X0125950Y0166151D02*
X0125199Y0166902D01*
X0124449Y0166902D01*
X0123698Y0166151D01*
X0123698Y0163899D01*
X0125199Y0163899D01*
X0125950Y0164650D01*
X0125950Y0166151D01*
X0123698Y0163899D02*
X0122197Y0165401D01*
X0121446Y0166902D01*
X0122197Y0162298D02*
X0121446Y0161547D01*
X0121446Y0159296D01*
X0125950Y0159296D01*
X0124449Y0159296D02*
X0124449Y0161547D01*
X0123698Y0162298D01*
X0122197Y0162298D01*
X0124449Y0160797D02*
X0125950Y0162298D01*
X0138398Y0194381D02*
X0138398Y0195132D01*
X0136897Y0197484D02*
X0136146Y0198234D01*
X0136146Y0199736D01*
X0136897Y0200486D01*
X0137647Y0200486D01*
X0140650Y0197484D01*
X0140650Y0200486D01*
X0141401Y0202088D02*
X0141401Y0205090D01*
X0140650Y0206692D02*
X0137647Y0209694D01*
X0136897Y0209694D01*
X0136146Y0208943D01*
X0136146Y0207442D01*
X0136897Y0206692D01*
X0140650Y0206692D02*
X0140650Y0209694D01*
X0128700Y0192800D02*
X0128501Y0192647D01*
X0128299Y0192499D01*
X0128094Y0192356D01*
X0127885Y0192218D01*
X0127673Y0192085D01*
X0127458Y0191957D01*
X0127240Y0191835D01*
X0127019Y0191717D01*
X0126795Y0191605D01*
X0126569Y0191498D01*
X0126340Y0191397D01*
X0126109Y0191301D01*
X0125875Y0191210D01*
X0125640Y0191125D01*
X0125402Y0191046D01*
X0125163Y0190973D01*
X0124922Y0190905D01*
X0124680Y0190843D01*
X0124436Y0190787D01*
X0124190Y0190736D01*
X0123944Y0190692D01*
X0123697Y0190653D01*
X0123449Y0190621D01*
X0123200Y0190594D01*
X0112167Y0204142D02*
X0112245Y0204384D01*
X0112329Y0204624D01*
X0112418Y0204862D01*
X0112514Y0205098D01*
X0112615Y0205332D01*
X0112721Y0205563D01*
X0112834Y0205791D01*
X0112951Y0206017D01*
X0113074Y0206240D01*
X0113203Y0206459D01*
X0113337Y0206676D01*
X0113476Y0206889D01*
X0113620Y0207099D01*
X0113769Y0207305D01*
X0113923Y0207507D01*
X0114082Y0207706D01*
X0114246Y0207901D01*
X0114415Y0208092D01*
X0114588Y0208278D01*
X0114765Y0208461D01*
X0114947Y0208639D01*
X0115133Y0208812D01*
X0115324Y0208981D01*
X0115518Y0209145D01*
X0115716Y0209305D01*
X0115918Y0209460D01*
X0116124Y0209609D01*
X0116333Y0209754D01*
X0116546Y0209894D01*
X0116762Y0210028D01*
X0116982Y0210157D01*
X0117204Y0210281D01*
X0117429Y0210400D01*
X0117657Y0210512D01*
X0117888Y0210620D01*
X0118121Y0210721D01*
X0118357Y0210817D01*
X0118595Y0210908D01*
X0118835Y0210992D01*
X0119077Y0211071D01*
X0119321Y0211144D01*
X0119567Y0211210D01*
X0119814Y0211271D01*
X0120062Y0211326D01*
X0120312Y0211375D01*
X0120563Y0211418D01*
X0120815Y0211454D01*
X0121067Y0211485D01*
X0121321Y0211509D01*
X0121574Y0211527D01*
X0121829Y0211539D01*
X0122083Y0211545D01*
X0122338Y0211545D01*
X0122592Y0211539D01*
X0122846Y0211526D01*
X0123100Y0211507D01*
X0123353Y0211482D01*
X0123606Y0211451D01*
X0123858Y0211414D01*
X0124108Y0211371D01*
X0124358Y0211322D01*
X0124607Y0211267D01*
X0124854Y0211205D01*
X0125099Y0211138D01*
X0125343Y0211065D01*
X0125585Y0210986D01*
X0125824Y0210901D01*
X0126062Y0210810D01*
X0126298Y0210713D01*
X0126531Y0210611D01*
X0126761Y0210503D01*
X0126989Y0210390D01*
X0127214Y0210271D01*
X0127436Y0210147D01*
X0127655Y0210018D01*
X0127871Y0209883D01*
X0128084Y0209743D01*
X0128293Y0209597D01*
X0128498Y0209447D01*
X0128700Y0209292D01*
X0123200Y0190594D02*
X0122945Y0190572D01*
X0122689Y0190557D01*
X0122433Y0190549D01*
X0122176Y0190546D01*
X0121920Y0190550D01*
X0121664Y0190560D01*
X0121408Y0190576D01*
X0121153Y0190598D01*
X0120898Y0190627D01*
X0120644Y0190662D01*
X0120391Y0190703D01*
X0120139Y0190750D01*
X0119889Y0190804D01*
X0119640Y0190863D01*
X0119392Y0190929D01*
X0119146Y0191000D01*
X0118901Y0191078D01*
X0118659Y0191161D01*
X0118419Y0191250D01*
X0118181Y0191346D01*
X0117945Y0191447D01*
X0117712Y0191553D01*
X0117482Y0191666D01*
X0117254Y0191784D01*
X0117030Y0191907D01*
X0116808Y0192036D01*
X0116590Y0192170D01*
X0116375Y0192310D01*
X0116164Y0192455D01*
X0115956Y0192605D01*
X0115752Y0192759D01*
X0115551Y0192919D01*
X0115355Y0193084D01*
X0115163Y0193253D01*
X0114974Y0193428D01*
X0114791Y0193606D01*
X0114611Y0193789D01*
X0114436Y0193977D01*
X0114266Y0194168D01*
X0114101Y0194364D01*
X0113940Y0194564D01*
X0113784Y0194767D01*
X0113634Y0194974D01*
X0113488Y0195185D01*
X0113347Y0195400D01*
X0113212Y0195617D01*
X0113082Y0195838D01*
X0112958Y0196062D01*
X0112839Y0196289D01*
X0112726Y0196519D01*
X0112618Y0196752D01*
X0112516Y0196987D01*
X0112420Y0197225D01*
X0112330Y0197464D01*
X0112245Y0197706D01*
X0112167Y0197950D01*
X0167167Y0197950D02*
X0167245Y0197706D01*
X0167330Y0197464D01*
X0167420Y0197225D01*
X0167516Y0196987D01*
X0167618Y0196752D01*
X0167726Y0196519D01*
X0167839Y0196289D01*
X0167958Y0196062D01*
X0168082Y0195838D01*
X0168212Y0195617D01*
X0168347Y0195400D01*
X0168488Y0195185D01*
X0168634Y0194974D01*
X0168784Y0194767D01*
X0168940Y0194564D01*
X0169101Y0194364D01*
X0169266Y0194168D01*
X0169436Y0193977D01*
X0169611Y0193789D01*
X0169791Y0193606D01*
X0169974Y0193428D01*
X0170163Y0193253D01*
X0170355Y0193084D01*
X0170551Y0192919D01*
X0170752Y0192759D01*
X0170956Y0192605D01*
X0171164Y0192455D01*
X0171375Y0192310D01*
X0171590Y0192170D01*
X0171808Y0192036D01*
X0172030Y0191907D01*
X0172254Y0191784D01*
X0172482Y0191666D01*
X0172712Y0191553D01*
X0172945Y0191447D01*
X0173181Y0191346D01*
X0173419Y0191250D01*
X0173659Y0191161D01*
X0173901Y0191078D01*
X0174146Y0191000D01*
X0174392Y0190929D01*
X0174640Y0190863D01*
X0174889Y0190804D01*
X0175139Y0190750D01*
X0175391Y0190703D01*
X0175644Y0190662D01*
X0175898Y0190627D01*
X0176153Y0190598D01*
X0176408Y0190576D01*
X0176664Y0190560D01*
X0176920Y0190550D01*
X0177176Y0190546D01*
X0177433Y0190549D01*
X0177689Y0190557D01*
X0177945Y0190572D01*
X0178200Y0190594D01*
X0183700Y0192800D02*
X0183700Y0209292D01*
X0183700Y0192800D02*
X0183501Y0192647D01*
X0183299Y0192499D01*
X0183094Y0192356D01*
X0182885Y0192218D01*
X0182673Y0192085D01*
X0182458Y0191957D01*
X0182240Y0191835D01*
X0182019Y0191717D01*
X0181795Y0191605D01*
X0181569Y0191498D01*
X0181340Y0191397D01*
X0181109Y0191301D01*
X0180875Y0191210D01*
X0180640Y0191125D01*
X0180402Y0191046D01*
X0180163Y0190973D01*
X0179922Y0190905D01*
X0179680Y0190843D01*
X0179436Y0190787D01*
X0179190Y0190736D01*
X0178944Y0190692D01*
X0178697Y0190653D01*
X0178449Y0190621D01*
X0178200Y0190594D01*
X0167167Y0204142D02*
X0167245Y0204384D01*
X0167329Y0204624D01*
X0167418Y0204862D01*
X0167514Y0205098D01*
X0167615Y0205332D01*
X0167721Y0205563D01*
X0167834Y0205791D01*
X0167951Y0206017D01*
X0168074Y0206240D01*
X0168203Y0206459D01*
X0168337Y0206676D01*
X0168476Y0206889D01*
X0168620Y0207099D01*
X0168769Y0207305D01*
X0168923Y0207507D01*
X0169082Y0207706D01*
X0169246Y0207901D01*
X0169415Y0208092D01*
X0169588Y0208278D01*
X0169765Y0208461D01*
X0169947Y0208639D01*
X0170133Y0208812D01*
X0170324Y0208981D01*
X0170518Y0209145D01*
X0170716Y0209305D01*
X0170918Y0209460D01*
X0171124Y0209609D01*
X0171333Y0209754D01*
X0171546Y0209894D01*
X0171762Y0210028D01*
X0171982Y0210157D01*
X0172204Y0210281D01*
X0172429Y0210400D01*
X0172657Y0210512D01*
X0172888Y0210620D01*
X0173121Y0210721D01*
X0173357Y0210817D01*
X0173595Y0210908D01*
X0173835Y0210992D01*
X0174077Y0211071D01*
X0174321Y0211144D01*
X0174567Y0211210D01*
X0174814Y0211271D01*
X0175062Y0211326D01*
X0175312Y0211375D01*
X0175563Y0211418D01*
X0175815Y0211454D01*
X0176067Y0211485D01*
X0176321Y0211509D01*
X0176574Y0211527D01*
X0176829Y0211539D01*
X0177083Y0211545D01*
X0177338Y0211545D01*
X0177592Y0211539D01*
X0177846Y0211526D01*
X0178100Y0211507D01*
X0178353Y0211482D01*
X0178606Y0211451D01*
X0178858Y0211414D01*
X0179108Y0211371D01*
X0179358Y0211322D01*
X0179607Y0211267D01*
X0179854Y0211205D01*
X0180099Y0211138D01*
X0180343Y0211065D01*
X0180585Y0210986D01*
X0180824Y0210901D01*
X0181062Y0210810D01*
X0181298Y0210713D01*
X0181531Y0210611D01*
X0181761Y0210503D01*
X0181989Y0210390D01*
X0182214Y0210271D01*
X0182436Y0210147D01*
X0182655Y0210018D01*
X0182871Y0209883D01*
X0183084Y0209743D01*
X0183293Y0209597D01*
X0183498Y0209447D01*
X0183700Y0209292D01*
X0191897Y0195882D02*
X0191146Y0195132D01*
X0191146Y0193630D01*
X0191897Y0192880D01*
X0193398Y0194381D02*
X0193398Y0195132D01*
X0207492Y0207296D02*
X0209744Y0207296D01*
X0210495Y0208046D01*
X0210495Y0211049D01*
X0209744Y0211799D01*
X0207492Y0211799D01*
X0207492Y0207296D01*
X0212096Y0208046D02*
X0212096Y0208797D01*
X0212847Y0209547D01*
X0214348Y0209547D01*
X0215099Y0208797D01*
X0215099Y0208046D01*
X0214348Y0207296D01*
X0212847Y0207296D01*
X0212096Y0208046D01*
X0212847Y0209547D02*
X0212096Y0210298D01*
X0212096Y0211049D01*
X0212847Y0211799D01*
X0214348Y0211799D01*
X0215099Y0211049D01*
X0215099Y0210298D01*
X0214348Y0209547D01*
X0213848Y0218546D02*
X0213848Y0223049D01*
X0211596Y0220797D01*
X0214599Y0220797D01*
X0209995Y0219296D02*
X0209995Y0222299D01*
X0209244Y0223049D01*
X0206992Y0223049D01*
X0206992Y0218546D01*
X0209244Y0218546D01*
X0209995Y0219296D01*
X0224196Y0219901D02*
X0230201Y0219901D01*
X0229450Y0220651D02*
X0229450Y0219150D01*
X0228699Y0218399D01*
X0228699Y0216798D02*
X0224946Y0216798D01*
X0225697Y0218399D02*
X0224946Y0219150D01*
X0224946Y0220651D01*
X0225697Y0221402D01*
X0227198Y0220651D02*
X0227198Y0219150D01*
X0226447Y0218399D01*
X0225697Y0218399D01*
X0227198Y0220651D02*
X0227949Y0221402D01*
X0228699Y0221402D01*
X0229450Y0220651D01*
X0228699Y0223003D02*
X0229450Y0223754D01*
X0229450Y0225255D01*
X0228699Y0226006D01*
X0227198Y0226006D01*
X0226447Y0225255D01*
X0226447Y0224505D01*
X0227198Y0223003D01*
X0224946Y0223003D01*
X0224946Y0226006D01*
X0228699Y0216798D02*
X0229450Y0216047D01*
X0229450Y0214546D01*
X0228699Y0213796D01*
X0224946Y0213796D01*
X0233200Y0211498D02*
X0233200Y0190593D01*
X0230450Y0190944D02*
X0225946Y0190944D01*
X0228198Y0188692D01*
X0228198Y0191694D01*
X0228198Y0187090D02*
X0228949Y0186340D01*
X0228949Y0184088D01*
X0228949Y0185589D02*
X0230450Y0187090D01*
X0228198Y0187090D02*
X0226697Y0187090D01*
X0225946Y0186340D01*
X0225946Y0184088D01*
X0230450Y0184088D01*
X0233447Y0174402D02*
X0234197Y0174402D01*
X0234948Y0173651D01*
X0234948Y0172150D01*
X0234197Y0171399D01*
X0233447Y0171399D01*
X0232696Y0172150D01*
X0232696Y0173651D01*
X0233447Y0174402D01*
X0234948Y0173651D02*
X0235699Y0174402D01*
X0236449Y0174402D01*
X0237200Y0173651D01*
X0237200Y0172150D01*
X0236449Y0171399D01*
X0235699Y0171399D01*
X0234948Y0172150D01*
X0234948Y0169798D02*
X0235699Y0169047D01*
X0235699Y0166796D01*
X0235699Y0168297D02*
X0237200Y0169798D01*
X0234948Y0169798D02*
X0233447Y0169798D01*
X0232696Y0169047D01*
X0232696Y0166796D01*
X0237200Y0166796D01*
X0238700Y0192800D02*
X0238700Y0209292D01*
X0238700Y0192800D02*
X0238501Y0192647D01*
X0238299Y0192499D01*
X0238094Y0192356D01*
X0237885Y0192218D01*
X0237673Y0192085D01*
X0237458Y0191957D01*
X0237240Y0191835D01*
X0237019Y0191717D01*
X0236795Y0191605D01*
X0236569Y0191498D01*
X0236340Y0191397D01*
X0236109Y0191301D01*
X0235875Y0191210D01*
X0235640Y0191125D01*
X0235402Y0191046D01*
X0235163Y0190973D01*
X0234922Y0190905D01*
X0234680Y0190843D01*
X0234436Y0190787D01*
X0234190Y0190736D01*
X0233944Y0190692D01*
X0233697Y0190653D01*
X0233449Y0190621D01*
X0233200Y0190594D01*
X0222167Y0204142D02*
X0222245Y0204384D01*
X0222329Y0204624D01*
X0222418Y0204862D01*
X0222514Y0205098D01*
X0222615Y0205332D01*
X0222721Y0205563D01*
X0222834Y0205791D01*
X0222951Y0206017D01*
X0223074Y0206240D01*
X0223203Y0206459D01*
X0223337Y0206676D01*
X0223476Y0206889D01*
X0223620Y0207099D01*
X0223769Y0207305D01*
X0223923Y0207507D01*
X0224082Y0207706D01*
X0224246Y0207901D01*
X0224415Y0208092D01*
X0224588Y0208278D01*
X0224765Y0208461D01*
X0224947Y0208639D01*
X0225133Y0208812D01*
X0225324Y0208981D01*
X0225518Y0209145D01*
X0225716Y0209305D01*
X0225918Y0209460D01*
X0226124Y0209609D01*
X0226333Y0209754D01*
X0226546Y0209894D01*
X0226762Y0210028D01*
X0226982Y0210157D01*
X0227204Y0210281D01*
X0227429Y0210400D01*
X0227657Y0210512D01*
X0227888Y0210620D01*
X0228121Y0210721D01*
X0228357Y0210817D01*
X0228595Y0210908D01*
X0228835Y0210992D01*
X0229077Y0211071D01*
X0229321Y0211144D01*
X0229567Y0211210D01*
X0229814Y0211271D01*
X0230062Y0211326D01*
X0230312Y0211375D01*
X0230563Y0211418D01*
X0230815Y0211454D01*
X0231067Y0211485D01*
X0231321Y0211509D01*
X0231574Y0211527D01*
X0231829Y0211539D01*
X0232083Y0211545D01*
X0232338Y0211545D01*
X0232592Y0211539D01*
X0232846Y0211526D01*
X0233100Y0211507D01*
X0233353Y0211482D01*
X0233606Y0211451D01*
X0233858Y0211414D01*
X0234108Y0211371D01*
X0234358Y0211322D01*
X0234607Y0211267D01*
X0234854Y0211205D01*
X0235099Y0211138D01*
X0235343Y0211065D01*
X0235585Y0210986D01*
X0235824Y0210901D01*
X0236062Y0210810D01*
X0236298Y0210713D01*
X0236531Y0210611D01*
X0236761Y0210503D01*
X0236989Y0210390D01*
X0237214Y0210271D01*
X0237436Y0210147D01*
X0237655Y0210018D01*
X0237871Y0209883D01*
X0238084Y0209743D01*
X0238293Y0209597D01*
X0238498Y0209447D01*
X0238700Y0209292D01*
X0233200Y0190594D02*
X0232945Y0190572D01*
X0232689Y0190557D01*
X0232433Y0190549D01*
X0232176Y0190546D01*
X0231920Y0190550D01*
X0231664Y0190560D01*
X0231408Y0190576D01*
X0231153Y0190598D01*
X0230898Y0190627D01*
X0230644Y0190662D01*
X0230391Y0190703D01*
X0230139Y0190750D01*
X0229889Y0190804D01*
X0229640Y0190863D01*
X0229392Y0190929D01*
X0229146Y0191000D01*
X0228901Y0191078D01*
X0228659Y0191161D01*
X0228419Y0191250D01*
X0228181Y0191346D01*
X0227945Y0191447D01*
X0227712Y0191553D01*
X0227482Y0191666D01*
X0227254Y0191784D01*
X0227030Y0191907D01*
X0226808Y0192036D01*
X0226590Y0192170D01*
X0226375Y0192310D01*
X0226164Y0192455D01*
X0225956Y0192605D01*
X0225752Y0192759D01*
X0225551Y0192919D01*
X0225355Y0193084D01*
X0225163Y0193253D01*
X0224974Y0193428D01*
X0224791Y0193606D01*
X0224611Y0193789D01*
X0224436Y0193977D01*
X0224266Y0194168D01*
X0224101Y0194364D01*
X0223940Y0194564D01*
X0223784Y0194767D01*
X0223634Y0194974D01*
X0223488Y0195185D01*
X0223347Y0195400D01*
X0223212Y0195617D01*
X0223082Y0195838D01*
X0222958Y0196062D01*
X0222839Y0196289D01*
X0222726Y0196519D01*
X0222618Y0196752D01*
X0222516Y0196987D01*
X0222420Y0197225D01*
X0222330Y0197464D01*
X0222245Y0197706D01*
X0222167Y0197950D01*
X0219150Y0139994D02*
X0219150Y0136992D01*
X0218450Y0136046D02*
X0218450Y0086046D01*
X0238450Y0086046D01*
X0238450Y0096046D01*
X0233450Y0096046D01*
X0233450Y0126046D01*
X0238450Y0126046D01*
X0238450Y0136046D01*
X0218450Y0136046D01*
X0217649Y0134640D02*
X0217649Y0132388D01*
X0219150Y0132388D02*
X0214646Y0132388D01*
X0214646Y0134640D01*
X0215397Y0135390D01*
X0216898Y0135390D01*
X0217649Y0134640D01*
X0216147Y0136992D02*
X0214646Y0138493D01*
X0219150Y0138493D01*
X0218399Y0130036D02*
X0214646Y0130036D01*
X0214646Y0130786D02*
X0214646Y0129285D01*
X0218399Y0130036D02*
X0219150Y0129285D01*
X0219150Y0128534D01*
X0218399Y0127784D01*
X0236492Y0131546D02*
X0236492Y0136049D01*
X0238744Y0136049D01*
X0239495Y0135299D01*
X0239495Y0133797D01*
X0238744Y0133047D01*
X0236492Y0133047D01*
X0237993Y0133047D02*
X0239495Y0131546D01*
X0241096Y0132296D02*
X0241847Y0131546D01*
X0243348Y0131546D01*
X0244099Y0132296D01*
X0244099Y0135299D01*
X0243348Y0136049D01*
X0241847Y0136049D01*
X0241096Y0135299D01*
X0241096Y0134548D01*
X0241847Y0133797D01*
X0244099Y0133797D01*
X0238450Y0126046D02*
X0238450Y0096046D01*
X0275696Y0121088D02*
X0276447Y0120338D01*
X0277197Y0120338D01*
X0277948Y0121088D01*
X0277948Y0122590D01*
X0278699Y0123340D01*
X0279449Y0123340D01*
X0280200Y0122590D01*
X0280200Y0121088D01*
X0279449Y0120338D01*
X0275696Y0121088D02*
X0275696Y0122590D01*
X0276447Y0123340D01*
X0277197Y0124942D02*
X0275696Y0126443D01*
X0280200Y0126443D01*
X0280200Y0124942D02*
X0280200Y0127944D01*
X0195660Y0073049D02*
X0195660Y0068546D01*
X0196410Y0070797D02*
X0193408Y0070797D01*
X0195660Y0073049D01*
X0190305Y0073049D02*
X0190305Y0068546D01*
X0188804Y0068546D02*
X0191806Y0068546D01*
X0188804Y0071548D02*
X0190305Y0073049D01*
X0187203Y0072299D02*
X0187203Y0070797D01*
X0186452Y0070047D01*
X0184200Y0070047D01*
X0185701Y0070047D02*
X0187203Y0068546D01*
X0184200Y0068546D02*
X0184200Y0073049D01*
X0186452Y0073049D01*
X0187203Y0072299D01*
X0163299Y0043444D02*
X0160297Y0043444D01*
X0163299Y0040442D01*
X0164050Y0041192D01*
X0164050Y0042694D01*
X0163299Y0043444D01*
X0160297Y0043444D02*
X0159546Y0042694D01*
X0159546Y0041192D01*
X0160297Y0040442D01*
X0163299Y0040442D01*
X0164050Y0038840D02*
X0164050Y0035838D01*
X0164050Y0037339D02*
X0159546Y0037339D01*
X0161047Y0035838D01*
X0160297Y0034236D02*
X0159546Y0033486D01*
X0159546Y0031984D01*
X0160297Y0031234D01*
X0161047Y0031234D01*
X0161798Y0031984D01*
X0161798Y0033486D01*
X0162549Y0034236D01*
X0163299Y0034236D01*
X0164050Y0033486D01*
X0164050Y0031984D01*
X0163299Y0031234D01*
X0163299Y0029632D02*
X0159546Y0029632D01*
X0159546Y0026630D02*
X0163299Y0026630D01*
X0164050Y0027380D01*
X0164050Y0028882D01*
X0163299Y0029632D01*
X0164801Y0032735D02*
X0158796Y0032735D01*
X0137301Y0037339D02*
X0131296Y0037339D01*
X0132046Y0038090D02*
X0132797Y0038840D01*
X0132046Y0038090D02*
X0132046Y0036588D01*
X0132797Y0035838D01*
X0133547Y0035838D01*
X0134298Y0036588D01*
X0134298Y0038090D01*
X0135049Y0038840D01*
X0135799Y0038840D01*
X0136550Y0038090D01*
X0136550Y0036588D01*
X0135799Y0035838D01*
X0135799Y0034236D02*
X0132046Y0034236D01*
X0132046Y0031234D02*
X0135799Y0031234D01*
X0136550Y0031984D01*
X0136550Y0033486D01*
X0135799Y0034236D01*
X0135799Y0040442D02*
X0136550Y0041192D01*
X0136550Y0042694D01*
X0135799Y0043444D01*
X0135049Y0043444D01*
X0134298Y0042694D01*
X0134298Y0040442D01*
X0135799Y0040442D01*
X0134298Y0040442D02*
X0132797Y0041943D01*
X0132046Y0043444D01*
X0109801Y0037339D02*
X0103796Y0037339D01*
X0104546Y0038090D02*
X0105297Y0038840D01*
X0104546Y0038090D02*
X0104546Y0036588D01*
X0105297Y0035838D01*
X0106047Y0035838D01*
X0106798Y0036588D01*
X0106798Y0038090D01*
X0107549Y0038840D01*
X0108299Y0038840D01*
X0109050Y0038090D01*
X0109050Y0036588D01*
X0108299Y0035838D01*
X0108299Y0034236D02*
X0104546Y0034236D01*
X0104546Y0031234D02*
X0108299Y0031234D01*
X0109050Y0031984D01*
X0109050Y0033486D01*
X0108299Y0034236D01*
X0108299Y0040442D02*
X0109050Y0040442D01*
X0108299Y0040442D02*
X0105297Y0043444D01*
X0104546Y0043444D01*
X0104546Y0040442D01*
X0082301Y0037339D02*
X0076296Y0037339D01*
X0077046Y0038090D02*
X0077797Y0038840D01*
X0077046Y0038090D02*
X0077046Y0036588D01*
X0077797Y0035838D01*
X0078547Y0035838D01*
X0079298Y0036588D01*
X0079298Y0038090D01*
X0080049Y0038840D01*
X0080799Y0038840D01*
X0081550Y0038090D01*
X0081550Y0036588D01*
X0080799Y0035838D01*
X0080799Y0034236D02*
X0077046Y0034236D01*
X0077046Y0031234D02*
X0080799Y0031234D01*
X0081550Y0031984D01*
X0081550Y0033486D01*
X0080799Y0034236D01*
X0080799Y0040442D02*
X0080049Y0040442D01*
X0079298Y0041192D01*
X0079298Y0042694D01*
X0080049Y0043444D01*
X0080799Y0043444D01*
X0081550Y0042694D01*
X0081550Y0041192D01*
X0080799Y0040442D01*
X0079298Y0041192D02*
X0078547Y0040442D01*
X0077797Y0040442D01*
X0077046Y0041192D01*
X0077046Y0042694D01*
X0077797Y0043444D01*
X0078547Y0043444D01*
X0079298Y0042694D01*
X0054801Y0037339D02*
X0048796Y0037339D01*
X0049546Y0038090D02*
X0050297Y0038840D01*
X0049546Y0038090D02*
X0049546Y0036588D01*
X0050297Y0035838D01*
X0051047Y0035838D01*
X0051798Y0036588D01*
X0051798Y0038090D01*
X0052549Y0038840D01*
X0053299Y0038840D01*
X0054050Y0038090D01*
X0054050Y0036588D01*
X0053299Y0035838D01*
X0053299Y0034236D02*
X0049546Y0034236D01*
X0049546Y0031234D02*
X0053299Y0031234D01*
X0054050Y0031984D01*
X0054050Y0033486D01*
X0053299Y0034236D01*
X0053299Y0040442D02*
X0054050Y0041192D01*
X0054050Y0042694D01*
X0053299Y0043444D01*
X0050297Y0043444D01*
X0049546Y0042694D01*
X0049546Y0041192D01*
X0050297Y0040442D01*
X0051047Y0040442D01*
X0051798Y0041192D01*
X0051798Y0043444D01*
X0052696Y0104296D02*
X0052696Y0106547D01*
X0053447Y0107298D01*
X0054948Y0107298D01*
X0055699Y0106547D01*
X0055699Y0104296D01*
X0055699Y0105797D02*
X0057200Y0107298D01*
X0057200Y0108899D02*
X0057200Y0111902D01*
X0057200Y0110401D02*
X0052696Y0110401D01*
X0054197Y0108899D01*
X0052696Y0104296D02*
X0057200Y0104296D01*
X0056449Y0113503D02*
X0053447Y0113503D01*
X0052696Y0114254D01*
X0052696Y0115755D01*
X0053447Y0116506D01*
X0056449Y0113503D01*
X0057200Y0114254D01*
X0057200Y0115755D01*
X0056449Y0116506D01*
X0053447Y0116506D01*
X0045950Y0116506D02*
X0045950Y0113503D01*
X0045950Y0115005D02*
X0041446Y0115005D01*
X0042947Y0113503D01*
X0045950Y0111902D02*
X0045950Y0108899D01*
X0045950Y0110401D02*
X0041446Y0110401D01*
X0042947Y0108899D01*
X0042197Y0107298D02*
X0043698Y0107298D01*
X0044449Y0106547D01*
X0044449Y0104296D01*
X0044449Y0105797D02*
X0045950Y0107298D01*
X0045950Y0104296D02*
X0041446Y0104296D01*
X0041446Y0106547D01*
X0042197Y0107298D01*
X0034700Y0107298D02*
X0033199Y0105797D01*
X0033199Y0106547D02*
X0033199Y0104296D01*
X0034700Y0104296D02*
X0030196Y0104296D01*
X0030196Y0106547D01*
X0030947Y0107298D01*
X0032448Y0107298D01*
X0033199Y0106547D01*
X0034700Y0108899D02*
X0034700Y0111902D01*
X0034700Y0110401D02*
X0030196Y0110401D01*
X0031697Y0108899D01*
X0030947Y0113503D02*
X0030196Y0114254D01*
X0030196Y0115755D01*
X0030947Y0116506D01*
X0031697Y0116506D01*
X0034700Y0113503D01*
X0034700Y0116506D01*
X0014700Y0115755D02*
X0014700Y0114254D01*
X0013949Y0113503D01*
X0014700Y0111902D02*
X0014700Y0108899D01*
X0014700Y0110401D02*
X0010196Y0110401D01*
X0011697Y0108899D01*
X0010947Y0107298D02*
X0012448Y0107298D01*
X0013199Y0106547D01*
X0013199Y0104296D01*
X0013199Y0105797D02*
X0014700Y0107298D01*
X0014700Y0104296D02*
X0010196Y0104296D01*
X0010196Y0106547D01*
X0010947Y0107298D01*
X0010947Y0113503D02*
X0010196Y0114254D01*
X0010196Y0115755D01*
X0010947Y0116506D01*
X0011697Y0116506D01*
X0012448Y0115755D01*
X0013199Y0116506D01*
X0013949Y0116506D01*
X0014700Y0115755D01*
X0012448Y0115755D02*
X0012448Y0115005D01*
X0189196Y0116693D02*
X0193700Y0116693D01*
X0193700Y0115192D02*
X0193700Y0118194D01*
X0190697Y0115192D02*
X0189196Y0116693D01*
X0189947Y0113590D02*
X0189196Y0112840D01*
X0189196Y0111338D01*
X0189947Y0110588D01*
X0192949Y0110588D01*
X0193700Y0111338D01*
X0193700Y0112840D01*
X0192949Y0113590D01*
D14*
X0212200Y0191046D03*
X0157200Y0191046D03*
X0102200Y0191046D03*
X0048450Y0191046D03*
D15*
X0180450Y0112246D02*
X0183450Y0112246D01*
X0186450Y0112246D01*
X0186450Y0109746D02*
X0183450Y0109746D01*
X0180450Y0109746D01*
D16*
X0213646Y0110453D02*
X0218250Y0113523D01*
X0213646Y0113523D01*
X0215181Y0115057D02*
X0213646Y0116592D01*
X0218250Y0116592D01*
X0218250Y0115057D02*
X0218250Y0118127D01*
X0218250Y0110453D02*
X0213646Y0110453D01*
X0214413Y0108919D02*
X0213646Y0108151D01*
X0213646Y0106617D01*
X0214413Y0105849D01*
X0217483Y0105849D01*
X0218250Y0106617D01*
X0218250Y0108151D01*
X0217483Y0108919D01*
X0214413Y0108919D01*
X0214413Y0104315D02*
X0213646Y0103548D01*
X0213646Y0102013D01*
X0214413Y0101246D01*
X0217483Y0101246D01*
X0218250Y0102013D01*
X0218250Y0103548D01*
X0217483Y0104315D01*
X0120927Y0259996D02*
X0117858Y0259996D01*
X0119392Y0259996D02*
X0119392Y0264599D01*
X0117858Y0263065D01*
X0116323Y0264599D02*
X0116323Y0259996D01*
X0113254Y0264599D01*
X0113254Y0259996D01*
X0111719Y0260763D02*
X0110952Y0259996D01*
X0109417Y0259996D01*
X0108650Y0260763D01*
X0108650Y0263832D01*
X0109417Y0264599D01*
X0110952Y0264599D01*
X0111719Y0263832D01*
X0034500Y0175961D02*
X0034500Y0172892D01*
X0034500Y0174426D02*
X0029896Y0174426D01*
X0031431Y0172892D01*
X0029896Y0171357D02*
X0029896Y0169822D01*
X0029896Y0170590D02*
X0033733Y0170590D01*
X0034500Y0169822D01*
X0034500Y0169055D01*
X0033733Y0168288D01*
D17*
X0055950Y0166846D03*
X0077200Y0156846D03*
X0063450Y0130246D03*
X0052200Y0130246D03*
X0040950Y0130246D03*
X0020950Y0130246D03*
X0020950Y0101846D03*
X0040950Y0101846D03*
X0052200Y0101846D03*
X0063450Y0101846D03*
X0109700Y0166846D03*
X0132200Y0156846D03*
X0132200Y0185246D03*
X0109700Y0195246D03*
X0077200Y0185246D03*
X0055950Y0195246D03*
X0164700Y0195246D03*
X0187200Y0185246D03*
X0164700Y0166846D03*
X0187200Y0156846D03*
X0219700Y0166846D03*
X0243450Y0164346D03*
X0243450Y0192746D03*
X0219700Y0195246D03*
D18*
X0175920Y0128196D02*
X0172784Y0125060D01*
X0172784Y0126628D02*
X0175920Y0126628D01*
X0175920Y0125060D02*
X0172784Y0128196D01*
X0174352Y0128196D02*
X0174352Y0125060D01*
D19*
X0179950Y0125142D02*
X0181184Y0123908D01*
X0187356Y0123908D01*
X0186122Y0121295D02*
X0187356Y0120061D01*
X0187356Y0117592D01*
X0186122Y0116358D01*
X0183653Y0117592D02*
X0183653Y0120061D01*
X0184888Y0121295D01*
X0186122Y0121295D01*
X0188591Y0118826D02*
X0178716Y0118826D01*
X0179950Y0117592D02*
X0181184Y0116358D01*
X0182419Y0116358D01*
X0183653Y0117592D01*
X0179950Y0117592D02*
X0179950Y0120061D01*
X0181184Y0121295D01*
X0179950Y0125142D02*
X0179950Y0127611D01*
X0181184Y0128846D01*
X0187356Y0128846D01*
X0184888Y0113745D02*
X0187356Y0111276D01*
X0179950Y0111276D01*
X0179950Y0113745D02*
X0179950Y0108807D01*
X0164700Y0047296D02*
X0149700Y0047296D01*
X0137200Y0047296D02*
X0122200Y0047296D01*
X0109700Y0047296D02*
X0094700Y0047296D01*
X0082200Y0047296D02*
X0067200Y0047296D01*
X0054700Y0047296D02*
X0039700Y0047296D01*
D20*
X0248950Y0112796D02*
X0249950Y0112796D01*
X0249950Y0122296D01*
X0248950Y0122296D01*
X0271950Y0122296D02*
X0271950Y0112296D01*
X0272950Y0112296D01*
X0272950Y0122296D02*
X0271950Y0122296D01*
D21*
X0247650Y0142296D03*
X0219250Y0142296D03*
X0210150Y0062296D03*
X0181750Y0062296D03*
D22*
X0164700Y0047296D02*
X0164943Y0047483D01*
X0165181Y0047675D01*
X0165414Y0047874D01*
X0165642Y0048078D01*
X0165865Y0048287D01*
X0166083Y0048502D01*
X0166296Y0048722D01*
X0166503Y0048947D01*
X0166705Y0049178D01*
X0166901Y0049413D01*
X0167091Y0049653D01*
X0167275Y0049897D01*
X0167453Y0050146D01*
X0167625Y0050400D01*
X0167791Y0050657D01*
X0167951Y0050918D01*
X0168104Y0051183D01*
X0168250Y0051452D01*
X0168390Y0051725D01*
X0168523Y0052000D01*
X0168649Y0052279D01*
X0168769Y0052561D01*
X0168881Y0052846D01*
X0168986Y0053133D01*
X0169085Y0053423D01*
X0169176Y0053715D01*
X0169260Y0054010D01*
X0169337Y0054306D01*
X0169407Y0054604D01*
X0169469Y0054904D01*
X0169524Y0055205D01*
X0169571Y0055507D01*
X0169611Y0055811D01*
X0169644Y0056115D01*
X0169669Y0056420D01*
X0169687Y0056726D01*
X0169697Y0057032D01*
X0169700Y0057338D01*
X0169695Y0057644D01*
X0169683Y0057950D01*
X0169663Y0058256D01*
X0169636Y0058560D01*
X0169601Y0058865D01*
X0169559Y0059168D01*
X0169510Y0059470D01*
X0169453Y0059771D01*
X0169388Y0060070D01*
X0169317Y0060368D01*
X0169238Y0060663D01*
X0169152Y0060957D01*
X0169059Y0061249D01*
X0168958Y0061538D01*
X0168851Y0061825D01*
X0168736Y0062109D01*
X0168615Y0062390D01*
X0168487Y0062668D01*
X0168352Y0062943D01*
X0168210Y0063214D01*
X0168062Y0063482D01*
X0167907Y0063746D01*
X0167746Y0064006D01*
X0167579Y0064262D01*
X0167405Y0064515D01*
X0167225Y0064762D01*
X0167039Y0065006D01*
X0166848Y0065244D01*
X0166650Y0065478D01*
X0166447Y0065707D01*
X0166238Y0065931D01*
X0166024Y0066150D01*
X0165804Y0066363D01*
X0165580Y0066571D01*
X0165350Y0066774D01*
X0165116Y0066970D01*
X0164876Y0067161D01*
X0164633Y0067346D01*
X0164384Y0067525D01*
X0164132Y0067698D01*
X0163875Y0067865D01*
X0163614Y0068025D01*
X0163349Y0068179D01*
X0163081Y0068326D01*
X0162809Y0068467D01*
X0162534Y0068601D01*
X0162255Y0068728D01*
X0161974Y0068849D01*
X0161689Y0068962D01*
X0161402Y0069068D01*
X0161113Y0069168D01*
X0160821Y0069260D01*
X0160527Y0069345D01*
X0160231Y0069423D01*
X0159933Y0069494D01*
X0159633Y0069557D01*
X0159332Y0069613D01*
X0159030Y0069661D01*
X0158727Y0069702D01*
X0158423Y0069736D01*
X0158118Y0069762D01*
X0157812Y0069781D01*
X0157506Y0069792D01*
X0157200Y0069796D01*
X0156894Y0069792D01*
X0156588Y0069781D01*
X0156282Y0069762D01*
X0155977Y0069736D01*
X0155673Y0069702D01*
X0155370Y0069661D01*
X0155068Y0069613D01*
X0154767Y0069557D01*
X0154467Y0069494D01*
X0154169Y0069423D01*
X0153873Y0069345D01*
X0153579Y0069260D01*
X0153287Y0069168D01*
X0152998Y0069068D01*
X0152711Y0068962D01*
X0152426Y0068849D01*
X0152145Y0068728D01*
X0151866Y0068601D01*
X0151591Y0068467D01*
X0151319Y0068326D01*
X0151051Y0068179D01*
X0150786Y0068025D01*
X0150525Y0067865D01*
X0150268Y0067698D01*
X0150016Y0067525D01*
X0149767Y0067346D01*
X0149524Y0067161D01*
X0149284Y0066970D01*
X0149050Y0066774D01*
X0148820Y0066571D01*
X0148596Y0066363D01*
X0148376Y0066150D01*
X0148162Y0065931D01*
X0147953Y0065707D01*
X0147750Y0065478D01*
X0147552Y0065244D01*
X0147361Y0065006D01*
X0147175Y0064762D01*
X0146995Y0064515D01*
X0146821Y0064262D01*
X0146654Y0064006D01*
X0146493Y0063746D01*
X0146338Y0063482D01*
X0146190Y0063214D01*
X0146048Y0062943D01*
X0145913Y0062668D01*
X0145785Y0062390D01*
X0145664Y0062109D01*
X0145549Y0061825D01*
X0145442Y0061538D01*
X0145341Y0061249D01*
X0145248Y0060957D01*
X0145162Y0060663D01*
X0145083Y0060368D01*
X0145012Y0060070D01*
X0144947Y0059771D01*
X0144890Y0059470D01*
X0144841Y0059168D01*
X0144799Y0058865D01*
X0144764Y0058560D01*
X0144737Y0058256D01*
X0144717Y0057950D01*
X0144705Y0057644D01*
X0144700Y0057338D01*
X0144703Y0057032D01*
X0144713Y0056726D01*
X0144731Y0056420D01*
X0144756Y0056115D01*
X0144789Y0055811D01*
X0144829Y0055507D01*
X0144876Y0055205D01*
X0144931Y0054904D01*
X0144993Y0054604D01*
X0145063Y0054306D01*
X0145140Y0054010D01*
X0145224Y0053715D01*
X0145315Y0053423D01*
X0145414Y0053133D01*
X0145519Y0052846D01*
X0145631Y0052561D01*
X0145751Y0052279D01*
X0145877Y0052000D01*
X0146010Y0051725D01*
X0146150Y0051452D01*
X0146296Y0051183D01*
X0146449Y0050918D01*
X0146609Y0050657D01*
X0146775Y0050400D01*
X0146947Y0050146D01*
X0147125Y0049897D01*
X0147309Y0049653D01*
X0147499Y0049413D01*
X0147695Y0049178D01*
X0147897Y0048947D01*
X0148104Y0048722D01*
X0148317Y0048502D01*
X0148535Y0048287D01*
X0148758Y0048078D01*
X0148986Y0047874D01*
X0149219Y0047675D01*
X0149457Y0047483D01*
X0149700Y0047296D01*
X0137200Y0047296D02*
X0137443Y0047483D01*
X0137681Y0047675D01*
X0137914Y0047874D01*
X0138142Y0048078D01*
X0138365Y0048287D01*
X0138583Y0048502D01*
X0138796Y0048722D01*
X0139003Y0048947D01*
X0139205Y0049178D01*
X0139401Y0049413D01*
X0139591Y0049653D01*
X0139775Y0049897D01*
X0139953Y0050146D01*
X0140125Y0050400D01*
X0140291Y0050657D01*
X0140451Y0050918D01*
X0140604Y0051183D01*
X0140750Y0051452D01*
X0140890Y0051725D01*
X0141023Y0052000D01*
X0141149Y0052279D01*
X0141269Y0052561D01*
X0141381Y0052846D01*
X0141486Y0053133D01*
X0141585Y0053423D01*
X0141676Y0053715D01*
X0141760Y0054010D01*
X0141837Y0054306D01*
X0141907Y0054604D01*
X0141969Y0054904D01*
X0142024Y0055205D01*
X0142071Y0055507D01*
X0142111Y0055811D01*
X0142144Y0056115D01*
X0142169Y0056420D01*
X0142187Y0056726D01*
X0142197Y0057032D01*
X0142200Y0057338D01*
X0142195Y0057644D01*
X0142183Y0057950D01*
X0142163Y0058256D01*
X0142136Y0058560D01*
X0142101Y0058865D01*
X0142059Y0059168D01*
X0142010Y0059470D01*
X0141953Y0059771D01*
X0141888Y0060070D01*
X0141817Y0060368D01*
X0141738Y0060663D01*
X0141652Y0060957D01*
X0141559Y0061249D01*
X0141458Y0061538D01*
X0141351Y0061825D01*
X0141236Y0062109D01*
X0141115Y0062390D01*
X0140987Y0062668D01*
X0140852Y0062943D01*
X0140710Y0063214D01*
X0140562Y0063482D01*
X0140407Y0063746D01*
X0140246Y0064006D01*
X0140079Y0064262D01*
X0139905Y0064515D01*
X0139725Y0064762D01*
X0139539Y0065006D01*
X0139348Y0065244D01*
X0139150Y0065478D01*
X0138947Y0065707D01*
X0138738Y0065931D01*
X0138524Y0066150D01*
X0138304Y0066363D01*
X0138080Y0066571D01*
X0137850Y0066774D01*
X0137616Y0066970D01*
X0137376Y0067161D01*
X0137133Y0067346D01*
X0136884Y0067525D01*
X0136632Y0067698D01*
X0136375Y0067865D01*
X0136114Y0068025D01*
X0135849Y0068179D01*
X0135581Y0068326D01*
X0135309Y0068467D01*
X0135034Y0068601D01*
X0134755Y0068728D01*
X0134474Y0068849D01*
X0134189Y0068962D01*
X0133902Y0069068D01*
X0133613Y0069168D01*
X0133321Y0069260D01*
X0133027Y0069345D01*
X0132731Y0069423D01*
X0132433Y0069494D01*
X0132133Y0069557D01*
X0131832Y0069613D01*
X0131530Y0069661D01*
X0131227Y0069702D01*
X0130923Y0069736D01*
X0130618Y0069762D01*
X0130312Y0069781D01*
X0130006Y0069792D01*
X0129700Y0069796D01*
X0129394Y0069792D01*
X0129088Y0069781D01*
X0128782Y0069762D01*
X0128477Y0069736D01*
X0128173Y0069702D01*
X0127870Y0069661D01*
X0127568Y0069613D01*
X0127267Y0069557D01*
X0126967Y0069494D01*
X0126669Y0069423D01*
X0126373Y0069345D01*
X0126079Y0069260D01*
X0125787Y0069168D01*
X0125498Y0069068D01*
X0125211Y0068962D01*
X0124926Y0068849D01*
X0124645Y0068728D01*
X0124366Y0068601D01*
X0124091Y0068467D01*
X0123819Y0068326D01*
X0123551Y0068179D01*
X0123286Y0068025D01*
X0123025Y0067865D01*
X0122768Y0067698D01*
X0122516Y0067525D01*
X0122267Y0067346D01*
X0122024Y0067161D01*
X0121784Y0066970D01*
X0121550Y0066774D01*
X0121320Y0066571D01*
X0121096Y0066363D01*
X0120876Y0066150D01*
X0120662Y0065931D01*
X0120453Y0065707D01*
X0120250Y0065478D01*
X0120052Y0065244D01*
X0119861Y0065006D01*
X0119675Y0064762D01*
X0119495Y0064515D01*
X0119321Y0064262D01*
X0119154Y0064006D01*
X0118993Y0063746D01*
X0118838Y0063482D01*
X0118690Y0063214D01*
X0118548Y0062943D01*
X0118413Y0062668D01*
X0118285Y0062390D01*
X0118164Y0062109D01*
X0118049Y0061825D01*
X0117942Y0061538D01*
X0117841Y0061249D01*
X0117748Y0060957D01*
X0117662Y0060663D01*
X0117583Y0060368D01*
X0117512Y0060070D01*
X0117447Y0059771D01*
X0117390Y0059470D01*
X0117341Y0059168D01*
X0117299Y0058865D01*
X0117264Y0058560D01*
X0117237Y0058256D01*
X0117217Y0057950D01*
X0117205Y0057644D01*
X0117200Y0057338D01*
X0117203Y0057032D01*
X0117213Y0056726D01*
X0117231Y0056420D01*
X0117256Y0056115D01*
X0117289Y0055811D01*
X0117329Y0055507D01*
X0117376Y0055205D01*
X0117431Y0054904D01*
X0117493Y0054604D01*
X0117563Y0054306D01*
X0117640Y0054010D01*
X0117724Y0053715D01*
X0117815Y0053423D01*
X0117914Y0053133D01*
X0118019Y0052846D01*
X0118131Y0052561D01*
X0118251Y0052279D01*
X0118377Y0052000D01*
X0118510Y0051725D01*
X0118650Y0051452D01*
X0118796Y0051183D01*
X0118949Y0050918D01*
X0119109Y0050657D01*
X0119275Y0050400D01*
X0119447Y0050146D01*
X0119625Y0049897D01*
X0119809Y0049653D01*
X0119999Y0049413D01*
X0120195Y0049178D01*
X0120397Y0048947D01*
X0120604Y0048722D01*
X0120817Y0048502D01*
X0121035Y0048287D01*
X0121258Y0048078D01*
X0121486Y0047874D01*
X0121719Y0047675D01*
X0121957Y0047483D01*
X0122200Y0047296D01*
X0109700Y0047296D02*
X0109943Y0047483D01*
X0110181Y0047675D01*
X0110414Y0047874D01*
X0110642Y0048078D01*
X0110865Y0048287D01*
X0111083Y0048502D01*
X0111296Y0048722D01*
X0111503Y0048947D01*
X0111705Y0049178D01*
X0111901Y0049413D01*
X0112091Y0049653D01*
X0112275Y0049897D01*
X0112453Y0050146D01*
X0112625Y0050400D01*
X0112791Y0050657D01*
X0112951Y0050918D01*
X0113104Y0051183D01*
X0113250Y0051452D01*
X0113390Y0051725D01*
X0113523Y0052000D01*
X0113649Y0052279D01*
X0113769Y0052561D01*
X0113881Y0052846D01*
X0113986Y0053133D01*
X0114085Y0053423D01*
X0114176Y0053715D01*
X0114260Y0054010D01*
X0114337Y0054306D01*
X0114407Y0054604D01*
X0114469Y0054904D01*
X0114524Y0055205D01*
X0114571Y0055507D01*
X0114611Y0055811D01*
X0114644Y0056115D01*
X0114669Y0056420D01*
X0114687Y0056726D01*
X0114697Y0057032D01*
X0114700Y0057338D01*
X0114695Y0057644D01*
X0114683Y0057950D01*
X0114663Y0058256D01*
X0114636Y0058560D01*
X0114601Y0058865D01*
X0114559Y0059168D01*
X0114510Y0059470D01*
X0114453Y0059771D01*
X0114388Y0060070D01*
X0114317Y0060368D01*
X0114238Y0060663D01*
X0114152Y0060957D01*
X0114059Y0061249D01*
X0113958Y0061538D01*
X0113851Y0061825D01*
X0113736Y0062109D01*
X0113615Y0062390D01*
X0113487Y0062668D01*
X0113352Y0062943D01*
X0113210Y0063214D01*
X0113062Y0063482D01*
X0112907Y0063746D01*
X0112746Y0064006D01*
X0112579Y0064262D01*
X0112405Y0064515D01*
X0112225Y0064762D01*
X0112039Y0065006D01*
X0111848Y0065244D01*
X0111650Y0065478D01*
X0111447Y0065707D01*
X0111238Y0065931D01*
X0111024Y0066150D01*
X0110804Y0066363D01*
X0110580Y0066571D01*
X0110350Y0066774D01*
X0110116Y0066970D01*
X0109876Y0067161D01*
X0109633Y0067346D01*
X0109384Y0067525D01*
X0109132Y0067698D01*
X0108875Y0067865D01*
X0108614Y0068025D01*
X0108349Y0068179D01*
X0108081Y0068326D01*
X0107809Y0068467D01*
X0107534Y0068601D01*
X0107255Y0068728D01*
X0106974Y0068849D01*
X0106689Y0068962D01*
X0106402Y0069068D01*
X0106113Y0069168D01*
X0105821Y0069260D01*
X0105527Y0069345D01*
X0105231Y0069423D01*
X0104933Y0069494D01*
X0104633Y0069557D01*
X0104332Y0069613D01*
X0104030Y0069661D01*
X0103727Y0069702D01*
X0103423Y0069736D01*
X0103118Y0069762D01*
X0102812Y0069781D01*
X0102506Y0069792D01*
X0102200Y0069796D01*
X0101894Y0069792D01*
X0101588Y0069781D01*
X0101282Y0069762D01*
X0100977Y0069736D01*
X0100673Y0069702D01*
X0100370Y0069661D01*
X0100068Y0069613D01*
X0099767Y0069557D01*
X0099467Y0069494D01*
X0099169Y0069423D01*
X0098873Y0069345D01*
X0098579Y0069260D01*
X0098287Y0069168D01*
X0097998Y0069068D01*
X0097711Y0068962D01*
X0097426Y0068849D01*
X0097145Y0068728D01*
X0096866Y0068601D01*
X0096591Y0068467D01*
X0096319Y0068326D01*
X0096051Y0068179D01*
X0095786Y0068025D01*
X0095525Y0067865D01*
X0095268Y0067698D01*
X0095016Y0067525D01*
X0094767Y0067346D01*
X0094524Y0067161D01*
X0094284Y0066970D01*
X0094050Y0066774D01*
X0093820Y0066571D01*
X0093596Y0066363D01*
X0093376Y0066150D01*
X0093162Y0065931D01*
X0092953Y0065707D01*
X0092750Y0065478D01*
X0092552Y0065244D01*
X0092361Y0065006D01*
X0092175Y0064762D01*
X0091995Y0064515D01*
X0091821Y0064262D01*
X0091654Y0064006D01*
X0091493Y0063746D01*
X0091338Y0063482D01*
X0091190Y0063214D01*
X0091048Y0062943D01*
X0090913Y0062668D01*
X0090785Y0062390D01*
X0090664Y0062109D01*
X0090549Y0061825D01*
X0090442Y0061538D01*
X0090341Y0061249D01*
X0090248Y0060957D01*
X0090162Y0060663D01*
X0090083Y0060368D01*
X0090012Y0060070D01*
X0089947Y0059771D01*
X0089890Y0059470D01*
X0089841Y0059168D01*
X0089799Y0058865D01*
X0089764Y0058560D01*
X0089737Y0058256D01*
X0089717Y0057950D01*
X0089705Y0057644D01*
X0089700Y0057338D01*
X0089703Y0057032D01*
X0089713Y0056726D01*
X0089731Y0056420D01*
X0089756Y0056115D01*
X0089789Y0055811D01*
X0089829Y0055507D01*
X0089876Y0055205D01*
X0089931Y0054904D01*
X0089993Y0054604D01*
X0090063Y0054306D01*
X0090140Y0054010D01*
X0090224Y0053715D01*
X0090315Y0053423D01*
X0090414Y0053133D01*
X0090519Y0052846D01*
X0090631Y0052561D01*
X0090751Y0052279D01*
X0090877Y0052000D01*
X0091010Y0051725D01*
X0091150Y0051452D01*
X0091296Y0051183D01*
X0091449Y0050918D01*
X0091609Y0050657D01*
X0091775Y0050400D01*
X0091947Y0050146D01*
X0092125Y0049897D01*
X0092309Y0049653D01*
X0092499Y0049413D01*
X0092695Y0049178D01*
X0092897Y0048947D01*
X0093104Y0048722D01*
X0093317Y0048502D01*
X0093535Y0048287D01*
X0093758Y0048078D01*
X0093986Y0047874D01*
X0094219Y0047675D01*
X0094457Y0047483D01*
X0094700Y0047296D01*
X0082200Y0047296D02*
X0082443Y0047483D01*
X0082681Y0047675D01*
X0082914Y0047874D01*
X0083142Y0048078D01*
X0083365Y0048287D01*
X0083583Y0048502D01*
X0083796Y0048722D01*
X0084003Y0048947D01*
X0084205Y0049178D01*
X0084401Y0049413D01*
X0084591Y0049653D01*
X0084775Y0049897D01*
X0084953Y0050146D01*
X0085125Y0050400D01*
X0085291Y0050657D01*
X0085451Y0050918D01*
X0085604Y0051183D01*
X0085750Y0051452D01*
X0085890Y0051725D01*
X0086023Y0052000D01*
X0086149Y0052279D01*
X0086269Y0052561D01*
X0086381Y0052846D01*
X0086486Y0053133D01*
X0086585Y0053423D01*
X0086676Y0053715D01*
X0086760Y0054010D01*
X0086837Y0054306D01*
X0086907Y0054604D01*
X0086969Y0054904D01*
X0087024Y0055205D01*
X0087071Y0055507D01*
X0087111Y0055811D01*
X0087144Y0056115D01*
X0087169Y0056420D01*
X0087187Y0056726D01*
X0087197Y0057032D01*
X0087200Y0057338D01*
X0087195Y0057644D01*
X0087183Y0057950D01*
X0087163Y0058256D01*
X0087136Y0058560D01*
X0087101Y0058865D01*
X0087059Y0059168D01*
X0087010Y0059470D01*
X0086953Y0059771D01*
X0086888Y0060070D01*
X0086817Y0060368D01*
X0086738Y0060663D01*
X0086652Y0060957D01*
X0086559Y0061249D01*
X0086458Y0061538D01*
X0086351Y0061825D01*
X0086236Y0062109D01*
X0086115Y0062390D01*
X0085987Y0062668D01*
X0085852Y0062943D01*
X0085710Y0063214D01*
X0085562Y0063482D01*
X0085407Y0063746D01*
X0085246Y0064006D01*
X0085079Y0064262D01*
X0084905Y0064515D01*
X0084725Y0064762D01*
X0084539Y0065006D01*
X0084348Y0065244D01*
X0084150Y0065478D01*
X0083947Y0065707D01*
X0083738Y0065931D01*
X0083524Y0066150D01*
X0083304Y0066363D01*
X0083080Y0066571D01*
X0082850Y0066774D01*
X0082616Y0066970D01*
X0082376Y0067161D01*
X0082133Y0067346D01*
X0081884Y0067525D01*
X0081632Y0067698D01*
X0081375Y0067865D01*
X0081114Y0068025D01*
X0080849Y0068179D01*
X0080581Y0068326D01*
X0080309Y0068467D01*
X0080034Y0068601D01*
X0079755Y0068728D01*
X0079474Y0068849D01*
X0079189Y0068962D01*
X0078902Y0069068D01*
X0078613Y0069168D01*
X0078321Y0069260D01*
X0078027Y0069345D01*
X0077731Y0069423D01*
X0077433Y0069494D01*
X0077133Y0069557D01*
X0076832Y0069613D01*
X0076530Y0069661D01*
X0076227Y0069702D01*
X0075923Y0069736D01*
X0075618Y0069762D01*
X0075312Y0069781D01*
X0075006Y0069792D01*
X0074700Y0069796D01*
X0074394Y0069792D01*
X0074088Y0069781D01*
X0073782Y0069762D01*
X0073477Y0069736D01*
X0073173Y0069702D01*
X0072870Y0069661D01*
X0072568Y0069613D01*
X0072267Y0069557D01*
X0071967Y0069494D01*
X0071669Y0069423D01*
X0071373Y0069345D01*
X0071079Y0069260D01*
X0070787Y0069168D01*
X0070498Y0069068D01*
X0070211Y0068962D01*
X0069926Y0068849D01*
X0069645Y0068728D01*
X0069366Y0068601D01*
X0069091Y0068467D01*
X0068819Y0068326D01*
X0068551Y0068179D01*
X0068286Y0068025D01*
X0068025Y0067865D01*
X0067768Y0067698D01*
X0067516Y0067525D01*
X0067267Y0067346D01*
X0067024Y0067161D01*
X0066784Y0066970D01*
X0066550Y0066774D01*
X0066320Y0066571D01*
X0066096Y0066363D01*
X0065876Y0066150D01*
X0065662Y0065931D01*
X0065453Y0065707D01*
X0065250Y0065478D01*
X0065052Y0065244D01*
X0064861Y0065006D01*
X0064675Y0064762D01*
X0064495Y0064515D01*
X0064321Y0064262D01*
X0064154Y0064006D01*
X0063993Y0063746D01*
X0063838Y0063482D01*
X0063690Y0063214D01*
X0063548Y0062943D01*
X0063413Y0062668D01*
X0063285Y0062390D01*
X0063164Y0062109D01*
X0063049Y0061825D01*
X0062942Y0061538D01*
X0062841Y0061249D01*
X0062748Y0060957D01*
X0062662Y0060663D01*
X0062583Y0060368D01*
X0062512Y0060070D01*
X0062447Y0059771D01*
X0062390Y0059470D01*
X0062341Y0059168D01*
X0062299Y0058865D01*
X0062264Y0058560D01*
X0062237Y0058256D01*
X0062217Y0057950D01*
X0062205Y0057644D01*
X0062200Y0057338D01*
X0062203Y0057032D01*
X0062213Y0056726D01*
X0062231Y0056420D01*
X0062256Y0056115D01*
X0062289Y0055811D01*
X0062329Y0055507D01*
X0062376Y0055205D01*
X0062431Y0054904D01*
X0062493Y0054604D01*
X0062563Y0054306D01*
X0062640Y0054010D01*
X0062724Y0053715D01*
X0062815Y0053423D01*
X0062914Y0053133D01*
X0063019Y0052846D01*
X0063131Y0052561D01*
X0063251Y0052279D01*
X0063377Y0052000D01*
X0063510Y0051725D01*
X0063650Y0051452D01*
X0063796Y0051183D01*
X0063949Y0050918D01*
X0064109Y0050657D01*
X0064275Y0050400D01*
X0064447Y0050146D01*
X0064625Y0049897D01*
X0064809Y0049653D01*
X0064999Y0049413D01*
X0065195Y0049178D01*
X0065397Y0048947D01*
X0065604Y0048722D01*
X0065817Y0048502D01*
X0066035Y0048287D01*
X0066258Y0048078D01*
X0066486Y0047874D01*
X0066719Y0047675D01*
X0066957Y0047483D01*
X0067200Y0047296D01*
X0054700Y0047296D02*
X0054943Y0047483D01*
X0055181Y0047675D01*
X0055414Y0047874D01*
X0055642Y0048078D01*
X0055865Y0048287D01*
X0056083Y0048502D01*
X0056296Y0048722D01*
X0056503Y0048947D01*
X0056705Y0049178D01*
X0056901Y0049413D01*
X0057091Y0049653D01*
X0057275Y0049897D01*
X0057453Y0050146D01*
X0057625Y0050400D01*
X0057791Y0050657D01*
X0057951Y0050918D01*
X0058104Y0051183D01*
X0058250Y0051452D01*
X0058390Y0051725D01*
X0058523Y0052000D01*
X0058649Y0052279D01*
X0058769Y0052561D01*
X0058881Y0052846D01*
X0058986Y0053133D01*
X0059085Y0053423D01*
X0059176Y0053715D01*
X0059260Y0054010D01*
X0059337Y0054306D01*
X0059407Y0054604D01*
X0059469Y0054904D01*
X0059524Y0055205D01*
X0059571Y0055507D01*
X0059611Y0055811D01*
X0059644Y0056115D01*
X0059669Y0056420D01*
X0059687Y0056726D01*
X0059697Y0057032D01*
X0059700Y0057338D01*
X0059695Y0057644D01*
X0059683Y0057950D01*
X0059663Y0058256D01*
X0059636Y0058560D01*
X0059601Y0058865D01*
X0059559Y0059168D01*
X0059510Y0059470D01*
X0059453Y0059771D01*
X0059388Y0060070D01*
X0059317Y0060368D01*
X0059238Y0060663D01*
X0059152Y0060957D01*
X0059059Y0061249D01*
X0058958Y0061538D01*
X0058851Y0061825D01*
X0058736Y0062109D01*
X0058615Y0062390D01*
X0058487Y0062668D01*
X0058352Y0062943D01*
X0058210Y0063214D01*
X0058062Y0063482D01*
X0057907Y0063746D01*
X0057746Y0064006D01*
X0057579Y0064262D01*
X0057405Y0064515D01*
X0057225Y0064762D01*
X0057039Y0065006D01*
X0056848Y0065244D01*
X0056650Y0065478D01*
X0056447Y0065707D01*
X0056238Y0065931D01*
X0056024Y0066150D01*
X0055804Y0066363D01*
X0055580Y0066571D01*
X0055350Y0066774D01*
X0055116Y0066970D01*
X0054876Y0067161D01*
X0054633Y0067346D01*
X0054384Y0067525D01*
X0054132Y0067698D01*
X0053875Y0067865D01*
X0053614Y0068025D01*
X0053349Y0068179D01*
X0053081Y0068326D01*
X0052809Y0068467D01*
X0052534Y0068601D01*
X0052255Y0068728D01*
X0051974Y0068849D01*
X0051689Y0068962D01*
X0051402Y0069068D01*
X0051113Y0069168D01*
X0050821Y0069260D01*
X0050527Y0069345D01*
X0050231Y0069423D01*
X0049933Y0069494D01*
X0049633Y0069557D01*
X0049332Y0069613D01*
X0049030Y0069661D01*
X0048727Y0069702D01*
X0048423Y0069736D01*
X0048118Y0069762D01*
X0047812Y0069781D01*
X0047506Y0069792D01*
X0047200Y0069796D01*
X0046894Y0069792D01*
X0046588Y0069781D01*
X0046282Y0069762D01*
X0045977Y0069736D01*
X0045673Y0069702D01*
X0045370Y0069661D01*
X0045068Y0069613D01*
X0044767Y0069557D01*
X0044467Y0069494D01*
X0044169Y0069423D01*
X0043873Y0069345D01*
X0043579Y0069260D01*
X0043287Y0069168D01*
X0042998Y0069068D01*
X0042711Y0068962D01*
X0042426Y0068849D01*
X0042145Y0068728D01*
X0041866Y0068601D01*
X0041591Y0068467D01*
X0041319Y0068326D01*
X0041051Y0068179D01*
X0040786Y0068025D01*
X0040525Y0067865D01*
X0040268Y0067698D01*
X0040016Y0067525D01*
X0039767Y0067346D01*
X0039524Y0067161D01*
X0039284Y0066970D01*
X0039050Y0066774D01*
X0038820Y0066571D01*
X0038596Y0066363D01*
X0038376Y0066150D01*
X0038162Y0065931D01*
X0037953Y0065707D01*
X0037750Y0065478D01*
X0037552Y0065244D01*
X0037361Y0065006D01*
X0037175Y0064762D01*
X0036995Y0064515D01*
X0036821Y0064262D01*
X0036654Y0064006D01*
X0036493Y0063746D01*
X0036338Y0063482D01*
X0036190Y0063214D01*
X0036048Y0062943D01*
X0035913Y0062668D01*
X0035785Y0062390D01*
X0035664Y0062109D01*
X0035549Y0061825D01*
X0035442Y0061538D01*
X0035341Y0061249D01*
X0035248Y0060957D01*
X0035162Y0060663D01*
X0035083Y0060368D01*
X0035012Y0060070D01*
X0034947Y0059771D01*
X0034890Y0059470D01*
X0034841Y0059168D01*
X0034799Y0058865D01*
X0034764Y0058560D01*
X0034737Y0058256D01*
X0034717Y0057950D01*
X0034705Y0057644D01*
X0034700Y0057338D01*
X0034703Y0057032D01*
X0034713Y0056726D01*
X0034731Y0056420D01*
X0034756Y0056115D01*
X0034789Y0055811D01*
X0034829Y0055507D01*
X0034876Y0055205D01*
X0034931Y0054904D01*
X0034993Y0054604D01*
X0035063Y0054306D01*
X0035140Y0054010D01*
X0035224Y0053715D01*
X0035315Y0053423D01*
X0035414Y0053133D01*
X0035519Y0052846D01*
X0035631Y0052561D01*
X0035751Y0052279D01*
X0035877Y0052000D01*
X0036010Y0051725D01*
X0036150Y0051452D01*
X0036296Y0051183D01*
X0036449Y0050918D01*
X0036609Y0050657D01*
X0036775Y0050400D01*
X0036947Y0050146D01*
X0037125Y0049897D01*
X0037309Y0049653D01*
X0037499Y0049413D01*
X0037695Y0049178D01*
X0037897Y0048947D01*
X0038104Y0048722D01*
X0038317Y0048502D01*
X0038535Y0048287D01*
X0038758Y0048078D01*
X0038986Y0047874D01*
X0039219Y0047675D01*
X0039457Y0047483D01*
X0039700Y0047296D01*
D23*
X0050200Y0218546D03*
X0050200Y0229796D03*
X0103950Y0229796D03*
X0103950Y0218546D03*
X0158950Y0218546D03*
X0158950Y0229796D03*
X0213950Y0229796D03*
X0213950Y0218546D03*
D24*
X0220200Y0218546D03*
X0220200Y0229796D03*
X0196700Y0229796D03*
X0196700Y0218546D03*
X0165200Y0218546D03*
X0165200Y0229796D03*
X0141700Y0229796D03*
X0141700Y0218546D03*
X0110200Y0218546D03*
X0110200Y0229796D03*
X0086700Y0229796D03*
X0086700Y0218546D03*
X0056450Y0218546D03*
X0056450Y0229796D03*
X0032950Y0229796D03*
X0032950Y0218546D03*
M02*
