%
M48
M72
T01C0.05118
T02C0.12598
%
T01
X45646Y69717
X45646Y89717
X45646Y109717
X45646Y129717
X79643Y115942
X95391Y115942
X120391Y115942
X145391Y115942
X145391Y63973
X120391Y63973
X95391Y63973
X79643Y63973
X45646Y164717
X45646Y184717
X45646Y204717
X45646Y224717
X79643Y235942
X95391Y235942
X120391Y235942
X145391Y235942
X190307Y239859
X210307Y239859
X240292Y209883
X240292Y189883
X240450Y159883
X240450Y139883
X240292Y109883
X240292Y89883
X210474Y59741
X190474Y59741
X200391Y100800
X145391Y183973
X120391Y183973
X95391Y183973
X79643Y183973
X200391Y198800
T02
X24485Y24485
X24485Y260706
X260706Y260706
X260706Y24485
M30
