M48
;GenerationSoftware,Autodesk,EAGLE,9.0.1*%
;CreationDate,2018-05-18T07:37:17Z*%
FMAT,2
ICI,OFF
INCH,TZ,000.0000
T6C0.0315
T5C0.0320
T4C0.0394
T3C0.0400
T2C0.0433
T1C0.1181
%
G90
M72
T1
X-3469Y1969
X-13311Y1969
X-3469Y19685
X-13311Y19685
T2
X-6750Y3116
X-6250Y2250
X-5750Y1384
X-11250Y3116
X-10750Y2250
X-10250Y1384
T3
X-3750Y16750
X-5750Y16750
X-10500Y18750
X-8500Y18750
T4
X-10000Y9000
X-7000Y9000
T5
X-4000Y4750
X-3000Y4750
X-13000Y4750
X-14000Y4750
T6
X-5500Y13000
X-6500Y13000
X-7500Y13000
X-8500Y13000
X-10500Y13000
X-12500Y13000
M30