M48
;GenerationSoftware,Autodesk,EAGLE,9.0.1*%
;CreationDate,2018-05-17T06:25:57Z*%
FMAT,2
ICI,OFF
INCH,TZ,000.0000
T6C0.0315
T5C0.0320
T4C0.0394
T3C0.0400
T2C0.0433
T1C0.1181
%
G90
M72
T1
X2531Y1969
X-7311Y1969
X2531Y19685
X-7311Y19685
T2
X-750Y3116
X-250Y2250
X250Y1384
X-5250Y3116
X-4750Y2250
X-4250Y1384
T3
X2250Y16750
X250Y16750
X-4500Y18750
X-2500Y18750
T4
X-4000Y9000
X-1000Y9000
T5
X2000Y4750
X3000Y4750
X-7000Y4750
X-8000Y4750
T6
X500Y13000
X-500Y13000
X-1500Y13000
X-2500Y13000
X-4500Y13000
X-6500Y13000
M30