M48
;GenerationSoftware,Autodesk,EAGLE,9.0.1*%
;CreationDate,2018-05-18T07:02:47Z*%
FMAT,2
ICI,OFF
INCH,TZ,000.0000
T4C0.0276
T3C0.0320
T2C0.0433
T1C0.1181
%
G90
M72
T1
X-6501Y1969
X-28155Y1969
X-28155Y13780
X-6501Y13780
T2
X-21533Y1500
X-20533Y1500
X-19533Y1500
X-18533Y1500
X-17533Y1500
X-16533Y1500
X-10786Y1561
X-9786Y1561
X-8786Y1561
X-11533Y5500
X-10533Y5500
X-23533Y5500
X-22533Y5500
X-19533Y5500
X-18533Y5500
X-15533Y5500
X-14533Y5500
X-7533Y5500
X-6533Y5500
X-27533Y5500
X-26533Y5500
T3
X-12789Y2133
X-12789Y1133
T4
X-13033Y7439
X-13033Y3439
X-28910Y7439
X-28910Y3439
X-25033Y7439
X-25033Y3439
X-21033Y7439
X-21033Y3439
X-9033Y7439
X-9033Y3439
X-17033Y7439
X-17033Y3439
M30