%
M48
M72
T01C0.03200
T02C0.04724
T03C0.12598
%
T01
X14701Y291000
X14701Y301000
X24701Y301000
X34701Y301000
T02
X14701Y51000
X14701Y76000
X14701Y101000
X14701Y126000
X14701Y151000
X14701Y176000
X14701Y201000
X14701Y226000
X14701Y251000
X14701Y276000
X24701Y276000
X24701Y251000
X24701Y226000
X24701Y201000
X24701Y176000
X24701Y151000
X24701Y126000
X24701Y101000
X24701Y76000
X24701Y51000
X34701Y51000
X34701Y76000
X34701Y101000
X34701Y126000
X34701Y151000
X34701Y176000
X34701Y201000
X34701Y226000
X34701Y251000
X34701Y276000
T03
X25094Y335646
X25094Y20685
M30
