%
M48
M72
T01C0.03150
T02C0.03200
T03C0.03600
T04C0.03900
T05C0.04000
T06C0.04400
T07C0.04724
T08C0.12598
%
T01
X47600Y206133
X47600Y216133
X47600Y226133
X102600Y226133
X102600Y216133
X102600Y206133
X157600Y206133
X157600Y216133
X157600Y226133
X212600Y226133
X212600Y216133
X212600Y206133
T02
X202600Y206133
X222600Y216133
X222600Y176133
X202600Y166133
X167600Y176133
X147600Y166133
X112600Y176133
X92600Y166133
X108850Y151133
X68850Y151133
X57600Y176133
X37600Y166133
X17600Y201133
X17600Y211133
X17600Y221133
X37600Y206133
X57600Y216133
X92600Y206133
X112600Y216133
X147600Y206133
X167600Y216133
X222600Y121133
X232600Y121133
X242600Y121133
X252600Y121133
X252600Y81133
X242600Y81133
X232600Y81133
X222600Y81133
X217600Y58633
X217600Y48633
X192600Y48633
X192600Y58633
X167600Y58633
X167600Y48633
X142600Y48633
X142600Y58633
X117600Y58633
X117600Y48633
X125100Y93633
X165100Y93633
X52600Y81133
X52600Y71133
X37600Y84883
X37600Y124883
X17600Y261133
T03
X92600Y138633
X92600Y108633
T04
X107600Y111133
X117600Y111133
X127600Y111133
X137600Y111133
X147600Y111133
X157600Y111133
X167600Y111133
X177600Y111133
X187600Y111133
X197600Y111133
X197600Y141133
X187600Y141133
X177600Y141133
X167600Y141133
X157600Y141133
X147600Y141133
X137600Y141133
X127600Y141133
X117600Y141133
X107600Y141133
T05
X127600Y196133
X127600Y206133
X127600Y216133
X182600Y216133
X182600Y206133
X182600Y196133
X237600Y196133
X237600Y206133
X237600Y216133
X97900Y77533
X97900Y59733
X72300Y59733
X72300Y77533
X26350Y86133
X26350Y96133
X26350Y106133
X26350Y116133
X26350Y126133
X26350Y136133
X72600Y196133
X72600Y206133
X72600Y216133
T06
X82600Y236133
X82600Y246133
X107600Y246133
X107600Y236133
X137600Y236133
X137600Y246133
X162600Y246133
X162600Y236133
X192600Y236133
X192600Y246133
X217600Y246133
X217600Y236133
X247600Y236133
X247600Y246133
X52600Y246133
X52600Y236133
T07
X52600Y281133
X62600Y281133
X72600Y281133
X127600Y281133
X137600Y281133
X147600Y281133
X157600Y281133
X167600Y281133
X177600Y281133
X76350Y136133
X76350Y126133
X76350Y116133
X76350Y106133
X52600Y106133
X52600Y116133
X52600Y126133
X52600Y136133
T08
X26694Y54873
X26694Y291093
X262915Y291093
X262915Y54873
M30
