%
M48
M72
T01C0.02756
T02C0.03150
T03C0.03200
T04C0.04331
T05C0.05100
T06C0.05118
%
T01
X171537Y107600
X181537Y117600
X191537Y107600
X200287Y107600
X210287Y117600
X220287Y107600
X215287Y72600
X205287Y62600
X225287Y62600
X234037Y62600
X244037Y72600
X254037Y62600
T02
X244037Y80100
X226537Y80100
X226537Y88850
X241537Y122600
X241537Y131350
X226537Y127600
X220287Y125100
X216537Y137600
X226537Y137600
X216537Y147600
X237787Y156350
X246537Y166350
X255287Y166350
X307787Y170100
X309037Y158850
X327787Y172600
X327787Y182600
X309662Y215725
X171537Y167600
X167787Y130100
X161537Y95100
X139037Y83850
X151537Y68850
X152787Y56350
X117787Y45100
X101537Y75100
X57787Y55100
X22787Y86350
X197787Y53850
T03
X191537Y53850
X181537Y53850
X171537Y53850
X161537Y53850
X161537Y83850
X171537Y83850
X181537Y83850
X191537Y83850
X209037Y82600
X219037Y82600
X241537Y177600
X241537Y187600
X241537Y197600
X241537Y207600
X271537Y207600
X271537Y197600
X271537Y187600
X271537Y177600
X159037Y212600
X149037Y212600
X134037Y212600
X124037Y212600
X41537Y210100
X41537Y200100
X24037Y200100
X24037Y210100
T04
X22787Y48850
X32787Y48850
X42787Y48850
X72787Y57600
X72787Y67600
X94037Y67600
X94037Y57600
X115287Y57600
X115287Y67600
X136537Y67600
X136537Y57600
X42787Y71350
X32787Y71350
X22787Y71350
X221537Y177600
X221537Y187600
X221537Y197600
X221537Y207600
X291537Y207600
X291537Y197600
X291537Y187600
X291537Y177600
X294037Y150100
X284037Y150100
X274037Y150100
X264037Y150100
X254037Y150100
X259037Y127600
X269037Y127600
X279037Y127600
X289037Y127600
X299037Y127600
X294037Y105100
X304037Y105100
X284037Y105100
X274037Y105100
X264037Y105100
X240287Y105100
X240287Y95100
X269037Y82600
X279037Y82600
X289037Y82600
X299037Y82600
X309037Y82600
X304037Y60100
X294037Y60100
X284037Y60100
X274037Y60100
X314037Y60100
T05
X145487Y101500
X145487Y189500
T06
X191635Y187683
X191635Y167683
X191635Y147683
X191635Y207683
M30
